<?xml version="1.0" encoding="utf-8"?>
<!-- Generator: Adobe Illustrator 19.0.0, SVG Export Plug-In . SVG Version: 6.00 Build 0)  -->
<svg version="1.1" id="Layer_1" xmlns="http://www.w3.org/2000/svg" xmlns:xlink="http://www.w3.org/1999/xlink" x="0px" y="0px"
	 viewBox="0 0 512 512" style="enable-background:new 0 0 512 512;" xml:space="preserve">
<style type="text/css">
	.st0{fill:none;stroke:#58595B;stroke-width:16.9754;stroke-miterlimit:10;}
	.st1{fill:#196FD9;}
	.st2{fill:#58595B;}
</style>
<g id="XMLID_46_">
	<path id="XMLID_73_" class="st0" d="M403.4,381.9H109.7c-30,0-54.3-24.3-54.3-54.3V185c0-30,24.3-54.3,54.3-54.3h293.7
		c30,0,54.3,24.3,54.3,54.3v142.6C457.7,357.6,433.4,381.9,403.4,381.9z"/>
	<circle id="XMLID_72_" class="st1" cx="179.3" cy="227.6" r="39"/>
	<path id="XMLID_71_" class="st1" d="M234.8,324H124.3c0-13.8,5.6-26.3,14.7-35.4c9.1-9.1,21.6-14.7,35.4-14.7h10.3
		C212.4,274,234.8,296.4,234.8,324z"/>
	<path id="XMLID_55_" class="st2" d="M411.6,211.6H277.5c-4.2,0-7.6-3.4-7.6-7.6v0c0-4.2,3.4-7.6,7.6-7.6h134.1
		c4.2,0,7.6,3.4,7.6,7.6v0C419.2,208.2,415.8,211.6,411.6,211.6z"/>
	<path id="XMLID_54_" class="st2" d="M359.5,239h-82c-4.2,0-7.6-3.4-7.6-7.6v0c0-4.2,3.4-7.6,7.6-7.6h82c4.2,0,7.6,3.4,7.6,7.6v0
		C367.2,235.6,363.7,239,359.5,239z"/>
	<path id="XMLID_52_" class="st2" d="M411.6,281.6H277.5c-4.2,0-7.6-3.4-7.6-7.6v0c0-4.2,3.4-7.6,7.6-7.6h134.1
		c4.2,0,7.6,3.4,7.6,7.6v0C419.2,278.2,415.8,281.6,411.6,281.6z"/>
	<path id="XMLID_50_" class="st2" d="M411.6,309.9H277.5c-4.2,0-7.6-3.4-7.6-7.6l0,0c0-4.2,3.4-7.6,7.6-7.6h134.1
		c4.2,0,7.6,3.4,7.6,7.6l0,0C419.2,306.5,415.8,309.9,411.6,309.9z"/>
</g>
</svg>
