<svg xmlns="http://www.w3.org/2000/svg" viewBox="0 0 547.15 385.54">
  <path fill="#296fb7" d="M412.77,284c0,106.46-86.31,192.77-192.77,192.77S27.23,390.46,27.23,284,113.54,91.23,220,91.23,412.77,177.54,412.77,284" transform="translate(-10.43 -91.23)"/>
  <path fill="#39a9e0" d="M36.19,342.27a75.94,75.94,0,0,0,99.21,115,193.32,193.32,0,0,1-99.21-115" transform="translate(-10.43 -91.23)"/>
  <path fill="#1d4fa3" d="M86.37,323.34a75.65,75.65,0,0,0-50.17,18.93,193.32,193.32,0,0,0,99.21,115,75.94,75.94,0,0,0-49-133.93" transform="translate(-10.43 -91.23)"/>
  <path fill="#942581" d="M412.77,182.35a145.58,145.58,0,0,0-27.37,2.58,192.87,192.87,0,0,1-58,259.19,144.81,144.81,0,1,0,85.39-261.77" transform="translate(-10.43 -91.23)"/>
  <path fill="#22225e" d="M385.4,184.93a144.83,144.83,0,0,0-58,259.19,192.87,192.87,0,0,0,58-259.19" transform="translate(-10.43 -91.23)"/>
</svg>