<?xml version="1.0" encoding="utf-8"?>
<!-- Generator: Adobe Illustrator 19.0.0, SVG Export Plug-In . SVG Version: 6.00 Build 0)  -->
<svg version="1.1" id="Layer_1" xmlns="http://www.w3.org/2000/svg" xmlns:xlink="http://www.w3.org/1999/xlink" x="0px" y="0px"
	 viewBox="0 0 512 512" style="enable-background:new 0 0 512 512;" xml:space="preserve">
<g id="XMLID_91_">
	<path id="XMLID_146_" d="M125.8,324.6c0-23.9,0-47.8,0-71.7c0-10,9.1-16.3,18-12.8c5.2,2.1,8.1,6.8,8.1,13.5c0,31.5,0,63.1,0,94.6
		c0,15,0,30,0,45.1c0,10.2,6.1,16.3,16.3,16.3c8.9,0,17.7,0,26.6,0c10,0,16.1-6.1,16.2-16c0-15.6,0-31.1,0-46.7
		c0-24.2,18-42.2,42.3-42.1c6,0,12.1,0,17.9,1.3c18.6,4.2,31.4,20.7,31.5,39.9c0.1,15.8,0,31.7,0,47.5c0,10,6.1,16.1,16,16.2
		c11.2,0,22.4,0,33.6,0c9.9,0,16-6.2,16-16.1c0-46.6,0-93.1,0-139.7c0-6,2.1-10.7,7.7-13.3c8.8-4.1,18.4,2.3,18.4,12.4
		c0.1,15.4,0,30.9,0,46.3c0,31.3,0,62.5,0,93.8c0,25-17.8,42.8-42.8,42.8c-11.2,0-22.4,0-33.6,0c-23.2-0.1-41.3-18.2-41.4-41.3
		c-0.1-15.7,0-31.4,0-47.1c0-10.4-6.1-16.4-16.6-16.4c-2.5,0-4.9,0-7.4,0c-9.1,0.1-15.4,6.3-15.5,15.5c-0.1,15.6,0,31.1,0,46.7
		c0,24.8-17.8,42.7-42.5,42.6c-11.5,0-23,0.6-34.3-0.8c-20-2.6-34.3-19.9-34.4-40.2C125.7,371.3,125.8,348,125.8,324.6z"/>
	<path id="XMLID_145_" d="M257.1,76.9c9.4,0.1,18,3.1,25.5,9.1c50.7,40.9,101.3,81.7,152,122.7c6.5,5.3,7.6,13.2,2.7,19.1
		c-4.9,5.9-12.7,6.4-19.3,1C368.5,188.9,319,148.9,269.5,109c-2.9-2.3-6.3-4.6-9.8-5.6c-5.4-1.6-10,0.9-14.2,4.4
		c-38.8,31.5-77.7,62.8-116.5,94.2c-11,8.9-22.1,17.8-33.1,26.7c-6.9,5.5-14.7,5.1-19.6-1c-4.9-6.1-3.6-13.8,3.3-19.4
		c50.3-40.6,100.7-81.3,151-121.9C238.2,80.1,247,77,257.1,76.9z"/>
	<path id="XMLID_144_" d="M230.5,180c-0.2,4.5-1.9,8.1-5.4,10.7c-8.6,6.5-17.2,13-25.9,19.4c-6.3,4.6-14.1,3.5-18.5-2.5
		c-4.3-5.8-3.2-13.6,2.8-18.2c8.7-6.7,17.4-13.2,26.2-19.6c4.3-3.2,9.1-3.5,13.9-0.9C228.1,171.2,230.2,175.1,230.5,180z"/>
</g>
</svg>
