<?xml version="1.0" encoding="utf-8"?>
<!-- Generator: Adobe Illustrator 19.0.0, SVG Export Plug-In . SVG Version: 6.00 Build 0)  -->
<svg version="1.1" id="Layer_1" xmlns="http://www.w3.org/2000/svg" xmlns:xlink="http://www.w3.org/1999/xlink" x="0px" y="0px"
	 viewBox="0 0 512 512" style="enable-background:new 0 0 512 512;" xml:space="preserve">
<style type="text/css">
	.st0{fill:#196FD9;}
</style>
<path id="XMLID_136_" class="st0" d="M307.1,200.8c0,7.1-5.8,12.9-12.9,12.9h-25.7v25.7c0,7.1-5.8,12.9-12.9,12.9
	c-7.1,0-12.9-5.8-12.9-12.9v-25.7H217c-7.1,0-12.9-5.8-12.9-12.9c0-7.1,5.8-12.9,12.9-12.9h25.7v-25.7c0-7.1,5.8-12.9,12.9-12.9
	c7.1,0,12.9,5.8,12.9,12.9V188h25.7C301.3,188,307.1,193.7,307.1,200.8z M395.3,305.1v-73l-111.8,69.5c-8.4,5.2-17.8,7.8-27.2,7.8
	s-18.8-2.6-27.2-7.8l-111.8-69.5v137.3c0,14.2,11.5,25.7,25.7,25.7h226.6c14.2,0,25.7-11.5,25.7-25.7c0-7.1,5.8-12.9,12.9-12.9
	s12.9,5.8,12.9,12.9c0,28.4-23.1,51.5-51.5,51.5H143c-28.4,0-51.5-23.1-51.5-51.5V215.4c0-17.6,8.9-33.9,23.7-43.4l113.7-72.7
	c0,0,0.1-0.1,0.1-0.1c16.8-10.4,37.6-10.4,54.4,0c0.1,0,0.1,0.1,0.1,0.1l113.7,72.8c14.9,9.5,23.7,25.7,23.7,43.4v89.7
	c0,7.1-5.8,12.9-12.9,12.9S395.3,312.2,395.3,305.1z M392.4,203.6c-2-3.9-5.1-7.4-9-9.8L269.8,121c-8.4-5.2-18.7-5.2-27.1,0
	l-113.6,72.7c-3.9,2.5-7,5.9-9,9.9l122.6,76.2c8.4,5.2,18.8,5.2,27.2,0L392.4,203.6z"/>
</svg>
