<?xml version="1.0" encoding="utf-8"?>
<!-- Generator: Adobe Illustrator 19.0.0, SVG Export Plug-In . SVG Version: 6.00 Build 0)  -->
<svg version="1.1" id="Layer_1" xmlns="http://www.w3.org/2000/svg" xmlns:xlink="http://www.w3.org/1999/xlink" x="0px" y="0px"
	 viewBox="0 0 512 512" style="enable-background:new 0 0 512 512;" xml:space="preserve">
<style type="text/css">
	.st0{fill:#FFFFFF;}
	.st1{fill:#196FD9;}
</style>
<g id="XMLID_116_">
	<path id="XMLID_165_" d="M264.1,367.9c0-9.2-0.3-18.3,0.1-27.3c0.2-4.5-1.4-5.5-5.5-5.3c-5.7,0.3-11.3,0.1-16.9,0.1
		c1.8,3.8,4.1,7,4.8,10.6c2.8,12.8-6.4,23.6-20.4,24.6c-11,0.8-21.8-5.2-26.7-15.2c2.5-1.2,4.9-2.4,7.4-3.5
		c-0.2,0.4-0.3,0.8-0.5,1.2c4.3,2.7,8.4,6.3,13.1,8c8.1,3,16.6-1.7,18-8.9c1.7-8.5-4.3-16.2-13.3-17.1c-2.3-0.2-4.6,0-7.3,0
		c0-2.7,0-5.2,0-8.1c6.4-0.4,13-1.5,16.5-7.8c1.3-2.5,1.8-6,1.2-8.8c-1.8-8.6-8.7-10-23.6-5.3c-0.8-2.2-1.6-4.5-2.4-6.7
		c15.1-10.5,33.1-3.9,35.9,9.7c1.2,6.2,0.3,9.7-5.5,18.2c8.3,0,16.3,0,24.8,0c0-6.7,0-13.3,0-20.5c-3-0.2-6-0.3-9.2-0.5
		c0-2.9,0-5.4,0-8.4c11.7,0,23.4,0,35.4,0c0,2.6,0,5.3,0,8.5c-5.1,0-10.3,0-15.9,0c0,21.1,0,41.7,0,62.7
		C270.6,367.9,267.6,367.9,264.1,367.9z"/>
</g>
<path id="XMLID_107_" class="st0" d="M101.4,69.5c0,0,6.3-10.5,29-10.5s115,0,115,0s24.9,13.2,25.7,19.8
	c0.8,6.6,5.7,125.4-9.7,126.6c-15.4,1.2-83.9,4.4-83.9,4.4l-38.7,46.1l-11.2-52.4l-26.2,1.9c0,0-10.2,3.3-10.4-22.1
	C90.9,157.9,101.4,69.5,101.4,69.5z"/>
<g id="XMLID_130_">
	<path id="XMLID_160_" d="M334.9,281.3c0-18.5-10.4-28.9-29-28.9H190.5c-1.1,0-2.2-0.1-3.3-0.1c-6.7,0.2-13.5,0.8-17.5,2.3
		c-0.1,0-0.1,0-0.2,0.1c-8,3.8-13.1,9.7-14.9,18c-0.2,0.8-0.3,1.6-0.4,2.3c-0.1,0.6-0.2,1.3-0.2,2c0,0.2,0,0.3,0,0.5
		c-0.1,1-0.1,2-0.1,3.1c0.1,6.7,0,13.3,0,20v18.9h-0.3c0.1,5.4,0.2,9.8,0.3,12.4c0,1.5,0.1,2.4,0.1,2.4c0,15.1,0,30.2,0,45.3
		c0.1,17,10.7,27.7,27.6,27.7c20,0,40,0,59.9,0.1c2,0,4.5,1,5.9,2.4c5.9,5.5,11.5,11.4,17.3,17.1c8.4,8.4,16.7,16.8,25.3,25
		c1.3,1.2,4.2,2.1,5.5,1.5c1.6-0.8,2.8-3.2,3.5-5.1c0.6-1.4,0.2-3.2,0.2-4.8v-36.1c2.5,0,4.6-0.1,6.6,0
		c18.1,1.4,29.7-12.5,29.4-29.1C334.5,345.9,334.9,313.6,334.9,281.3z M324.4,379.7c0,11.2-6.3,17.3-17.6,17.4c-3.5,0-7.1,0-10.7,0
		c-6.3,0-7.7,1.4-7.7,7.8c0,8.8,0,17.6,0,26.3v3.4c-0.4,0.3-0.8,0.5-1.2,0.8c-6.1-6.2-12.1-12.5-18.2-18.7
		c-5.5-5.5-10.9-11.2-16.6-16.4c-1.9-1.7-5-3.1-7.6-3.1c-20.8-0.3-41.6-0.1-62.3-0.2c-12.2,0-18.1-5.9-18.2-18.2
		c0-32.9,0-65.9,0-98.8c0-11.2,6.2-17.3,17.5-17.3c41.6,0,83.1,0,124.7,0c11.6,0,17.8,6.1,17.8,17.6
		C324.5,313.5,324.5,346.6,324.4,379.7z"/>
</g>
<g id="XMLID_89_">
	<path id="XMLID_170_" d="M385.9,291.3c0,12.5,0,24.3,0,36.1c0,1.6,0.4,3.4-0.1,4.8c-0.8,1.9-1.9,4.4-3.6,5.1
		c-1.4,0.6-4.2-0.3-5.5-1.5c-8.6-8.2-16.9-16.6-25.3-25c-5.7-5.7-11.4-11.6-17.3-17.1c-1.5-1.4-3.9-2.3-5.9-2.3
		c-20-0.2-39.9-0.1-59.9-0.1c-16.9,0-27.5-10.7-27.6-27.7c0-15.1,0-30.2,0-45.3c0-1.3-0.1-2.5-0.2-4.2c-2.5,0-4.8,0-7,0
		c-16.4,0-32.8-0.1-49.2,0.1c-2.1,0-4.7,1.1-6.3,2.6c-13.2,12.9-26.3,26.1-39.3,39.2c-0.2,0.2-0.4,0.5-0.7,0.7
		c-2.2,2.1-4.2,4.8-7.9,3.3c-3.8-1.4-3.4-4.7-3.4-7.8c0-10.9,0-21.8,0-32.6c0-1.6,0-3.2,0-5.5c-3.5,0-6.7,0.1-9.8,0
		c-14.6-0.3-25.8-11-25.9-25.6c-0.2-34.6-0.2-69.1,0-103.7C91.2,69.8,102.5,59,117.3,59c42.7-0.1,85.4-0.1,128.1,0
		c15.3,0,26.3,11,26.5,26.4c0.2,14.9,0,29.9,0,44.8c0,1.8,0,3.5,0,5.8c2,0.1,3.7,0.3,5.4,0.3c38.5,0,76.9,0,115.4,0
		c18.5,0,29,10.4,29,28.9c0,32.3-0.4,64.6,0.2,96.9c0.3,16.7-11.3,30.5-29.4,29.1C390.5,291.1,388.4,291.3,385.9,291.3z
		 M374.2,319.4c0.4-0.3,0.8-0.5,1.2-0.8c0-1.1,0-2.3,0-3.4c0-8.8-0.1-17.5,0-26.3c0-6.4,1.4-7.7,7.7-7.8c3.6,0,7.1,0,10.7,0
		c11.3-0.1,17.5-6.2,17.5-17.4c0-33.1,0-66.2,0-99.3c0-11.5-6.2-17.6-17.8-17.6c-41.5,0-83.1,0-124.6,0c-11.3,0-17.5,6.1-17.5,17.3
		c0,32.9,0,65.9,0,98.8c0,12.3,5.9,18.2,18.2,18.2c20.8,0,41.5-0.1,62.3,0.1c2.6,0,5.6,1.3,7.6,3.1c5.8,5.2,11.2,10.9,16.6,16.4
		C362.1,306.9,368.1,313.1,374.2,319.4z M261.3,136.7c0-17.9,0.2-35.8-0.1-53.6c-0.1-7.8-6.9-13.5-15.1-13.5
		c-43.2-0.1-86.4-0.1-129.6,0c-8.5,0-15,6.3-15.1,14.7c-0.2,34.7-0.2,69.5,0,104.2c0,8.6,6.7,14.8,15.4,15c3.6,0.1,7.1,0,10.7,0
		c8.8,0,9.7,1,9.7,9.8c0,9.3,0,18.7,0,29c1.8-1.6,2.7-2.5,3.6-3.3c10.5-10.4,21-20.8,31.3-31.4c3-3.1,6.1-4.3,10.3-4.2
		c17.5,0.2,35.1,0.1,52.6,0.1c1.7,0,3.5,0,5.7,0c0-6.7,0-12.8,0-18.9c0-6.7,0.1-13.3,0-20C240.6,150.2,247.7,141.1,261.3,136.7z"/>
	<path id="XMLID_167_" class="st1" d="M374.2,319.4c-6.1-6.2-12.1-12.5-18.2-18.7c-5.5-5.5-10.8-11.2-16.6-16.4
		c-1.9-1.7-5-3.1-7.6-3.1c-20.8-0.2-41.5-0.1-62.3-0.1c-12.3,0-18.2-5.9-18.2-18.2c0-32.9,0-65.9,0-98.8c0-11.2,6.2-17.3,17.5-17.3
		c41.5,0,83.1,0,124.6,0c11.6,0,17.8,6.1,17.8,17.6c0,33.1,0,66.2,0,99.3c0,11.2-6.3,17.4-17.5,17.4c-3.6,0-7.1,0-10.7,0
		c-6.3,0-7.6,1.4-7.7,7.8c0,8.8,0,17.5,0,26.3c0,1.1,0,2.3,0,3.4C375,318.8,374.6,319.1,374.2,319.4z M286.3,259.6
		c12.3,2.8,14.7,1.7,18.8-8.7c1-2.4,2-4.8,2.8-7.3c0.8-2.5,2.1-3.6,4.9-3.6c12.3,0.2,24.7,0,37,0.2c1.5,0,3.6,1.7,4.4,3.1
		c2.1,4.4,3.6,9,5.5,13.5c0.5,1.3,1.5,3.2,2.4,3.3c4.6,0.3,9.1,0.2,14.1,0.2c-0.6-2-0.8-2.9-1.2-3.8c-10.6-26.3-21.2-52.6-31.8-78.9
		c-4.2-10.3-4.2-10.1-14.8-10.4c-3.7-0.1-5.4,1.3-6.7,4.6c-4.2,10.9-8.7,21.7-13,32.5C301.2,222.7,293.8,241,286.3,259.6z"/>
	<path id="XMLID_161_" class="st0" d="M286.3,259.6c7.5-18.6,14.9-36.9,22.3-55.3c4.4-10.8,8.8-21.6,13-32.5c1.3-3.3,3-4.7,6.7-4.6
		c10.7,0.2,10.7,0.1,14.8,10.4c10.6,26.3,21.2,52.6,31.8,78.9c0.4,0.9,0.6,1.8,1.2,3.8c-5,0-9.5,0.2-14.1-0.2
		c-0.9-0.1-1.9-2-2.4-3.3c-1.9-4.5-3.4-9.1-5.5-13.5c-0.7-1.5-2.8-3.1-4.4-3.1c-12.3-0.3-24.7-0.1-37-0.2c-2.8,0-4.1,1.1-4.9,3.6
		c-0.8,2.5-1.8,4.8-2.8,7.3C301,261.3,298.6,262.4,286.3,259.6z M331.2,183.3c-6,15.5-11.6,29.7-17.2,44.2c12.2,0,23.1,0,34.6,0
		C342.9,212.8,337.3,198.7,331.2,183.3z"/>
	<path id="XMLID_157_" class="st1" d="M331.2,183.3c6.1,15.5,11.6,29.6,17.4,44.2c-11.5,0-22.4,0-34.6,0
		C319.7,213,325.2,198.8,331.2,183.3z"/>
</g>
<g id="XMLID_6_">
	<path id="XMLID_192_" d="M153.5,187.4c-3.6,0-7.1,0-10.8,0c0.2-1.8,0.3-3.5,0.6-5.1c1.9-10.6,8.6-17.4,19.2-19.4
		c2.5-0.5,5.2-0.7,7.8-0.7c8.1-0.1,16.2,0,24.3-0.1c2,0,4.1-0.4,6-1c3.5-1,5.7-3.3,6.9-6.8c1.3-3.8,1.6-7.7,1.7-11.6
		c0.1-3.1,0.1-6.3,0.1-9.4c0-5.7-2.8-9.1-8.5-10.1c-1.7-0.3-3.4-0.4-5.2-0.6c-0.8-0.1-1.1,0.2-1.1,1c0,3.4,0.1,6.7-0.1,10.1
		c-0.2,3.6-0.8,7.1-2.4,10.3c-2.8,5.8-7.5,9.2-13.7,10.4c-13.7,2.8-27-5.8-30.2-19.4c-0.8-3.5-0.7-6.9,0.4-10.3
		c1.7-5.3,5.4-8.3,10.8-9.4c0.9-0.2,1.1-0.5,1.1-1.3c0-7.9,0-15.9,0-23.8c0-0.4,0-0.9,0-1.4c16.2,0,32.3,0,48.5,0c0,2.8,0,5.6,0,8.5
		c-0.4,0-0.9,0.1-1.3,0.1c-3.9,0-7.9,0-11.8,0c-1,0-1.3,0.2-1.3,1.2c0.1,4.7,0,9.4,0,14.1c0,0.4,0,0.7,0.1,1.2c1.5,0,3,0,4.4,0
		c5,0.2,9.7,1.4,13.8,4.5c4.6,3.5,7,8.4,7.2,14.1c0.3,6.8,0.3,13.7-1,20.5c-0.8,4.2-2.2,8.1-5.1,11.3c-3.4,3.7-7.7,5.4-12.5,6.1
		c-2.7,0.4-5.4,0.6-8.1,0.6c-8.4,0.1-16.8,0-25.2,0c-3.4,0-6.6,0.9-9.3,3.1c-3.2,2.6-4.4,6.1-4.9,10
		C153.7,185.1,153.6,186.2,153.5,187.4z M174.8,122.6c0,0,0,0.1,0,0.1c-3.1,0-6.3-0.1-9.4,0c-3.9,0.2-6.5,2.4-6.9,6.1
		c-0.2,1.6-0.2,3.4,0.3,5c1.4,4.9,4.6,8.5,8.9,11.2c4.4,2.7,10.4,0.9,13.1-3c1.5-2.3,2.4-4.7,2.6-7.4c0.3-3.7,0.3-7.4,0.4-11.1
		c0-0.8-0.4-0.9-1-0.9C180.1,122.6,177.5,122.6,174.8,122.6z M171.1,105.6c0,2.4,0,4.8,0,7.3c0,0.8,0.2,1,1,1c3.5,0,7-0.1,10.5,0
		c1,0,1.1-0.4,1.1-1.2c0-4.7,0-9.5,0-14.2c0-0.9-0.2-1.2-1.1-1.2c-3.5,0-7,0-10.4,0c-0.8,0-1.1,0.2-1.1,1.1
		C171.2,100.8,171.1,103.2,171.1,105.6z"/>
</g>
</svg>
