<?xml version="1.0" encoding="utf-8"?>
<!-- Generator: Adobe Illustrator 22.1.0, SVG Export Plug-In . SVG Version: 6.00 Build 0)  -->
<svg version="1.1" id="Layer_1" xmlns="http://www.w3.org/2000/svg" xmlns:xlink="http://www.w3.org/1999/xlink" x="0px" y="0px"
	 width="270px" height="250px" viewBox="0 0 270 250" enable-background="new 0 0 270 250" xml:space="preserve">
<path fill="#7A7A7A" d="M37.823,137.193v46.852c0,0.552,0.447,1,1,1s1-0.448,1-1v-46.852c0-3.08,1.047-4.171,4-4.171H63v-2H43.823
	C38.445,131.022,37.823,134.544,37.823,137.193z"/>
<path fill="#7A7A7A" d="M121.148,34.022H194c0.552,0,1,0.447,1,1s-0.448,1-1,1h-72.852c-3.08,0-4.171,1.047-4.171,4v35l-2,1.177
	V40.022C114.978,34.645,118.5,34.022,121.148,34.022z"/>
<path fill="#7A7A7A" d="M232,118.193v66.852c0,0.552-0.447,1-1,1s-1-0.448-1-1v-66.852c0-3.08-1.047-4.171-4-4.171h-42v-2h42
	C231.378,112.022,232,115.544,232,118.193z"/>
<rect id="Rectangle-5-Copy-12_10_" x="193.777" y="185.022" fill="#FFFFFF" width="73.223" height="62.023"/>
<path fill="#A0A1A2" d="M267,248.045h-73.224c-0.552,0-1-0.447-1-1v-62.022c0-0.553,0.448-1,1-1H267c0.552,0,1,0.447,1,1v62.022
	C268,247.598,267.552,248.045,267,248.045z M194.776,246.045H266v-60.022h-71.224V246.045z"/>
<rect id="Rectangle-5-Copy-12_9_" x="193.777" y="4" fill="#FFFFFF" width="73.223" height="62.023"/>
<path fill="#A0A1A2" d="M267,67.022h-73.224c-0.552,0-1-0.447-1-1V4c0-0.553,0.448-1,1-1H267c0.552,0,1,0.447,1,1v62.022
	C268,66.575,267.552,67.022,267,67.022z M194.776,65.022H266V5h-71.224V65.022z"/>
<rect id="Rectangle-5-Copy-12_8_" x="2" y="185.045" fill="#FFFFFF" width="73.223" height="62.023"/>
<path fill="#A0A1A2" d="M75.224,248.067H2c-0.552,0-1-0.447-1-1v-62.022c0-0.553,0.448-1,1-1h73.224c0.552,0,1,0.447,1,1v62.022
	C76.224,247.62,75.776,248.067,75.224,248.067z M3,246.067h71.224v-60.022H3V246.067z"/>
<path fill="#FFFFFF" d="M200.949,138.794c0-8.961-7.194-16.222-16.078-16.222c-0.669,0-1.329,0.051-1.963,0.138
	c0.98-3.643,1.524-7.476,1.524-11.436c-0.003-23.887-19.203-43.25-42.885-43.25c-18.921,0-34.965,12.355-40.66,29.509
	c-3.003-1.057-6.214-1.652-9.573-1.652C75.111,95.879,62,109.118,62,125.446c0,16.338,13.111,29.576,29.311,29.576
	c0,0,0.029-0.013,0.042-0.013v0.013h94.821l-0.016-0.08C194.431,154.289,200.949,147.319,200.949,138.794"/>
<path fill="#7A7A7A" d="M185.821,156.022H90v-0.015c-16.272-0.513-29.352-14.024-29.352-30.562
	c0-16.854,13.599-30.566,30.313-30.566c3.021,0,6.027,0.467,8.95,1.39c6.259-17.536,22.724-29.247,41.283-29.247
	c24.195,0,43.882,19.851,43.886,44.25c0,3.447-0.407,6.91-1.209,10.313c0.218-0.01,0.434-0.015,0.648-0.015
	c9.417,0,17.078,7.726,17.078,17.223c0,8.54-6.329,15.809-14.602,17.021L185.821,156.022z M92,154.022h93.223l0.504-0.077
	c7.777-0.614,13.87-7.27,13.87-15.151c0-8.394-6.764-15.223-15.078-15.223c-0.59,0-1.205,0.043-1.827,0.129l-1.493,0.204
	l0.391-1.455c0.989-3.676,1.49-7.437,1.49-11.177c-0.003-23.297-18.793-42.25-41.886-42.25c-18.028,0-33.987,11.583-39.711,28.824
	l-0.321,0.966l-0.96-0.338c-3.007-1.059-6.116-1.595-9.241-1.595c-15.612,0-28.313,12.814-28.313,28.566
	c0,15.69,12.593,28.468,28.114,28.575L92,154.01V154.022z"/>
<g id="Group-3_3_" transform="translate(161.000000, 45.000000)">
	<path fill="#A0A1A2" d="M95.667,88.022c-0.256,0-0.512-0.098-0.707-0.293l-4-4c-0.391-0.391-0.391-1.023,0-1.414l4-4
		c0.391-0.391,1.023-0.391,1.414,0l4,4c0.391,0.391,0.391,1.023,0,1.414l-4,4C96.179,87.925,95.923,88.022,95.667,88.022z
		 M93.081,83.022l2.586,2.586l2.586-2.586l-2.586-2.586L93.081,83.022z"/>
	<path fill="#A0A1A2" d="M95.667,90.022c-0.553,0-1-0.447-1-1c0-2.757-2.243-5-5-5c-0.553,0-1-0.447-1-1s0.447-1,1-1
		c3.859,0,7,3.141,7,7C96.667,89.575,96.22,90.022,95.667,90.022z"/>
	<path fill="#A0A1A2" d="M95.667,90.022c-0.553,0-1-0.447-1-1c0-3.859,3.141-7,7-7c0.553,0,1,0.447,1,1s-0.447,1-1,1
		c-2.757,0-5,2.243-5,5C96.667,89.575,96.22,90.022,95.667,90.022z"/>
	<path fill="#A0A1A2" d="M89.667,84.022c-0.553,0-1-0.447-1-1s0.447-1,1-1c2.757,0,5-2.243,5-5c0-0.553,0.447-1,1-1s1,0.447,1,1
		C96.667,80.882,93.526,84.022,89.667,84.022z"/>
	<path fill="#A0A1A2" d="M101.667,84.022c-3.859,0-7-3.141-7-7c0-0.553,0.447-1,1-1s1,0.447,1,1c0,2.757,2.243,5,5,5
		c0.553,0,1,0.447,1,1S102.22,84.022,101.667,84.022z"/>
	<path fill="#A0A1A2" d="M105,84.022h-3c-0.553,0-1-0.447-1-1s0.447-1,1-1h3c0.553,0,1,0.447,1,1S105.553,84.022,105,84.022z"/>
	<path fill="#A0A1A2" d="M90,84.022h-3c-0.553,0-1-0.447-1-1s0.447-1,1-1h3c0.553,0,1,0.447,1,1S90.553,84.022,90,84.022z"/>
	<path fill="#A0A1A2" d="M96,93.022c-0.553,0-1-0.447-1-1v-3c0-0.553,0.447-1,1-1s1,0.447,1,1v3C97,92.575,96.553,93.022,96,93.022z
		"/>
	<path fill="#A0A1A2" d="M96,78.022c-0.553,0-1-0.447-1-1v-3c0-0.553,0.447-1,1-1s1,0.447,1,1v3C97,77.575,96.553,78.022,96,78.022z
		"/>
</g>
<g id="Group-4-Copy_17_" transform="translate(298.000000, 35.000000)">
	<g>
		<polygon id="Rectangle-2_17_" fill="#7FBA00" points="-244.333,110.022 -242.333,112.022 -244.333,114.022 -246.333,112.022 		"/>
		<path fill="#7FBA00" d="M-244.333,114.729l-2.707-2.707l2.707-2.707l2.707,2.707L-244.333,114.729z M-245.626,112.022l1.293,1.293
			l1.293-1.293l-1.293-1.293L-245.626,112.022z"/>
	</g>
	<path fill="#7FBA00" d="M-244.333,116.022c-0.553,0-1-0.447-1-1c0-1.103-0.897-2-2-2c-0.553,0-1-0.447-1-1s0.447-1,1-1
		c2.206,0,4,1.794,4,4C-243.333,115.575-243.78,116.022-244.333,116.022z"/>
	<path fill="#7FBA00" d="M-244.333,116.022c-0.553,0-1-0.447-1-1c0-2.206,1.794-4,4-4c0.553,0,1,0.447,1,1s-0.447,1-1,1
		c-1.103,0-2,0.897-2,2C-243.333,115.575-243.78,116.022-244.333,116.022z"/>
	<path fill="#7FBA00" d="M-247.333,113.022c-0.553,0-1-0.447-1-1s0.447-1,1-1c1.103,0,2-0.897,2-2c0-0.553,0.447-1,1-1s1,0.447,1,1
		C-243.333,111.229-245.127,113.022-247.333,113.022z"/>
	<path fill="#7FBA00" d="M-247,113.022h-2c-0.553,0-1-0.447-1-1s0.447-1,1-1h2c0.553,0,1,0.447,1,1S-246.447,113.022-247,113.022z"
		/>
	<path fill="#7FBA00" d="M-239,113.022h-2c-0.553,0-1-0.447-1-1s0.447-1,1-1h2c0.553,0,1,0.447,1,1S-238.447,113.022-239,113.022z"
		/>
	<path fill="#7FBA00" d="M-244,118.022c-0.553,0-1-0.447-1-1v-2c0-0.553,0.447-1,1-1s1,0.447,1,1v2
		C-243,117.575-243.447,118.022-244,118.022z"/>
	<path fill="#7FBA00" d="M-244,110.022c-0.553,0-1-0.447-1-1v-2c0-0.553,0.447-1,1-1s1,0.447,1,1v2
		C-243,109.575-243.447,110.022-244,110.022z"/>
	<path fill="#7FBA00" d="M-241.333,113.022c-2.206,0-4-1.794-4-4c0-0.553,0.447-1,1-1s1,0.447,1,1c0,1.103,0.897,2,2,2
		c0.553,0,1,0.447,1,1S-240.78,113.022-241.333,113.022z"/>
</g>
<g id="Group-4-Copy_12_" transform="translate(298.000000, 35.000000)">
	<g>
		<polygon id="Rectangle-2_14_" fill="#7FBA00" points="-93.333,122.022 -91.333,124.022 -93.333,126.022 -95.333,124.022 		"/>
		<path fill="#7FBA00" d="M-93.333,126.729l-2.707-2.707l2.707-2.707l2.707,2.707L-93.333,126.729z M-94.626,124.022l1.293,1.293
			l1.293-1.293l-1.293-1.293L-94.626,124.022z"/>
	</g>
	<path fill="#7FBA00" d="M-93.333,128.022c-0.553,0-1-0.447-1-1c0-1.103-0.897-2-2-2c-0.553,0-1-0.447-1-1s0.447-1,1-1
		c2.206,0,4,1.794,4,4C-92.333,127.575-92.78,128.022-93.333,128.022z"/>
	<path fill="#7FBA00" d="M-93.333,128.022c-0.553,0-1-0.447-1-1c0-2.206,1.794-4,4-4c0.553,0,1,0.447,1,1s-0.447,1-1,1
		c-1.103,0-2,0.897-2,2C-92.333,127.575-92.78,128.022-93.333,128.022z"/>
	<path fill="#7FBA00" d="M-96.333,125.022c-0.553,0-1-0.447-1-1s0.447-1,1-1c1.103,0,2-0.897,2-2c0-0.553,0.447-1,1-1s1,0.447,1,1
		C-92.333,123.229-94.127,125.022-96.333,125.022z"/>
	<path fill="#7FBA00" d="M-96,125.022h-2c-0.553,0-1-0.447-1-1s0.447-1,1-1h2c0.553,0,1,0.447,1,1S-95.447,125.022-96,125.022z"/>
	<path fill="#7FBA00" d="M-88,125.022h-2c-0.553,0-1-0.447-1-1s0.447-1,1-1h2c0.553,0,1,0.447,1,1S-87.447,125.022-88,125.022z"/>
	<path fill="#7FBA00" d="M-93,130.022c-0.553,0-1-0.447-1-1v-2c0-0.553,0.447-1,1-1s1,0.447,1,1v2
		C-92,129.575-92.447,130.022-93,130.022z"/>
	<path fill="#7FBA00" d="M-93,122.022c-0.553,0-1-0.447-1-1v-2c0-0.553,0.447-1,1-1s1,0.447,1,1v2
		C-92,121.575-92.447,122.022-93,122.022z"/>
	<path fill="#7FBA00" d="M-90.333,125.022c-2.206,0-4-1.794-4-4c0-0.553,0.447-1,1-1s1,0.447,1,1c0,1.103,0.897,2,2,2
		c0.553,0,1,0.447,1,1S-89.78,125.022-90.333,125.022z"/>
</g>
<g id="Group-4-Copy_11_" transform="translate(298.000000, 35.000000)">
	<path fill="#A0A1A2" d="M-207.333,33.866c-0.256,0-0.512-0.098-0.707-0.293l-2-2c-0.391-0.391-0.391-1.023,0-1.414l2-2
		c0.391-0.391,1.023-0.391,1.414,0l2,2c0.391,0.391,0.391,1.023,0,1.414l-2,2C-206.821,33.769-207.077,33.866-207.333,33.866z
		 M-207.919,30.866l0.586,0.586l0.586-0.586l-0.586-0.586L-207.919,30.866z"/>
	<path fill="#A0A1A2" d="M-207.333,34.866c-0.553,0-1-0.447-1-1c0-1.103-0.897-2-2-2c-0.553,0-1-0.447-1-1s0.447-1,1-1
		c2.206,0,4,1.794,4,4C-206.333,34.419-206.78,34.866-207.333,34.866z"/>
	<path fill="#A0A1A2" d="M-207.333,34.866c-0.553,0-1-0.447-1-1c0-2.206,1.794-4,4-4c0.553,0,1,0.447,1,1s-0.447,1-1,1
		c-1.103,0-2,0.897-2,2C-206.333,34.419-206.78,34.866-207.333,34.866z"/>
	<path fill="#A0A1A2" d="M-210.333,31.866c-0.553,0-1-0.447-1-1s0.447-1,1-1c1.103,0,2-0.897,2-2c0-0.553,0.447-1,1-1s1,0.447,1,1
		C-206.333,30.072-208.127,31.866-210.333,31.866z"/>
	<path fill="#A0A1A2" d="M-210,31.866h-2c-0.553,0-1-0.447-1-1s0.447-1,1-1h2c0.553,0,1,0.447,1,1S-209.447,31.866-210,31.866z"/>
	<path fill="#A0A1A2" d="M-202,31.866h-2c-0.553,0-1-0.447-1-1s0.447-1,1-1h2c0.553,0,1,0.447,1,1S-201.447,31.866-202,31.866z"/>
	<path fill="#A0A1A2" d="M-207,36.866c-0.553,0-1-0.447-1-1v-2c0-0.553,0.447-1,1-1s1,0.447,1,1v2
		C-206,36.419-206.447,36.866-207,36.866z"/>
	<path fill="#A0A1A2" d="M-207,28.866c-0.553,0-1-0.447-1-1v-2c0-0.553,0.447-1,1-1s1,0.447,1,1v2
		C-206,28.419-206.447,28.866-207,28.866z"/>
	<path fill="#A0A1A2" d="M-204.333,31.866c-2.206,0-4-1.794-4-4c0-0.553,0.447-1,1-1s1,0.447,1,1c0,1.103,0.897,2,2,2
		c0.553,0,1,0.447,1,1S-203.78,31.866-204.333,31.866z"/>
</g>
<g id="Group-4-Copy_10_" transform="translate(298.000000, 35.000000)">
	<path fill="#A0A1A2" d="M-76.333,56.022c-0.256,0-0.512-0.098-0.707-0.293l-2-2c-0.391-0.391-0.391-1.023,0-1.414l2-2
		c0.391-0.391,1.023-0.391,1.414,0l2,2c0.391,0.391,0.391,1.023,0,1.414l-2,2C-75.821,55.925-76.077,56.022-76.333,56.022z
		 M-76.919,53.022l0.586,0.586l0.586-0.586l-0.586-0.586L-76.919,53.022z"/>
	<path fill="#A0A1A2" d="M-76.333,57.022c-0.553,0-1-0.447-1-1c0-1.103-0.897-2-2-2c-0.553,0-1-0.447-1-1s0.447-1,1-1
		c2.206,0,4,1.794,4,4C-75.333,56.575-75.78,57.022-76.333,57.022z"/>
	<path fill="#A0A1A2" d="M-76.333,57.022c-0.553,0-1-0.447-1-1c0-2.206,1.794-4,4-4c0.553,0,1,0.447,1,1s-0.447,1-1,1
		c-1.103,0-2,0.897-2,2C-75.333,56.575-75.78,57.022-76.333,57.022z"/>
	<path fill="#A0A1A2" d="M-79.333,54.022c-0.553,0-1-0.447-1-1s0.447-1,1-1c1.103,0,2-0.897,2-2c0-0.553,0.447-1,1-1s1,0.447,1,1
		C-75.333,52.229-77.127,54.022-79.333,54.022z"/>
	<path fill="#A0A1A2" d="M-79,54.022h-2c-0.553,0-1-0.447-1-1s0.447-1,1-1h2c0.553,0,1,0.447,1,1S-78.447,54.022-79,54.022z"/>
	<path fill="#A0A1A2" d="M-71,54.022h-2c-0.553,0-1-0.447-1-1s0.447-1,1-1h2c0.553,0,1,0.447,1,1S-70.447,54.022-71,54.022z"/>
	<path fill="#A0A1A2" d="M-76,59.022c-0.553,0-1-0.447-1-1v-2c0-0.553,0.447-1,1-1s1,0.447,1,1v2
		C-75,58.575-75.447,59.022-76,59.022z"/>
	<path fill="#A0A1A2" d="M-76,51.022c-0.553,0-1-0.447-1-1v-2c0-0.553,0.447-1,1-1s1,0.447,1,1v2
		C-75,50.575-75.447,51.022-76,51.022z"/>
	<path fill="#A0A1A2" d="M-73.333,54.022c-2.206,0-4-1.794-4-4c0-0.553,0.447-1,1-1s1,0.447,1,1c0,1.103,0.897,2,2,2
		c0.553,0,1,0.447,1,1S-72.78,54.022-73.333,54.022z"/>
</g>
<circle id="Oval-9-Copy_26_" fill="#A0A1A2" cx="64.667" cy="164.866" r="2"/>
<circle id="Oval-9-Copy_25_" fill="#A0A1A2" cx="153.667" cy="172.866" r="2"/>
<circle id="Oval-9-Copy_18_" fill="#A0A1A2" cx="216" cy="125" r="2"/>
<circle id="Oval-9-Copy_17_" fill="#A0A1A2" cx="146.667" cy="55.866" r="2"/>
<circle id="Oval-9-Copy_16_" fill="#A0A1A2" cx="42.667" cy="71.866" r="2"/>
<path id="Oval-9-Copy_15_" fill="#7FBA00" d="M203,104.022c1.105,0,2-0.895,2-2s-0.895-2-2-2s-2,0.895-2,2
	S201.895,104.022,203,104.022z"/>
<path id="Oval-9-Copy_8_" fill="#7FBA00" d="M96.667,181.866c1.105,0,2-0.895,2-2s-0.895-2-2-2s-2,0.895-2,2
	S95.562,181.866,96.667,181.866z"/>
<g id="Group-2_3_" transform="translate(459.000000, 139.000000)">
	<g>
		<polygon id="Rectangle-2_13_" fill="#7FBA00" points="-417.333,-41.705 -412.762,-37.134 -417.333,-32.562 -421.905,-37.134 		"/>
		<path fill="#7FBA00" d="M-417.333-31.855l-5.278-5.278l5.278-5.278l5.278,5.278L-417.333-31.855z M-421.197-37.134l3.864,3.864
			l3.864-3.864l-3.864-3.864L-421.197-37.134z"/>
	</g>
	<path fill="#7FBA00" d="M-417.333-29.276c-0.553,0-1-0.447-1-1c0-3.229-2.628-5.857-5.857-5.857c-0.553,0-1-0.447-1-1s0.447-1,1-1
		c4.333,0,7.857,3.524,7.857,7.857C-416.333-29.724-416.78-29.276-417.333-29.276z"/>
	<path fill="#7FBA00" d="M-417.333-29.276c-0.553,0-1-0.447-1-1c0-4.333,3.524-7.857,7.856-7.857c0.553,0,1,0.447,1,1s-0.447,1-1,1
		c-3.229,0-5.856,2.628-5.856,5.857C-416.333-29.724-416.78-29.276-417.333-29.276z"/>
	<path fill="#7FBA00" d="M-424.19-36.134c-0.553,0-1-0.447-1-1s0.447-1,1-1c3.229,0,5.857-2.628,5.857-5.857c0-0.553,0.447-1,1-1
		s1,0.447,1,1C-416.333-39.658-419.857-36.134-424.19-36.134z"/>
	<path fill="#7FBA00" d="M-410.477-36.134c-4.332,0-7.856-3.524-7.856-7.857c0-0.553,0.447-1,1-1s1,0.447,1,1
		c0,3.229,2.627,5.857,5.856,5.857c0.553,0,1,0.447,1,1S-409.924-36.134-410.477-36.134z"/>
	<path fill="#7FBA00" d="M-409-36.134h-1c-0.553,0-1-0.447-1-1s0.447-1,1-1h1c0.553,0,1,0.447,1,1S-408.447-36.134-409-36.134z"/>
	<path fill="#7FBA00" d="M-424-36.134h-1c-0.553,0-1-0.447-1-1s0.447-1,1-1h1c0.553,0,1,0.447,1,1S-423.447-36.134-424-36.134z"/>
	<path fill="#7FBA00" d="M-417-28.134c-0.553,0-1-0.447-1-1v-1c0-0.553,0.447-1,1-1s1,0.447,1,1v1
		C-416-28.581-416.447-28.134-417-28.134z"/>
	<path fill="#7FBA00" d="M-417-43.134c-0.553,0-1-0.447-1-1v-1c0-0.553,0.447-1,1-1s1,0.447,1,1v1
		C-416-43.581-416.447-43.134-417-43.134z"/>
</g>
<g id="Group-4-Copy_9_" transform="translate(298.000000, 35.000000)">
	<g>
		<polygon id="Rectangle-2_26_" fill="#7FBA00" points="-107.333,41.022 -105.333,43.022 -107.333,45.022 -109.333,43.022 		"/>
		<path fill="#7FBA00" d="M-107.333,45.729l-2.707-2.707l2.707-2.707l2.707,2.707L-107.333,45.729z M-108.626,43.022l1.293,1.293
			l1.293-1.293l-1.293-1.293L-108.626,43.022z"/>
	</g>
	<path fill="#7FBA00" d="M-107.333,47.022c-0.553,0-1-0.447-1-1c0-1.103-0.897-2-2-2c-0.553,0-1-0.447-1-1s0.447-1,1-1
		c2.206,0,4,1.794,4,4C-106.333,46.575-106.78,47.022-107.333,47.022z"/>
	<path fill="#7FBA00" d="M-107.333,47.022c-0.553,0-1-0.447-1-1c0-2.206,1.794-4,4-4c0.553,0,1,0.447,1,1s-0.447,1-1,1
		c-1.103,0-2,0.897-2,2C-106.333,46.575-106.78,47.022-107.333,47.022z"/>
	<path fill="#7FBA00" d="M-110.333,44.022c-0.553,0-1-0.447-1-1s0.447-1,1-1c1.103,0,2-0.897,2-2c0-0.553,0.447-1,1-1s1,0.447,1,1
		C-106.333,42.229-108.127,44.022-110.333,44.022z"/>
	<path fill="#7FBA00" d="M-110,44.022h-2c-0.553,0-1-0.447-1-1s0.447-1,1-1h2c0.553,0,1,0.447,1,1S-109.447,44.022-110,44.022z"/>
	<path fill="#7FBA00" d="M-102,44.022h-2c-0.553,0-1-0.447-1-1s0.447-1,1-1h2c0.553,0,1,0.447,1,1S-101.447,44.022-102,44.022z"/>
	<path fill="#7FBA00" d="M-107,49.022c-0.553,0-1-0.447-1-1v-2c0-0.553,0.447-1,1-1s1,0.447,1,1v2
		C-106,48.575-106.447,49.022-107,49.022z"/>
	<path fill="#7FBA00" d="M-107,41.022c-0.553,0-1-0.447-1-1v-2c0-0.553,0.447-1,1-1s1,0.447,1,1v2
		C-106,40.575-106.447,41.022-107,41.022z"/>
	<path fill="#7FBA00" d="M-104.333,44.022c-2.206,0-4-1.794-4-4c0-0.553,0.447-1,1-1s1,0.447,1,1c0,1.103,0.897,2,2,2
		c0.553,0,1,0.447,1,1S-103.78,44.022-104.333,44.022z"/>
</g>
<g>
	<path fill="#A0A1A2" d="M82.99,115.952v1.907h-0.914v-1.837c-1.248,0-2.262-0.252-3.041-0.756v-1.529
		c0.34,0.299,0.805,0.549,1.393,0.752c0.59,0.201,1.139,0.303,1.648,0.303v-4.5c-1.289-0.621-2.124-1.193-2.505-1.719
		C79.19,108.05,79,107.43,79,106.715c0-0.85,0.29-1.583,0.87-2.202c0.58-0.617,1.315-0.988,2.206-1.111v-1.582h0.914v1.547
		c1.148,0.035,1.942,0.199,2.382,0.492v1.494c-0.598-0.469-1.392-0.721-2.382-0.756v4.641c1.219,0.58,2.053,1.142,2.5,1.684
		c0.449,0.542,0.673,1.158,0.673,1.85c0,0.832-0.28,1.531-0.839,2.096C84.764,115.433,83.986,115.794,82.99,115.952z
		 M82.076,108.745v-4.096c-0.492,0.1-0.882,0.318-1.169,0.654c-0.287,0.338-0.431,0.746-0.431,1.227
		c0,0.504,0.117,0.917,0.352,1.239S81.479,108.417,82.076,108.745z M82.99,110.749v3.973c1.131-0.246,1.696-0.855,1.696-1.828
		C84.687,112.085,84.121,111.37,82.99,110.749z"/>
</g>
<g>
	<path fill="#A0A1A2" d="M173.563,116.952v1.907h-0.914v-1.837c-1.248,0-2.262-0.252-3.041-0.756v-1.529
		c0.34,0.299,0.805,0.549,1.393,0.752c0.59,0.201,1.139,0.303,1.648,0.303v-4.5c-1.289-0.621-2.124-1.193-2.505-1.719
		c-0.381-0.523-0.571-1.144-0.571-1.858c0-0.85,0.29-1.583,0.87-2.202c0.58-0.617,1.315-0.988,2.206-1.111v-1.582h0.914v1.547
		c1.148,0.035,1.942,0.199,2.382,0.492v1.494c-0.598-0.469-1.392-0.721-2.382-0.756v4.641c1.219,0.58,2.053,1.142,2.5,1.684
		c0.449,0.542,0.673,1.158,0.673,1.85c0,0.832-0.28,1.531-0.839,2.096C175.336,116.433,174.559,116.794,173.563,116.952z
		 M172.648,109.745v-4.096c-0.492,0.1-0.882,0.318-1.169,0.654c-0.287,0.338-0.431,0.746-0.431,1.227
		c0,0.504,0.117,0.917,0.352,1.239S172.051,109.417,172.648,109.745z M173.563,111.749v3.973c1.131-0.246,1.696-0.855,1.696-1.828
		C175.259,113.085,174.693,112.37,173.563,111.749z"/>
</g>
<g>
	<path fill="#A0A1A2" d="M136.99,148.155v1.907h-0.914v-1.837c-1.248,0-2.262-0.252-3.041-0.756v-1.529
		c0.34,0.299,0.805,0.549,1.393,0.752c0.59,0.201,1.139,0.303,1.648,0.303v-4.5c-1.289-0.621-2.124-1.193-2.505-1.719
		c-0.381-0.523-0.571-1.144-0.571-1.858c0-0.85,0.29-1.583,0.87-2.202c0.58-0.617,1.315-0.988,2.206-1.111v-1.582h0.914v1.547
		c1.148,0.035,1.942,0.199,2.382,0.492v1.494c-0.598-0.469-1.392-0.721-2.382-0.756v4.641c1.219,0.58,2.053,1.142,2.5,1.684
		c0.449,0.542,0.673,1.158,0.673,1.85c0,0.832-0.28,1.531-0.839,2.096C138.764,147.636,137.986,147.997,136.99,148.155z
		 M136.076,140.948v-4.096c-0.492,0.1-0.882,0.318-1.169,0.654c-0.287,0.338-0.431,0.746-0.431,1.227
		c0,0.504,0.117,0.917,0.352,1.239S135.479,140.62,136.076,140.948z M136.99,142.952v3.973c1.131-0.246,1.696-0.855,1.696-1.828
		C138.687,144.288,138.121,143.573,136.99,142.952z"/>
</g>
<g>
	<path fill="#A0A1A2" d="M117,86.896h4.263c-0.047-0.246-0.125-0.47-0.232-0.673c-0.109-0.201-0.262-0.374-0.457-0.518
		c-0.197-0.144-0.439-0.256-0.73-0.334c-0.289-0.08-0.634-0.119-1.032-0.119H117v-1.23h7.937v1.23h-2.883
		c0.17,0.217,0.309,0.461,0.418,0.734c0.107,0.271,0.18,0.575,0.215,0.909h2.25v1.23h-2.294c-0.123,0.703-0.412,1.303-0.866,1.798
		s-1.029,0.836-1.727,1.023v0.035c0.199,0.094,0.381,0.202,0.545,0.325s0.322,0.266,0.475,0.427s0.303,0.347,0.453,0.558
		c0.148,0.211,0.309,0.451,0.479,0.721l2.241,3.612h-1.67l-2.004-3.357c-0.193-0.322-0.377-0.606-0.55-0.853
		s-0.357-0.451-0.553-0.615c-0.197-0.164-0.414-0.287-0.65-0.369c-0.238-0.082-0.515-0.123-0.831-0.123H117v-1.204h1.802
		c0.299,0,0.583-0.049,0.853-0.145c0.27-0.098,0.511-0.231,0.726-0.404c0.213-0.173,0.395-0.381,0.545-0.625
		c0.148-0.242,0.256-0.511,0.32-0.804H117V86.896z"/>
</g>
<g>
	<path fill="#A0A1A2" d="M149.01,109.107h4.263c-0.047-0.246-0.125-0.47-0.232-0.673c-0.109-0.201-0.262-0.374-0.457-0.518
		c-0.197-0.144-0.439-0.256-0.73-0.334c-0.289-0.08-0.634-0.119-1.032-0.119h-1.811v-1.23h7.937v1.23h-2.883
		c0.17,0.217,0.309,0.461,0.418,0.734c0.107,0.271,0.18,0.575,0.215,0.909h2.25v1.23h-2.294c-0.123,0.703-0.412,1.303-0.866,1.798
		s-1.029,0.836-1.727,1.023v0.035c0.199,0.094,0.381,0.202,0.545,0.325s0.322,0.266,0.475,0.427s0.303,0.347,0.453,0.558
		c0.148,0.211,0.309,0.451,0.479,0.721l2.241,3.612h-1.67l-2.004-3.357c-0.193-0.322-0.377-0.606-0.55-0.853
		s-0.357-0.451-0.553-0.615c-0.197-0.164-0.414-0.287-0.65-0.369c-0.238-0.082-0.515-0.123-0.831-0.123h-0.984v-1.204h1.802
		c0.299,0,0.583-0.049,0.853-0.145c0.27-0.098,0.511-0.231,0.726-0.404c0.213-0.173,0.395-0.381,0.545-0.625
		c0.148-0.242,0.256-0.511,0.32-0.804h-4.245V109.107z"/>
</g>
<g>
	<path fill="#A0A1A2" d="M72.3,128.293h4.263c-0.047-0.246-0.125-0.47-0.232-0.673c-0.109-0.201-0.262-0.374-0.457-0.518
		c-0.197-0.144-0.439-0.256-0.73-0.334c-0.289-0.08-0.634-0.119-1.032-0.119H72.3v-1.23h7.937v1.23h-2.883
		c0.17,0.217,0.309,0.461,0.418,0.734c0.107,0.271,0.18,0.575,0.215,0.909h2.25v1.23h-2.294c-0.123,0.703-0.412,1.303-0.866,1.798
		s-1.029,0.836-1.727,1.023v0.035c0.199,0.094,0.381,0.202,0.545,0.325s0.322,0.266,0.475,0.427s0.303,0.347,0.453,0.558
		c0.148,0.211,0.309,0.451,0.479,0.721l2.241,3.612h-1.67l-2.004-3.357c-0.193-0.322-0.377-0.606-0.55-0.853
		s-0.357-0.451-0.553-0.615c-0.197-0.164-0.414-0.287-0.65-0.369c-0.238-0.082-0.515-0.123-0.831-0.123H72.3v-1.204h1.802
		c0.299,0,0.583-0.049,0.853-0.145c0.27-0.098,0.511-0.231,0.726-0.404c0.213-0.173,0.395-0.381,0.545-0.625
		c0.148-0.242,0.256-0.511,0.32-0.804H72.3V128.293z"/>
</g>
<g>
	<path fill="#A0A1A2" d="M102.061,144.397c-0.779,0.434-1.605,0.65-2.479,0.65c-2.502,0-3.993-1.482-4.474-4.447h-1.063v-1.23h0.949
		c-0.023-0.182-0.035-0.407-0.035-0.677c0-0.281,0.018-0.598,0.053-0.949h-0.967v-1.23h1.151c0.299-1.406,0.862-2.506,1.692-3.3
		c0.828-0.794,1.835-1.191,3.019-1.191c0.803,0,1.521,0.164,2.153,0.492v1.424c-0.668-0.457-1.418-0.686-2.25-0.686
		c-0.732,0-1.385,0.295-1.955,0.883c-0.572,0.59-0.972,1.382-1.2,2.378h4.368v1.23h-4.562c-0.047,0.58-0.05,1.122-0.009,1.626h4.57
		v1.23h-4.43c0.422,2.145,1.447,3.217,3.076,3.217c0.768,0,1.564-0.255,2.391-0.765V144.397z"/>
</g>
<g>
	<path fill="#A0A1A2" d="M135.419,116.372c-0.779,0.434-1.605,0.65-2.479,0.65c-2.502,0-3.993-1.482-4.474-4.447h-1.063v-1.23h0.949
		c-0.023-0.182-0.035-0.407-0.035-0.677c0-0.281,0.018-0.598,0.053-0.949h-0.967v-1.23h1.151c0.299-1.406,0.862-2.506,1.692-3.3
		c0.828-0.794,1.835-1.191,3.019-1.191c0.803,0,1.521,0.164,2.153,0.492v1.424c-0.668-0.457-1.418-0.686-2.25-0.686
		c-0.732,0-1.385,0.295-1.955,0.883c-0.572,0.59-0.972,1.382-1.2,2.378h4.368v1.23h-4.562c-0.047,0.58-0.05,1.122-0.009,1.626h4.57
		v1.23h-4.43c0.422,2.145,1.447,3.217,3.076,3.217c0.768,0,1.564-0.255,2.391-0.765V116.372z"/>
</g>
<g>
	<path fill="#A0A1A2" d="M162.016,139.372c-0.779,0.434-1.605,0.65-2.479,0.65c-2.502,0-3.993-1.482-4.474-4.447H154v-1.23h0.949
		c-0.023-0.182-0.035-0.407-0.035-0.677c0-0.281,0.018-0.598,0.053-0.949H154v-1.23h1.151c0.299-1.406,0.862-2.506,1.692-3.3
		c0.828-0.794,1.835-1.191,3.019-1.191c0.803,0,1.521,0.164,2.153,0.492v1.424c-0.668-0.457-1.418-0.686-2.25-0.686
		c-0.732,0-1.385,0.295-1.955,0.883c-0.572,0.59-0.972,1.382-1.2,2.378h4.368v1.23h-4.562c-0.047,0.58-0.05,1.122-0.009,1.626h4.57
		v1.23h-4.43c0.422,2.145,1.447,3.217,3.076,3.217c0.768,0,1.564-0.255,2.391-0.765V139.372z"/>
</g>
<g>
	<path fill="#A0A1A2" d="M107.21,119.837H99.3v-1.187c1.277-0.404,1.916-1.321,1.916-2.751v-1.644h-1.731v-1.239h1.731v-2.232
		c0-1.102,0.319-2.004,0.958-2.707s1.465-1.055,2.479-1.055c0.686,0,1.31,0.12,1.872,0.36v1.362
		c-0.586-0.334-1.204-0.501-1.854-0.501c-1.342,0-2.013,0.899-2.013,2.698v2.074h2.602v1.239h-2.602v1.371
		c0,1.418-0.565,2.411-1.696,2.979h6.249V119.837z"/>
</g>
<g>
	<path fill="#A0A1A2" d="M167,96.837h-7.91V95.65c1.277-0.404,1.916-1.321,1.916-2.751v-1.644h-1.731v-1.239h1.731v-2.232
		c0-1.102,0.319-2.004,0.958-2.707s1.465-1.055,2.479-1.055c0.686,0,1.31,0.12,1.872,0.36v1.362
		c-0.586-0.334-1.204-0.501-1.854-0.501c-1.342,0-2.013,0.899-2.013,2.698v2.074h2.602v1.239h-2.602v1.371
		c0,1.418-0.565,2.411-1.696,2.979H167V96.837z"/>
</g>
<g>
	<path fill="#A0A1A2" d="M182.91,145.837H175v-1.187c1.277-0.404,1.916-1.321,1.916-2.751v-1.644h-1.731v-1.239h1.731v-2.232
		c0-1.102,0.319-2.004,0.958-2.707s1.465-1.055,2.479-1.055c0.686,0,1.31,0.12,1.872,0.36v1.362
		c-0.586-0.334-1.204-0.501-1.854-0.501c-1.342,0-2.013,0.899-2.013,2.698v2.074h2.602v1.239h-2.602v1.371
		c0,1.418-0.565,2.411-1.696,2.979h6.249V145.837z"/>
</g>
<g>
	<path fill="#A0A1A2" d="M148.307,74.419l-3.129,5.766h2.505v1.222h-2.936v1.819h2.936v1.222h-2.936v2.575h-1.441v-2.575h-3.023
		v-1.222h3.023v-1.819h-3.023v-1.222h2.558l-3.094-5.766h1.688l2.197,4.518c0.164,0.34,0.302,0.665,0.413,0.976h0.035
		c0.076-0.246,0.22-0.589,0.431-1.028l2.215-4.465H148.307z"/>
</g>
<g>
	<path fill="#A0A1A2" d="M124.307,122.419l-3.129,5.766h2.505v1.222h-2.936v1.819h2.936v1.222h-2.936v2.575h-1.441v-2.575h-3.023
		v-1.222h3.023v-1.819h-3.023v-1.222h2.558l-3.094-5.766h1.688l2.197,4.518c0.164,0.34,0.302,0.665,0.413,0.976h0.035
		c0.076-0.246,0.22-0.589,0.431-1.028l2.215-4.465H124.307z"/>
</g>
<path fill="#59B4D9" d="M61,217.067c0-3.3-2.7-5.8-5.8-5.8c-0.3,0-0.5,0-0.8,0c0.3-1.3,0.6-2.7,0.6-4.1c0-8.6-6.9-15.5-15.5-15.5
	c-6.7,0-12.5,4.4-14.5,10.7c-1.1-0.3-2.2-0.6-3.4-0.6c-5.9-0.1-10.6,4.6-10.6,10.6s4.7,10.7,10.5,10.7l0,0l0,0H55l0,0
	C57.9,222.667,61,220.167,61,217.067"/>
<path opacity="0.2" fill="#FFFFFF" enable-background="new    " d="M27,222.967c-1.4-1.4-2.4-3.1-2.8-5.2c-1.3-5.8,2.2-11.4,8-12.7
	c1.3-0.3,2.4-0.3,3.4-0.2c0.5-5.2,3.8-10.1,8.6-12.4c-1.4-0.5-3-0.8-4.7-0.8c-6.7,0-12.5,4.4-14.5,10.7c-1.1-0.3-2.2-0.6-3.4-0.6
	c-5.9-0.1-10.6,4.6-10.6,10.6s4.7,10.7,10.5,10.7l0,0l0,0H27V222.967z"/>
<path fill="#BA141A" d="M47.5,223.667c-1.6,1.4-3.7,2.3-6,2.3s-4.4-0.9-6-2.3l-0.9,18l6.8-6.9l6.8,6.9L47.5,223.667z"/>
<circle fill="#59B4D9" cx="55" cy="214.617" r="8.45"/>
<circle fill="#DD5900" cx="41.6" cy="217.367" r="11.6"/>
<circle fill="#FF8C00" cx="41.6" cy="217.367" r="8.8"/>
<path opacity="0.15" fill="#FFFFFF" enable-background="new    " d="M33.3,225.667c-4.5-4.5-4.5-11.9,0-16.4s11.9-4.5,16.4,0
	L33.3,225.667z"/>
<g>
	<path fill="#FFFFFF" d="M229.83,194.371c-5.706,0.602-10.609,3.448-13.953,7.579c-3.345,4.134-5.106,9.52-4.508,15.227
		c0.604,5.703,3.449,10.604,7.581,13.949c4.134,3.346,9.52,5.109,15.222,4.509c5.705-0.601,10.606-3.451,13.955-7.581
		c3.34-4.132,5.106-9.519,4.505-15.225c-0.608-5.751-3.528-10.669-7.724-14.064c-3.531-2.859-8.032-4.51-12.856-4.51
		C231.319,194.255,230.578,194.293,229.83,194.371"/>
	<path opacity="0.4" fill="#7FBA00" enable-background="new    " d="M223.456,209.473l-5.048-4.086
		c-2.158,3.088-3.137,6.688-2.991,10.232l6.454-0.679C221.871,213.05,222.392,211.152,223.456,209.473"/>
	<path opacity="0.8" fill="#7FBA00" enable-background="new    " d="M237.575,206.28l4.087-5.049
		c-3.09-2.156-6.693-3.13-10.238-2.982l0.679,6.453C233.994,204.7,235.894,205.218,237.575,206.28"/>
	<path opacity="0.6" fill="#7FBA00" enable-background="new    " d="M229.853,204.957l-0.68-6.46
		c-3.49,0.623-6.795,2.35-9.348,5.123l5.044,4.084C226.274,206.295,228.012,205.372,229.853,204.957"/>
	<path opacity="0.25" fill="#7FBA00" enable-background="new    " d="M222.121,217.19l-6.46,0.682
		c0.62,3.492,2.345,6.801,5.121,9.357l4.083-5.044C223.455,220.776,222.534,219.035,222.121,217.19"/>
	<path fill="#A0A1A2" d="M256.859,212.384c-0.728-6.937-4.271-12.883-9.273-16.928c-0.971-0.786-2.018-1.472-3.1-2.1l-1.963,3.777
		c0.83,0.493,1.636,1.024,2.385,1.632c4.196,3.395,7.116,8.312,7.723,14.063c0.602,5.706-1.165,11.093-4.504,15.226
		c-3.349,4.131-8.25,6.98-13.955,7.581c-3.82,0.4-7.489-0.277-10.744-1.761l-1.961,3.774c3.976,1.851,8.479,2.708,13.151,2.214
		c6.862-0.719,12.796-4.164,16.814-9.133C255.453,225.766,257.587,219.242,256.859,212.384"/>
	<path fill="#A0A1A2" d="M218.951,231.126c-4.133-3.345-6.978-8.246-7.581-13.948c-0.599-5.708,1.162-11.094,4.508-15.228
		c3.343-4.13,8.246-6.977,13.951-7.578c4.613-0.484,9.016,0.574,12.694,2.76l1.963-3.776c-4.416-2.564-9.661-3.787-15.105-3.214
		c-6.859,0.722-12.793,4.166-16.812,9.131l-0.007,0.009c-4.018,4.965-6.144,11.484-5.423,18.338
		c0.723,6.859,4.164,12.796,9.135,16.815c1.582,1.282,3.335,2.346,5.194,3.212l1.961-3.774
		C221.826,233.143,220.315,232.23,218.951,231.126"/>
	<path opacity="0.2" fill="#FFFFFF" enable-background="new    " d="M218.951,231.126c-4.133-3.345-6.978-8.246-7.581-13.948
		c-0.599-5.708,1.162-11.094,4.508-15.228c3.343-4.13,8.246-6.977,13.951-7.578c4.613-0.484,9.016,0.574,12.694,2.76l1.963-3.776
		c-4.416-2.564-9.661-3.787-15.105-3.214c-6.859,0.722-12.793,4.166-16.812,9.131l-0.007,0.009
		c-4.018,4.965-6.144,11.484-5.423,18.338c0.723,6.859,4.164,12.796,9.135,16.815c1.582,1.282,3.335,2.346,5.194,3.212l1.961-3.774
		C221.826,233.143,220.315,232.23,218.951,231.126"/>
	<path fill="#7FBA00" d="M243.43,202.648l-4.084,5.045c1.008,1.002,1.759,2.178,2.264,3.437h6.775
		C247.643,207.959,245.977,204.986,243.43,202.648z"/>
	<path fill="#DD5900" d="M230.082,217.042c-1.147-1.136-1.154-2.986-0.018-4.131c0.573-0.578,1.327-0.866,2.079-0.866
		c0.743,0,1.487,0.248,2.057,0.813c0.007,0.007,0.01-0.008,0.019,0h7.601h6.685l0.621-0.005l0.004,0.005
		c1.173,0,2.125,0.943,2.133,2.113c0.003,1.178-0.944,2.133-2.121,2.137h-15.085c-0.55,0.481-1.235,0.779-1.923,0.779
		C231.394,217.887,230.652,217.607,230.082,217.042"/>
	<path fill="#FF8C00" d="M249.13,212.876l-0.004-0.005l-0.621,0.005h-6.685h-7.601c-0.009-0.008-0.012,0.007-0.019,0
		c-0.57-0.565-1.314-0.813-2.057-0.813c-0.752,0-1.506,0.288-2.079,0.866c-0.564,0.569-0.845,1.312-0.846,2.055h22.044
		C251.251,213.816,250.301,212.876,249.13,212.876z"/>
</g>
<polygon fill="#7FBA00" points="250,50 231,61 212,50 212,11 250,11 "/>
<circle opacity="0.9" fill="#FFFFFF" cx="231" cy="18" r="2.463"/>
<circle opacity="0.9" fill="#FFFFFF" cx="231" cy="48" r="2.463"/>
<path opacity="0.9" fill="#FFFFFF" d="M239.393,37.794c0,3.603-3.574,6.219-8.498,6.219c-4.33,0-7.044-1.631-8.289-4.986
	l4.227-0.796c0.547,1.181,1.755,2.53,4.415,2.53c2.661,0,3.653-1.598,3.653-2.605c0-2.095-2.527-2.821-3.613-3.036
	c-4.614-0.915-7.88-1.971-7.88-7.254c0-4.338,4.033-5.877,7.487-5.877c3.778,0,6.235,1.249,7.506,3.817l-3.652,1.159
	c-0.766-1.306-2.073-1.996-3.79-1.996c-2.505,0-3.167,1.727-3.167,2.64c0,1.258,1.254,2.36,3.195,2.811
	c2.434,0.564,4.143,0.998,5.14,1.418C237.706,32.502,239.393,34.415,239.393,37.794"/>
<rect x="40.406" y="100.396" transform="matrix(0.7071 -0.7071 0.7071 0.7071 -59.6683 59.2138)" fill="#FFFFFF" width="2.475" height="2.475"/>
</svg>
