<?xml version="1.0" encoding="utf-8"?>
<!-- Generator: Adobe Illustrator 19.0.0, SVG Export Plug-In . SVG Version: 6.00 Build 0)  -->
<svg version="1.1" id="Layer_1" xmlns="http://www.w3.org/2000/svg" xmlns:xlink="http://www.w3.org/1999/xlink" x="0px" y="0px"
	 viewBox="0 0 512 512" style="enable-background:new 0 0 512 512;" xml:space="preserve">
<style type="text/css">
	.st0{fill:#58595B;}
	.st1{fill:#196FD9;}
</style>
<g id="XMLID_25_">
	<path id="XMLID_92_" class="st0" d="M444.6,172.1c0.1-5.3-1.8-8.5-6.5-11c-58.7-31.1-117.3-62.2-175.9-93.5
		c-4.3-2.3-7.9-2.3-12.2,0c-18.6,9.9-37.2,19.8-55.8,29.8l-65.8,34.9c-17.3,9.2-34.6,18.4-52,27.5c-6.5,3.4-8.9,7.3-8.9,14.6
		c0.3,55.3,0.2,110.5,0.1,165.7c0,5.1,1.8,8.3,6.3,10.7c59,31.2,118,62.6,176.9,94c3.6,1.9,6.8,1.9,10.5,0
		c59-31.5,118.2-62.9,177.3-94.2c4.1-2.2,6-5.1,5.9-9.8c-0.1-28.3-0.1-56.6-0.1-85C444.5,227.9,444.4,200,444.6,172.1z M235.2,94
		c6.1-3.3,12.1-6.6,18.4-9.6c1.4-0.7,3.7-0.8,5.1-0.1c47.8,25.2,95.4,50.6,143.1,75.9c6.2,3.3,12.4,6.6,19,10.1
		c-1.5,0.9-2.6,1.5-3.7,2.1c-13.4,7.1-26.9,14.3-40.3,21.5c-1.8,1-3.3,1.3-5.1,0.5l-0.1-0.1c-0.2-0.1-0.5-0.2-0.7-0.4
		c-52.5-28.3-105-56.5-157.5-84.6c-1-0.5-1.9-1.2-3.3-2c0.4-0.2,0.8-0.4,1.2-0.7C219.5,102.3,227.3,98.2,235.2,94z M178.8,124
		c4.6-2.4,9.3-6.6,14-6.6c4.5,0,9.1,4.3,13.6,6.7c51.7,27.8,103.4,55.6,155.2,83.3c3,1.6,4.1,3.3,4,6.8c-0.2,15.4-0.2,30.7,0,46.1
		c0,2.6-0.8,3.9-3.1,5c-7.8,3.7-15.4,7.6-23.1,11.4c-1,0.5-2,0.9-3.7,1.6v-4.6c0-13.8-0.2-27.7,0.1-41.5c0.1-5.4-1.9-8.8-6.7-11.3
		c-54.3-28.4-108.5-56.9-162.8-85.5c-1.2-0.6-2.4-1.3-4.1-2.4C168.1,129.8,173.4,126.9,178.8,124z M247.9,419.3v5.4
		c-11.6-6.2-22.5-11.9-33.3-17.7c-42.6-22.6-85.2-45.3-127.8-67.8c-2-1-3.1-2.1-3.1-4.6c0.1-48.8,0.1-97.6,0.1-146.3
		c0-0.9,0.1-1.7,0.2-3c4.9,2.5,9.4,4.9,13.9,7.2c48.7,25.9,97.4,51.7,146.1,77.6c2.8,1.5,4,3.1,3.9,6.4
		C247.9,324,247.9,371.6,247.9,419.3z M259.1,256.4c-1.5,0.8-4,0.9-5.5,0.2c-53.3-28.1-106.4-56.4-159.6-84.7
		c-0.6-0.4-1.3-0.8-2.4-1.6c17.4-9.2,34.3-18.3,51.3-27.1c1.2-0.6,3.4,0,4.8,0.7c35.7,18.7,71.3,37.5,106.9,56.2
		c12.8,6.7,25.5,13.5,38.3,20.1c2.6,1.4,4.9,2.6,7,3.7c2.1,1.1,4.3,2.2,6.3,3.3c1,0.6,1.9,1.1,3.1,1.8c0.2,0.1,0.4,0.2,0.5,0.3
		c-1.3,0.8-2.3,1.4-3.3,1.9C290.8,239.6,275,248.1,259.1,256.4z M424.7,339.6c-51.9,27.4-103.7,55-155.6,82.5
		c-1.3,0.7-2.7,1.4-4.8,2.4v-20.6c0-42.6,0-85.3-0.1-127.9c0-3,1-4.5,3.6-5.9c16-8.3,31.9-16.9,47.8-25.3c1-0.5,2-0.9,3.7-1.7v4.5
		c0,14,0,27.9,0.1,41.9c0,8.8,5.6,12.4,13.4,8.6c14.3-7.1,28.6-14.3,43-21.3c4.4-2.2,6.2-5.2,6.2-10c-0.1-16.7,0.1-33.6-0.1-50.4
		V213c0-2.5,0.8-3.8,3-5c13.4-7,26.7-14.1,40-21.2c0.9-0.5,2-0.9,3.4-1.6v14.5c0,44.6-0.1,89.2,0.1,133.7
		C428.4,336.6,427.3,338.2,424.7,339.6z"/>
	<path id="XMLID_87_" class="st1" d="M162.1,133c5.9-3.2,11.3-6.1,16.6-8.9c4.6-2.4,9.3-6.6,14-6.6c4.5,0,9.1,4.2,13.6,6.6
		c51.7,27.8,103.4,55.6,155.2,83.3c3,1.6,4.1,3.3,4.1,6.7c-0.2,15.4-0.2,30.7,0,46.1c0,2.6-0.8,3.9-3.1,5c-7.7,3.7-15.4,7.6-23,11.4
		c-1,0.5-2.1,0.9-3.7,1.6c0-1.8,0-3.2,0-4.5c0-13.8-0.2-27.7,0.1-41.5c0.1-5.4-1.9-8.8-6.7-11.3c-54.3-28.4-108.5-57-162.7-85.5
		C165.1,134.7,163.9,134,162.1,133z"/>
	<path id="XMLID_58_" class="st1" d="M381.9,266.8c0.1,4.8-1.8,7.9-6.2,10c-14.4,7-28.7,14.2-43,21.3c-7.8,3.9-13.4,0.3-13.4-8.6
		c-0.1-14-0.1-27.9-0.1-41.9v-4.5c0,0-1.8-9.7-9.5-13.7c-0.1-0.1-0.3-0.2-0.5-0.3c-1.4-0.7-4.7-2.5-9.5-5.1c-2.1-1.1-4.4-2.4-7-3.7
		c-45.3-24.2-164.5-87.9-164.5-87.9l65.8-34.9l17.1,9.3l160.3,87.7l0.1,0.1l3.8,2c0,0,6.3,3.7,6.3,19.2v0.7
		C382,233.2,381.8,250,381.9,266.8z"/>
</g>
</svg>
