<?xml version="1.0" encoding="utf-8"?>
<!-- Generator: Adobe Illustrator 19.0.0, SVG Export Plug-In . SVG Version: 6.00 Build 0)  -->
<svg version="1.1" id="Layer_1" xmlns="http://www.w3.org/2000/svg" xmlns:xlink="http://www.w3.org/1999/xlink" x="0px" y="0px"
	 viewBox="0 0 512 512" style="enable-background:new 0 0 512 512;" xml:space="preserve">
<style type="text/css">
	.st0{fill:#EFEFEF;stroke:#EEEEEE;stroke-width:15.0592;stroke-miterlimit:10;}
</style>
<g id="XMLID_93_">
	<path id="XMLID_94_" class="st0" d="M169.4,439.3c-2.9-1.6-6.1-2.7-8.5-5.1c-7.4-7.3-7.9-18-1-25.8c1.1-1.3,2.3-2.4,3.5-3.6
		c48.4-48.4,96.8-96.8,145.2-145.2c3.6-3.6,3.6-3.6,0-7.2c-48.9-48.9-97.8-97.8-146.7-146.7c-7.5-7.5-8.9-16.2-3.9-24.3
		c2.7-4.4,7-6.7,11.5-8.7c2.9,0,5.7,0,8.6,0c5.3,2,9.2,5.8,13.1,9.7c53.1,53.1,106.2,106.2,159.3,159.4c7.2,7.2,8.6,15.3,4.1,23.4
		c-1,1.8-2.4,3.3-3.8,4.7c-54.4,54.4-108.8,108.7-163.1,163.2c-2.8,2.8-6.2,4.4-9.6,6.1C175.1,439.3,172.2,439.3,169.4,439.3z"/>
</g>
</svg>
