<svg id="Layer_3" enable-background="new 0 0 64 64" height="512" viewBox="0 0 64 64" width="512" xmlns="http://www.w3.org/2000/svg"><g><g><path d="m24 18h38v24h-38z" fill="#c7e2fc"/></g><g><path d="m24 31.903c3.497 2.548 8.032 4.097 13 4.097 11.046 0 20-7.611 20-17 0-.338-.037-.667-.059-1h-32.941z" fill="#ebf7fe"/></g><g><path d="m41 10h4v13h-4z" fill="#3d98f7"/></g><g><path d="m43 2c-3.314 0-6 2.686-6 6v2h12v-2c0-3.314-2.686-6-6-6z" fill="#59ac98"/></g><g><path d="m39 13h8v6h-8z" fill="#59ac98"/></g><g><path d="m3 62h6v-4h-4c-1.105 0-2 .895-2 2z" fill="#3d98f7"/></g><g><path d="m19 62h-6v-4h4c1.105 0 2 .895 2 2z" fill="#3d98f7"/></g><g><path d="m17 58h-4v-16h-4v16h-4v-20h12z" fill="#4d5d7a"/></g><g><path d="m16 22h-10c-2.209 0-4 1.791-4 4v6c0 1.105.895 2 2 2h1v4h12v-4h1c1.105 0 2-.895 2-2v-6c0-2.209-1.791-4-4-4z" fill="#3d98f7"/></g><g><path d="m20 27v5c0 1.105-.895 2-2 2h-2.183c-1.185 0-2.343-.351-3.328-1.008l-1.489-.992-6-2v-1h7l5 2v-4" fill="#efbe9a"/></g><g><path d="m2 27v5c0 1.105.895 2 2 2h5l3.64-.91-1.64-1.09-6-2v-3" fill="#db9b7c"/></g><g><path d="m11 20c-1.657 0-3-1.343-3-3v-2c0-1.657 1.343-3 3-3 1.657 0 3 1.343 3 3v2c0 1.657-1.343 3-3 3z" fill="#efbe9a"/></g><g><path d="m14 58h-2v-15h-2v15h-2v-16c0-.552.447-1 1-1h4c.553 0 1 .448 1 1z"/></g><g><path d="m16 34h2v24h-2z"/></g><g><path d="m4 34h2v24h-2z"/></g><g><path d="m11 21c-2.206 0-4-1.794-4-4v-2c0-2.206 1.794-4 4-4s4 1.794 4 4v2c0 2.206-1.794 4-4 4zm0-8c-1.103 0-2 .897-2 2v2c0 1.103.897 2 2 2s2-.897 2-2v-2c0-1.103-.897-2-2-2z"/></g><g><path d="m5 37h12v2h-12z"/></g><g><path d="m9 63h-6c-.553 0-1-.448-1-1v-2c0-1.654 1.346-3 3-3h4c.553 0 1 .448 1 1v4c0 .552-.447 1-1 1zm-5-2h4v-2h-3c-.552 0-1 .449-1 1z"/></g><g><path d="m19 63h-6c-.553 0-1-.448-1-1v-4c0-.552.447-1 1-1h4c1.654 0 3 1.346 3 3v2c0 .552-.447 1-1 1zm-5-2h4v-1c0-.551-.448-1-1-1h-3z"/></g><g><path d="m17 32c-.126 0-.252-.023-.371-.071l-4.821-1.929h-6.808v-2h7c.127 0 .253.024.371.071l3.629 1.452v-2.523h2v4c0 .332-.165.642-.439.828-.168.114-.364.172-.561.172z"/></g><g><path d="m4 27h2v5h-2z"/></g><g><path d="m18 35h-2.184c-1.17 0-2.309-.289-3.328-.841l-3.246.811c-.079.02-.16.03-.242.03h-5c-1.654 0-3-1.346-3-3v-6c0-2.757 2.243-5 5-5h10c2.757 0 5 2.243 5 5v6c0 1.654-1.346 3-3 3zm-12.684-5.949 6 2c.084.028.164.067.238.117l1.488.992c.824.549 1.783.84 2.773.84h2.185c.552 0 1-.449 1-1v-6c0-1.654-1.346-3-3-3h-10c-1.654 0-3 1.346-3 3v6c0 .551.448 1 1 1h4.877l1.12-.28-5.313-1.771z"/></g><g><path d="m52 20h-2v-4h-3v-2h4c.553 0 1 .448 1 1z"/></g><g><path d="m36 20h-2v-5c0-.552.447-1 1-1h4v2h-3z"/></g><g><path d="m48 27h-2v-3h-6v3h-2v-4c0-.552.447-1 1-1h8c.553 0 1 .448 1 1z"/></g><g><path d="m34 45h18v2h-18z"/></g><g><path d="m49 42h2v4h-2z"/></g><g><path d="m36 42h2v4h-2z"/></g><g><path d="m42 31h-2v-3h-2v3h-2v-4c0-.552.447-1 1-1h4c.553 0 1 .448 1 1z"/></g><g><path d="m50 31h-2v-3h-2v3h-2v-4c0-.552.447-1 1-1h4c.553 0 1 .448 1 1z"/></g><g><path d="m49 11h-12c-.553 0-1-.448-1-1v-2c0-3.86 3.141-7 7-7s7 3.14 7 7v2c0 .552-.447 1-1 1zm-11-2h10v-1c0-2.757-2.243-5-5-5s-5 2.243-5 5z"/></g><g><path d="m40 10h2v3h-2z"/></g><g><path d="m44 10h2v3h-2z"/></g><g><path d="m47 20h-8c-.553 0-1-.448-1-1v-6c0-.552.447-1 1-1h8c.553 0 1 .448 1 1v6c0 .552-.447 1-1 1zm-7-2h6v-4h-6z"/></g><g><path d="m40 19h2v4h-2z"/></g><g><path d="m44 19h2v4h-2z"/></g><g><path d="m52 9h-3v-2h2v-4h2v5c0 .552-.447 1-1 1z"/></g><g><path d="m37 9h-3c-.553 0-1-.448-1-1v-5h2v4h2z"/></g><g><path d="m45 5h2v2h-2z"/></g><g><path d="m39 5h2v2h-2z"/></g><g><path d="m30 37c-1.654 0-3-1.346-3-3v-1h2v1c0 .551.448 1 1 1s1-.449 1-1v-1c0-.551-.448-1-1-1-1.654 0-3-1.346-3-3v-1c0-1.654 1.346-3 3-3s3 1.346 3 3v1h-2v-1c0-.551-.448-1-1-1s-1 .449-1 1v1c0 .551.448 1 1 1 1.654 0 3 1.346 3 3v1c0 1.654-1.346 3-3 3z"/></g><g><path d="m29 23h2v3h-2z"/></g><g><path d="m29 36h2v3h-2z"/></g><g><path d="m56 37c-1.654 0-3-1.346-3-3v-1h2v1c0 .551.448 1 1 1s1-.449 1-1v-1c0-.551-.448-1-1-1-1.654 0-3-1.346-3-3v-1c0-1.654 1.346-3 3-3s3 1.346 3 3v1h-2v-1c0-.551-.448-1-1-1s-1 .449-1 1v1c0 .551.448 1 1 1 1.654 0 3 1.346 3 3v1c0 1.654-1.346 3-3 3z"/></g><g><path d="m55 23h2v3h-2z"/></g><g><path d="m55 36h2v3h-2z"/></g><g><path d="m62 43h-38c-.553 0-1-.448-1-1v-24c0-.552.447-1 1-1h9v2h-8v22h36v-22h-8v-2h9c.553 0 1 .448 1 1v24c0 .552-.447 1-1 1z"/></g></g></svg>