<svg id="Layer_3" enable-background="new 0 0 64 64" height="512" viewBox="0 0 64 64" width="512" xmlns="http://www.w3.org/2000/svg"><g><g><path d="m62 62v-22h-44v22h4v-4h36v4z" fill="#db9b7c"/></g><g><path d="m18 50.36c4.117 2.293 9.112 3.64 14.5 3.64 11.256 0 20.802-5.866 24.184-14h-38.684z" fill="#efbe9a"/></g><g><path d="m26 28h4v6h-4z" fill="#8892a0"/></g><g><path d="m36 40v-6h-16v6" fill="#4d5d7a"/></g><g><path d="m23 24h10v4h-10z" fill="#4d5d7a"/></g><g><path d="m13 12c-1.105 0-2 .895-2 2v2h6c-1.105 0-2-.895-2-2 0-1.105-.895-2-2-2z" fill="#a1cdfb"/></g><g><path d="m15 14c0 1.105.895 2 2 2 1.105 0 2-.895 2-2v-12h-10v10h4c1.105 0 2 .895 2 2z" fill="#c7e2fc"/></g><g><path d="m13 12h-9c-1.105 0-2 .895-2 2v10h9v-10c0-1.105.895-2 2-2z" fill="#ebf7fe"/></g><g><path d="m55 29h1.394c2.253 0 4.356-1.126 5.606-3-2.209 0-4-1.791-4-4v-1c0-3.866-3.134-7-7-7-3.866 0-7 3.134-7 7v1c0 2.209-1.791 4-4 4 1.249 1.874 3.353 3 5.606 3h1.394" fill="#976947"/></g><g><path d="m60 40h-18v-4c0-3.314 2.686-6 6-6h6c3.314 0 6 2.686 6 6z" fill="#78b75b"/></g><g><path d="m49 34 2-2 2 2 2.795-3.726c-.567-.178-1.17-.274-1.795-.274h-6c-.625 0-1.228.096-1.795.274z" fill="#669e4f"/></g><g><path d="m51 18c0 2.209 1.791 4 4 4h1v3c0 2.761-2.239 5-5 5-2.761 0-5-2.239-5-5v-3h1c2.209 0 4-1.791 4-4z" fill="#efbe9a"/></g><g><path d="m56.395 30h-1.395v-2h1.395c1.384 0 2.696-.495 3.721-1.369-1.826-.745-3.116-2.54-3.116-4.631v-1c0-3.309-2.691-6-6-6s-6 2.691-6 6v1c0 2.091-1.29 3.886-3.115 4.631 1.024.874 2.337 1.369 3.72 1.369h1.395v2h-1.395c-2.593 0-5-1.288-6.438-3.445-.205-.307-.224-.701-.05-1.026s.514-.529.883-.529c1.654 0 3-1.346 3-3v-1c0-4.411 3.589-8 8-8s8 3.589 8 8v1c0 1.654 1.346 3 3 3 .369 0 .708.203.882.528s.155.72-.05 1.026c-1.437 2.158-3.845 3.446-6.437 3.446z"/></g><g><path d="m51 31c-3.309 0-6-2.691-6-6v-3c0-.553.447-1 1-1h1c1.654 0 3-1.346 3-3 0-.553.447-1 1-1s1 .447 1 1c0 1.654 1.346 3 3 3h1c.553 0 1 .447 1 1v3c0 3.309-2.691 6-6 6zm-4-8v2c0 2.206 1.794 4 4 4s4-1.794 4-4v-2c-1.634 0-3.087-.788-4-2.003-.913 1.215-2.366 2.003-4 2.003z"/></g><g><path d="m61 40h-2v-4c0-2.757-2.243-5-5-5h-6c-2.757 0-5 2.243-5 5v4h-2v-4c0-3.859 3.141-7 7-7h6c3.859 0 7 3.141 7 7z"/></g><g><path d="m45 35h2v5h-2z"/></g><g><path d="m55 35h2v5h-2z"/></g><g><path d="m53 35c-.265 0-.519-.104-.707-.293l-1.293-1.293-1.293 1.293c-.205.205-.478.313-.778.29-.289-.021-.555-.165-.729-.397l-3-4 1.6-1.199 2.309 3.077 1.185-1.185c.391-.391 1.023-.391 1.414 0l1.185 1.185 2.307-3.078 1.6 1.199-3 4c-.174.232-.439.377-.729.397-.024.003-.048.004-.071.004z"/></g><g><path d="m62 63h-4c-.553 0-1-.447-1-1v-3h-34v3c0 .553-.447 1-1 1h-4c-.553 0-1-.447-1-1v-22c0-.553.447-1 1-1h44c.553 0 1 .447 1 1v22c0 .553-.447 1-1 1zm-3-2h2v-20h-42v20h2v-3c0-.553.447-1 1-1h36c.553 0 1 .447 1 1z"/></g><g><path d="m37 40h-2v-5h-14v5h-2v-6c0-.553.447-1 1-1h16c.553 0 1 .447 1 1z"/></g><g><path d="m33 29h-10c-.553 0-1-.447-1-1v-4c0-.553.447-1 1-1h10c.553 0 1 .447 1 1v4c0 .553-.447 1-1 1zm-9-2h8v-2h-8z"/></g><g><path d="m25 28h2v6h-2z"/></g><g><path d="m29 28h2v6h-2z"/></g><g><path d="m17 17c-1.654 0-3-1.346-3-3h2c0 .552.448 1 1 1s1-.448 1-1v-11h-8v9h-2v-10c0-.553.447-1 1-1h10c.553 0 1 .447 1 1v12c0 1.654-1.346 3-3 3z"/></g><g><path d="m11 25h-9c-.553 0-1-.447-1-1v-10c0-1.654 1.346-3 3-3h9c1.654 0 3 1.346 3 3h-2c0-.552-.448-1-1-1s-1 .448-1 1v10c0 .553-.447 1-1 1zm-8-2h7v-9c0-.351.061-.688.171-1h-6.171c-.552 0-1 .448-1 1z"/></g><g><path d="m11 15h6v2h-6z"/></g><g><path d="m11 4h6v2h-6z"/></g><g><path d="m11 7h4v2h-4z"/></g><g><path d="m4 41c-1.654 0-3-1.346-3-3v-1h2v1c0 .552.448 1 1 1s1-.448 1-1v-1c0-.552-.448-1-1-1-1.654 0-3-1.346-3-3v-1c0-1.654 1.346-3 3-3s3 1.346 3 3v1h-2v-1c0-.552-.448-1-1-1s-1 .448-1 1v1c0 .552.448 1 1 1 1.654 0 3 1.346 3 3v1c0 1.654-1.346 3-3 3z"/></g><g><path d="m3 27h2v3h-2z"/></g><g><path d="m3 40h2v3h-2z"/></g><g><path d="m12 41c-1.654 0-3-1.346-3-3v-1h2v1c0 .552.448 1 1 1s1-.448 1-1v-1c0-.552-.448-1-1-1-1.654 0-3-1.346-3-3v-1c0-1.654 1.346-3 3-3s3 1.346 3 3v1h-2v-1c0-.552-.448-1-1-1s-1 .448-1 1v1c0 .552.448 1 1 1 1.654 0 3 1.346 3 3v1c0 1.654-1.346 3-3 3z"/></g><g><path d="m11 27h2v3h-2z"/></g><g><path d="m11 40h2v3h-2z"/></g></g></svg>