<svg id="Layer_3" enable-background="new 0 0 64 64" height="512" viewBox="0 0 64 64" width="512" xmlns="http://www.w3.org/2000/svg"><g><g><path d="m2 22 13 8 13-8v-12l-13-8-13 8z" fill="#669e4f"/></g><g><path d="m11 16h8c1.105 0 2 .895 2 2v6h-12v-6c0-1.105.895-2 2-2z" fill="#3d98f7"/></g><g><path d="m15 6c1.657 0 3 1.343 3 3v2c0 1.657-1.343 3-3 3-1.657 0-3-1.343-3-3v-2c0-1.657 1.343-3 3-3z" fill="#efbe9a"/></g><g><path d="m36 22 13 8 13-8v-12l-13-8-13 8z" fill="#669e4f"/></g><g><path d="m45 16h8c1.105 0 2 .895 2 2v6h-12v-6c0-1.105.895-2 2-2z" fill="#3d98f7"/></g><g><path d="m49 6c1.657 0 3 1.343 3 3v2c0 1.657-1.343 3-3 3-1.657 0-3-1.343-3-3v-2c0-1.657 1.343-3 3-3z" fill="#efbe9a"/></g><g><path d="m2 54 13 8 13-8v-12l-13-8-13 8z" fill="#669e4f"/></g><g><path d="m11 48h8c1.105 0 2 .895 2 2v6h-12v-6c0-1.105.895-2 2-2z" fill="#3d98f7"/></g><g><path d="m15 38c1.657 0 3 1.343 3 3v2c0 1.657-1.343 3-3 3-1.657 0-3-1.343-3-3v-2c0-1.657 1.343-3 3-3z" fill="#efbe9a"/></g><g><path d="m36 54 13 8 13-8v-12l-13-8-13 8z" fill="#669e4f"/></g><g><path d="m45 48h8c1.105 0 2 .895 2 2v6h-12v-6c0-1.105.895-2 2-2z" fill="#3d98f7"/></g><g><path d="m49 38c1.657 0 3 1.343 3 3v2c0 1.657-1.343 3-3 3-1.657 0-3-1.343-3-3v-2c0-1.657 1.343-3 3-3z" fill="#efbe9a"/></g><g><path d="m21 25h-12c-.553 0-1-.448-1-1v-6c0-1.654 1.346-3 3-3h8c1.654 0 3 1.346 3 3v6c0 .552-.447 1-1 1zm-11-2h10v-5c0-.551-.448-1-1-1h-8c-.552 0-1 .449-1 1z"/></g><g><path d="m17 19h2v5h-2z"/></g><g><path d="m11 19h2v5h-2z"/></g><g><path d="m15 15c-2.206 0-4-1.794-4-4v-2c0-2.206 1.794-4 4-4s4 1.794 4 4v2c0 2.206-1.794 4-4 4zm0-8c-1.103 0-2 .897-2 2v2c0 1.103.897 2 2 2s2-.897 2-2v-2c0-1.103-.897-2-2-2z"/></g><g><path d="m15 31c-.182 0-.363-.049-.524-.148l-13-8c-.296-.183-.476-.505-.476-.852v-12c0-.347.18-.669.476-.852l13-8c.322-.198.727-.198 1.049 0l13 8c.295.183.475.505.475.852v12c0 .347-.18.669-.476.852l-13 8c-.161.099-.342.148-.524.148zm-12-9.559 12 7.384 12-7.384v-10.882l-12-7.385-12 7.385z"/></g><g><path d="m55 25h-12c-.553 0-1-.448-1-1v-6c0-1.654 1.346-3 3-3h8c1.654 0 3 1.346 3 3v6c0 .552-.447 1-1 1zm-11-2h10v-5c0-.551-.448-1-1-1h-8c-.552 0-1 .449-1 1z"/></g><g><path d="m51 19h2v5h-2z"/></g><g><path d="m45 19h2v5h-2z"/></g><g><path d="m49 15c-2.206 0-4-1.794-4-4v-2c0-2.206 1.794-4 4-4s4 1.794 4 4v2c0 2.206-1.794 4-4 4zm0-8c-1.103 0-2 .897-2 2v2c0 1.103.897 2 2 2s2-.897 2-2v-2c0-1.103-.897-2-2-2z"/></g><g><path d="m49 31c-.182 0-.363-.049-.524-.148l-13-8c-.296-.183-.476-.505-.476-.852v-12c0-.347.18-.669.476-.852l13-8c.322-.198.727-.198 1.049 0l13 8c.295.183.475.505.475.852v12c0 .347-.18.669-.476.852l-13 8c-.161.099-.342.148-.524.148zm-12-9.559 12 7.384 12-7.384v-10.882l-12-7.385-12 7.384z"/></g><g><path d="m21 57h-12c-.553 0-1-.448-1-1v-6c0-1.654 1.346-3 3-3h8c1.654 0 3 1.346 3 3v6c0 .552-.447 1-1 1zm-11-2h10v-5c0-.551-.448-1-1-1h-8c-.552 0-1 .449-1 1z"/></g><g><path d="m17 51h2v5h-2z"/></g><g><path d="m11 51h2v5h-2z"/></g><g><path d="m15 47c-2.206 0-4-1.794-4-4v-2c0-2.206 1.794-4 4-4s4 1.794 4 4v2c0 2.206-1.794 4-4 4zm0-8c-1.103 0-2 .897-2 2v2c0 1.103.897 2 2 2s2-.897 2-2v-2c0-1.103-.897-2-2-2z"/></g><g><path d="m15 63c-.182 0-.363-.049-.524-.148l-13-8c-.296-.183-.476-.505-.476-.852v-12c0-.347.18-.669.476-.852l13-8c.322-.198.727-.198 1.049 0l13 8c.295.183.475.505.475.852v12c0 .347-.18.669-.476.852l-13 8c-.161.099-.342.148-.524.148zm-12-9.559 12 7.384 12-7.384v-10.882l-12-7.384-12 7.384z"/></g><g><path d="m55 57h-12c-.553 0-1-.448-1-1v-6c0-1.654 1.346-3 3-3h8c1.654 0 3 1.346 3 3v6c0 .552-.447 1-1 1zm-11-2h10v-5c0-.551-.448-1-1-1h-8c-.552 0-1 .449-1 1z"/></g><g><path d="m51 51h2v5h-2z"/></g><g><path d="m45 51h2v5h-2z"/></g><g><path d="m49 47c-2.206 0-4-1.794-4-4v-2c0-2.206 1.794-4 4-4s4 1.794 4 4v2c0 2.206-1.794 4-4 4zm0-8c-1.103 0-2 .897-2 2v2c0 1.103.897 2 2 2s2-.897 2-2v-2c0-1.103-.897-2-2-2z"/></g><g><path d="m49 63c-.182 0-.363-.049-.524-.148l-13-8c-.296-.183-.476-.505-.476-.852v-12c0-.347.18-.669.476-.852l13-8c.322-.198.727-.198 1.049 0l13 8c.295.183.475.505.475.852v12c0 .347-.18.669-.476.852l-13 8c-.161.099-.342.148-.524.148zm-12-9.559 12 7.384 12-7.384v-10.882l-12-7.384-12 7.384z"/></g><g><path d="m39 31h-14c-.266 0-.52-.105-.707-.293l-4-4 1.414-1.414 3.707 3.707h13.172l3.707-3.707 1.414 1.414-4 4c-.187.188-.441.293-.707.293z"/></g><g><path d="m42.293 38.707-3.707-3.707h-13.172l-3.707 3.707-1.414-1.414 4-4c.187-.188.441-.293.707-.293h14c.266 0 .52.105.707.293l4 4z"/></g><g><path d="m31 30h2v4h-2z"/></g></g></svg>