<svg id="Layer_3" enable-background="new 0 0 64 64" height="512" viewBox="0 0 64 64" width="512" xmlns="http://www.w3.org/2000/svg"><g><g><path d="m38 39h2c1.105 0 2-.895 2-2v-15c0-2.209-1.791-4-4-4h-12c-2.209 0-4 1.791-4 4v15c0 1.105.895 2 2 2h2" fill="#8892a0"/></g><g><path d="m38 18v5h-2l1 2-5 5-5-5 1-2h-2v-5" fill="#4d5d7a"/></g><g><path d="m29 18 3 12 3-12" fill="#fff"/></g><g><path d="m26 39h-2c-1.105 0-2-.895-2-2v-2h4z" fill="#efbe9a"/></g><g><path d="m40 39h-2v-4h4v2c0 1.105-.895 2-2 2z" fill="#efbe9a"/></g><g><path d="m26 35h12v23h-12z" fill="#4d5d7a"/></g><g><path d="m32 58h-6c-1.105 0-2 .895-2 2v2h8z" fill="#8892a0"/></g><g><path d="m32 58h6c1.105 0 2 .895 2 2v2h-8z" fill="#8892a0"/></g><g><path d="m28 10h-3c-1.105 0-2 .895-2 2 0 1.105.895 2 2 2h3" fill="#db9b7c"/></g><g><path d="m36 10h3c1.105 0 2 .895 2 2 0 1.105-.895 2-2 2h-3" fill="#db9b7c"/></g><g><path d="m37 6v7c0 2.761-2.239 5-5 5-2.761 0-5-2.239-5-5v-7" fill="#efbe9a"/></g><g><path d="m35 6c0 2.209-3.791 4-6 4h-4v-4c0-2.209 1.791-4 4-4h6c2.209 0 4 1.791 4 4v4c-2.209 0-4-1.791-4-4z" fill="#976947"/></g><g><path d="m25 28h2v30h-2z"/></g><g><path d="m37 28h2v30h-2z"/></g><g><path d="m40 63h-8v-2h7v-1c0-.552-.449-1-1-1h-6v-2h6c1.654 0 3 1.346 3 3v2c0 .553-.448 1-1 1z"/></g><g><path d="m22 34h20v2h-20z"/></g><g><path d="m39 11c-1.794 0-3.371-.95-4.253-2.374-1.537 1.498-4.135 2.374-5.747 2.374h-4c-.552 0-1-.448-1-1v-4c0-2.757 2.243-5 5-5h6c2.757 0 5 2.243 5 5v4c0 .552-.448 1-1 1zm-13-2h3c1.974 0 5-1.609 5-3 0-.552.448-1 1-1s1 .448 1 1c0 1.304.836 2.416 2 2.829v-2.829c0-1.654-1.346-3-3-3h-6c-1.654 0-3 1.346-3 3z"/></g><g><path d="m32 19c-3.309 0-6-2.691-6-6v-3h2v3c0 2.206 1.794 4 4 4s4-1.794 4-4v-4h2v4c0 3.309-2.691 6-6 6z"/></g><g><path d="m27 15h-2c-1.654 0-3-1.346-3-3s1.346-3 3-3h1v2h-1c-.551 0-1 .449-1 1s.449 1 1 1h2z"/></g><g><path d="m39 15h-2v-2h2c.551 0 1-.449 1-1s-.449-1-1-1h-1v-2h1c1.654 0 3 1.346 3 3s-1.346 3-3 3z"/></g><g><path d="m40 40h-2v-2h2c.551 0 1-.448 1-1v-15c0-1.654-1.346-3-3-3h-12c-1.654 0-3 1.346-3 3v15c0 .552.449 1 1 1h2v2h-2c-1.654 0-3-1.346-3-3v-15c0-2.757 2.243-5 5-5h12c2.757 0 5 2.243 5 5v15c0 1.654-1.346 3-3 3z"/></g><g><path d="m32 31c-.459 0-.859-.312-.97-.757l-3-12 1.94-.485 2.03 8.12 2.03-8.12 1.94.485-3 12c-.111.445-.511.757-.97.757z"/></g><g><path d="m32 31c-.256 0-.512-.098-.707-.293l-5-5c-.304-.304-.38-.769-.188-1.154l.277-.553h-.382c-.552 0-1-.448-1-1v-5h2v4h1c.347 0 .668.18.851.474.182.295.199.663.044.973l-.678 1.355 3.783 3.784 3.783-3.783-.678-1.355c-.155-.31-.138-.678.044-.973.183-.295.504-.475.851-.475h1v-4h2v5c0 .552-.448 1-1 1h-.382l.276.553c.192.385.117.85-.188 1.154l-5 5c-.194.195-.45.293-.706.293z"/></g><g><path d="m32 63h-8c-.552 0-1-.447-1-1v-2c0-1.654 1.346-3 3-3h5v-17h2v22c0 .553-.448 1-1 1zm-7-2h6v-2h-5c-.551 0-1 .448-1 1z"/></g></g></svg>