<svg id="Layer_3" enable-background="new 0 0 64 64" height="512" viewBox="0 0 64 64" width="512" xmlns="http://www.w3.org/2000/svg"><g><g><path d="m60 6v38h-56v-38" fill="#c7e2fc"/></g><g><path d="m4 29.589c5.132 2.765 11.542 4.411 18.5 4.411 16.845 0 30.5-9.626 30.5-21.5 0-2.266-.5-4.449-1.422-6.5h-47.578z" fill="#ebf7fe"/></g><g><path d="m2 2h60v4h-60z" fill="#4d5d7a"/></g><g><path d="m28 30h4v10h-4z" fill="#c66b60"/></g><g><path d="m44 17h4v23h-4z" fill="#c66b60"/></g><g><path d="m36 26h4v14h-4z" fill="#669e4f"/></g><g><path d="m52 10h4v30h-4z" fill="#669e4f"/></g><g><path d="m62 7h-60c-.553 0-1-.448-1-1v-4c0-.552.447-1 1-1h60c.553 0 1 .448 1 1v4c0 .552-.447 1-1 1zm-59-2h58v-2h-58z"/></g><g><path d="m60 45h-56c-.553 0-1-.447-1-1v-38h2v37h54v-37h2v38c0 .553-.447 1-1 1z"/></g><g><path d="m23 37h-14c-.553 0-1-.447-1-1v-1.409c0-1.405.956-2.607 2.325-2.923l10.675-2.463v-3.205h-11v-2h12c.553 0 1 .448 1 1v5c0 .466-.321.87-.775.975l-11.45 2.642c-.457.105-.775.505-.775.974v.409h13z"/></g><g><path d="m10.006 32.11-.902-8.11h-2.104v-2h3c.51 0 .938.383.994.89l1 9z"/></g><g><path d="m11 41c-1.654 0-3-1.346-3-3s1.346-3 3-3 3 1.346 3 3-1.346 3-3 3zm0-4c-.552 0-1 .448-1 1s.448 1 1 1 1-.448 1-1-.448-1-1-1z"/></g><g><path d="m19 41c-1.654 0-3-1.346-3-3s1.346-3 3-3 3 1.346 3 3-1.346 3-3 3zm0-4c-.552 0-1 .448-1 1s.448 1 1 1 1-.448 1-1-.448-1-1-1z"/></g><g><path d="m17 25h2v6h-2z"/></g><g><path d="m13 25h2v7h-2z"/></g><g><path d="m32 63c-2.206 0-4-1.794-4-4s1.794-4 4-4 4 1.794 4 4-1.794 4-4 4zm0-6c-1.103 0-2 .897-2 2s.897 2 2 2 2-.897 2-2-.897-2-2-2z"/></g><g><path d="m31 44h2v12h-2z"/></g><g><path d="m32 41h-4c-.553 0-1-.447-1-1v-10c0-.552.447-1 1-1h4c.553 0 1 .448 1 1v10c0 .553-.447 1-1 1zm-3-2h2v-8h-2z"/></g><g><path d="m40 41h-4c-.553 0-1-.447-1-1v-14c0-.552.447-1 1-1h4c.553 0 1 .448 1 1v14c0 .553-.447 1-1 1zm-3-2h2v-12h-2z"/></g><g><path d="m48 41h-4c-.553 0-1-.447-1-1v-23c0-.552.447-1 1-1h4c.553 0 1 .448 1 1v23c0 .553-.447 1-1 1zm-3-2h2v-21h-2z"/></g><g><path d="m56 41h-4c-.553 0-1-.447-1-1v-30c0-.552.447-1 1-1h4c.553 0 1 .448 1 1v30c0 .553-.447 1-1 1zm-3-2h2v-28h-2z"/></g><g><path d="m24.124 25.992-.248-1.984 2.762-.345c7.504-.938 13.688-6.519 15.388-13.887l1.949.449c-1.889 8.183-8.756 14.38-17.089 15.422z"/></g><g><path d="m45.143 14.515-2.411-4.019-4.106 3.285-1.25-1.562 5-4c.226-.18.519-.252.802-.204.284.051.532.223.681.47l3 5z"/></g></g></svg>