<svg id="Layer_3" enable-background="new 0 0 64 64" height="512" viewBox="0 0 64 64" width="512" xmlns="http://www.w3.org/2000/svg"><g><g><path d="m33 30v-28h8v31" fill="#c7e2fc"/></g><g><path d="m23 10h6v28h-6z" fill="#c66b60"/></g><g><path d="m26 2-3 8h6" fill="#efbe9a"/></g><g><path d="m43 62c5.523 0 10-4.477 10-10 0-4.734-3.293-8.69-7.71-9.726.452-1.173.71-2.442.71-3.774 0-5.799-4.701-10.5-10.5-10.5-4.213 0-7.836 2.487-9.509 6.068-.325-.041-.655-.068-.991-.068-4.418 0-8 3.582-8 8 0 .067.008.132.01.199-4.569.923-8.01 4.96-8.01 9.801 0 5.523 4.477 10 10 10z" fill="#8bd2f5"/></g><g><path d="m43 63h-24c-6.065 0-11-4.935-11-11s4.935-11 11-11 11 4.935 11 11h-2c0-4.963-4.037-9-9-9s-9 4.037-9 9 4.037 9 9 9h24c4.963 0 9-4.037 9-9 0-4.264-3.027-7.973-7.199-8.819l.398-1.961c5.1 1.036 8.801 5.569 8.801 10.78 0 6.065-4.935 11-11 11z"/></g><g><path d="m34 42h-2c0-3.859-3.141-7-7-7s-7 3.141-7 7h-2c0-4.963 4.037-9 9-9s9 4.037 9 9z"/></g><g><path d="m35.5 50v-2c5.238 0 9.5-4.262 9.5-9.5s-4.262-9.5-9.5-9.5c-3.649 0-7.02 2.131-8.586 5.429l-1.807-.857c1.896-3.993 5.975-6.572 10.393-6.572 6.341 0 11.5 5.159 11.5 11.5s-5.159 11.5-11.5 11.5z"/></g><g><path d="m24 34h-2v-24c0-.12.021-.239.063-.351l3-8c.147-.39.52-.649.937-.649s.79.259.937.649l3 8c.042.112.063.231.063.351v20h-2v-19.819l-2-5.333-2 5.333z"/></g><g><path d="m23 9h6v2h-6z"/></g><g><path d="m42 30h-2v-27h-6v25h-2v-26c0-.552.447-1 1-1h8c.553 0 1 .448 1 1z"/></g><g><path d="m33 5h3v2h-3z"/></g><g><path d="m33 9h5v2h-5z"/></g><g><path d="m33 13h3v2h-3z"/></g><g><path d="m33 17h5v2h-5z"/></g><g><path d="m33 21h3v2h-3z"/></g></g></svg>