<svg id="Layer_3" enable-background="new 0 0 64 64" height="512" viewBox="0 0 64 64" width="512" xmlns="http://www.w3.org/2000/svg"><g><g><path d="m60 62v-4h-12v4" fill="#4d5d7a"/></g><g><path d="m52 41v6l-2 2v9h8v-9l2-2v-8.243" fill="#2b74ca"/></g><g><path d="m52 29-6 6 6.757 6.757c.796.796 1.875 1.243 3 1.243 2.344 0 4.243-1.899 4.243-4.243 0-1.125-.447-2.204-1.243-3z" fill="#3d98f7"/></g><g><path d="m39.257 24.379h8.485v4.243h-8.485z" fill="#4d5d7a" transform="matrix(.707 -.707 .707 .707 -5.998 38.521)"/></g><g><path d="m44 29 4 4 2-2-4-4" fill="#c1c8d1"/></g><g><path d="m4 62v-4h12v4" fill="#4d5d7a"/></g><g><path d="m12 41v6l2 2v9h-8v-9l-2-2v-8.243" fill="#2b74ca"/></g><g><path d="m12 29 6 6-6.757 6.757c-.796.796-1.875 1.243-3 1.243-2.344 0-4.243-1.899-4.243-4.243 0-1.125.447-2.204 1.243-3z" fill="#3d98f7"/></g><g><path d="m18.379 22.257h4.243v8.485h-4.243z" fill="#4d5d7a" transform="matrix(.707 -.707 .707 .707 -12.734 22.257)"/></g><g><path d="m20 29-4 4-2-2 4-4" fill="#c1c8d1"/></g><g><path d="m20 7 12 17 12-17" fill="#ebf7fe"/></g><g><path d="m40 4 4 3-7 3h-10l-7-3 4-3" fill="#c7e2fc"/></g><g><path d="m27 10 5 14 5-14" fill="#c7e2fc"/></g><g><path d="m36 6h-8l-1 4h10z" fill="#ebf7fe"/></g><g><path d="m36 6h-8l-4-2 4-2h8l4 2z" fill="#a1cdfb"/></g><g><path d="m1 61h62v2h-62z"/></g><g><path d="m36 7h-8c-.155 0-.309-.036-.447-.105l-4-2c-.339-.17-.553-.516-.553-.895s.214-.725.553-.895l4-2c.138-.069.292-.105.447-.105h8c.155 0 .309.036.447.105l4 2c.339.17.553.516.553.895s-.214.725-.553.895l-4 2c-.138.069-.292.105-.447.105zm-7.764-2h7.527l2-1-2-1h-7.527l-2 1z"/></g><g><path d="m25.438 7h4.123v1.999h-4.123z" transform="matrix(.242 -.97 .97 .242 13.075 32.742)"/></g><g><path d="m35.5 5.938h1.999v4.123h-1.999z" transform="matrix(.97 -.243 .243 .97 -.851 9.091)"/></g><g><path d="m37 11h-10c-.136 0-.27-.027-.394-.081l-7-3c-.328-.141-.557-.445-.6-.8-.041-.354.108-.705.394-.919l4-3 1.2 1.6-2.616 1.962 5.221 2.238h9.59l5.222-2.238-2.617-1.962 1.2-1.6 4 3c.286.214.436.564.394.919-.043.354-.271.659-.6.8l-7 3c-.124.054-.258.081-.394.081z"/></g><g><path d="m32 25c-.325 0-.63-.158-.817-.423l-12-17 1.635-1.154 11.182 15.843 11.183-15.843 1.635 1.154-12 17c-.188.265-.493.423-.818.423z"/></g><g><path d="m32 25c-.423 0-.8-.266-.941-.664l-5-14 1.883-.672 4.058 11.362 4.059-11.362 1.883.672-5 14c-.142.398-.519.664-.942.664z"/></g><g><path d="m20.964 21.5h7.071v2h-7.071z" transform="matrix(.707 -.707 .707 .707 -8.734 23.914)"/></g><g><path d="m22 32c-.256 0-.512-.098-.707-.293l-6-6c-.391-.391-.391-1.023 0-1.414l3-3c.391-.391 1.023-.391 1.414 0l6 6c.391.391.391 1.023 0 1.414l-3 3c-.195.195-.451.293-.707.293zm-4.586-7 4.586 4.586 1.586-1.586-4.586-4.586z"/></g><g><path d="m13.172 28h5.657v2h-5.657z" transform="matrix(.707 -.707 .707 .707 -15.82 19.808)"/></g><g><path d="m15.172 30h5.657v2h-5.657z" transform="matrix(.707 -.707 .707 .707 -16.648 21.808)"/></g><g><path d="m8.242 44c-2.89 0-5.242-2.352-5.242-5.242 0-1.4.545-2.717 1.535-3.707l6.758-6.758c.391-.391 1.023-.391 1.414 0l6 6c.391.391.391 1.023 0 1.414l-6.758 6.758c-.99.99-2.306 1.535-3.707 1.535zm3.758-13.586-6.051 6.051c-.612.612-.949 1.427-.949 2.293 0 1.788 1.454 3.242 3.242 3.242.866 0 1.681-.337 2.293-.949l6.051-6.051z"/></g><g><path d="m7 58h-2v-8.586l-1.707-1.707c-.188-.187-.293-.441-.293-.707v-8.242h2v7.828l1.707 1.707c.188.187.293.441.293.707z"/></g><g><path d="m15 58h-2v-8.586l-1.707-1.707c-.188-.187-.293-.441-.293-.707v-6h2v5.586l1.707 1.707c.188.187.293.441.293.707z"/></g><g><path d="m17 62h-2v-3h-10v3h-2v-4c0-.553.447-1 1-1h12c.553 0 1 .447 1 1z"/></g><g><path d="m7 38h2v2h-2z"/></g><g><path d="m38.5 18.964h2v7.071h-2z" transform="matrix(.707 -.707 .707 .707 -4.341 34.521)"/></g><g><path d="m42 32c-.256 0-.512-.098-.707-.293l-3-3c-.391-.391-.391-1.023 0-1.414l6-6c.391-.391 1.023-.391 1.414 0l3 3c.391.391.391 1.023 0 1.414l-6 6c-.195.195-.451.293-.707.293zm-1.586-4 1.586 1.586 4.586-4.586-1.586-1.586z"/></g><g><path d="m47 26.172h2v5.657h-2z" transform="matrix(.707 -.707 .707 .707 -6.447 42.435)"/></g><g><path d="m45 28.172h2v5.657h-2z" transform="matrix(.707 -.707 .707 .707 -8.447 41.607)"/></g><g><path d="m55.758 44c-1.4 0-2.717-.545-3.707-1.535l-6.758-6.758c-.391-.391-.391-1.023 0-1.414l6-6c.391-.391 1.023-.391 1.414 0l6.758 6.758c.99.99 1.535 2.307 1.535 3.707 0 2.89-2.352 5.242-5.242 5.242zm-8.344-9 6.051 6.051c.612.612 1.427.949 2.293.949 1.788 0 3.242-1.454 3.242-3.242 0-.866-.337-1.681-.949-2.293l-6.051-6.051z"/></g><g><path d="m59 58h-2v-9c0-.266.105-.52.293-.707l1.707-1.707v-7.828h2v8.242c0 .266-.105.52-.293.707l-1.707 1.707z"/></g><g><path d="m51 58h-2v-9c0-.266.105-.52.293-.707l1.707-1.707v-5.586h2v6c0 .266-.105.52-.293.707l-1.707 1.707z"/></g><g><path d="m61 62h-2v-3h-10v3h-2v-4c0-.553.447-1 1-1h12c.553 0 1 .447 1 1z"/></g><g><path d="m55 38h2v2h-2z"/></g><g><path d="m40 18h5v2h-5z"/></g><g><path d="m39.807 14h5.385v2h-5.385z" transform="matrix(.929 -.371 .371 .929 -2.532 16.841)"/></g><g><path d="m19 18h5v2h-5z"/></g><g><path d="m20.5 12.307h2v5.385h-2z" transform="matrix(.371 -.929 .929 .371 -.412 29.391)"/></g></g></svg>