<svg id="Layer_3" enable-background="new 0 0 64 64" height="512" viewBox="0 0 64 64" width="512" xmlns="http://www.w3.org/2000/svg"><g><g><path d="m16 52v10h-12v-10" fill="#f5b953"/></g><g><path d="m2 48h16v4h-16z" fill="#976947"/></g><g><path d="m61 6h-12l-1 16h14z" fill="#c66b60"/></g><g><path d="m48.203 18.748c.581.159 1.183.252 1.804.252 4.414 0 7.993-4.253 7.993-9.5 0-1.237-.205-2.416-.567-3.5h-8.433z" fill="#e47c6e"/></g><g><path d="m41 23v-4c0-1.657-1.343-3-3-3v-1c0-1.657-1.343-3-3-3h-9c-1.657 0-3 1.343-3 3v8" fill="#976947"/></g><g><path d="m42 44v-6.531c0-1.991-1.464-3.678-3.434-3.96l-3.566-.509v-3h-6v3l-3.566.509c-1.97.282-3.434 1.97-3.434 3.96v6.531" fill="#2b74ca"/></g><g><path d="m35 33 3 .429v4.571h-2l1 2-2 4h-3z" fill="#3d98f7"/></g><g><path d="m35 29v4l-3 11-3-11v-4" fill="#efbe9a"/></g><g><path d="m29 33-3 .429v4.571h2l-1 2 2 4h3z" fill="#3d98f7"/></g><g><path d="m38 22h2c1.105 0 2 .895 2 2 0 1.105-.895 2-2 2h-2" fill="#db9b7c"/></g><g><path d="m26 22h-2c-1.105 0-2 .895-2 2 0 1.105.895 2 2 2h2" fill="#db9b7c"/></g><g><path d="m34 17c0 1.657 1.343 3 3 3h1v5c0 3.314-2.686 6-6 6-3.314 0-6-2.686-6-6v-5h5c1.657 0 3-1.343 3-3z" fill="#efbe9a"/></g><g><circle cx="10" cy="10" fill="#f5b953" r="8"/></g><g><circle cx="54" cy="54" fill="#f5b953" r="8"/></g><g><path d="m32 32c-3.86 0-7-3.141-7-7v-5c0-.553.448-1 1-1h5c1.103 0 2-.897 2-2 0-.553.448-1 1-1s1 .447 1 1c0 1.103.897 2 2 2h1c.552 0 1 .447 1 1v5c0 3.859-3.14 7-7 7zm-5-11v4c0 2.757 2.243 5 5 5s5-2.243 5-5v-4c-1.193 0-2.267-.525-3-1.357-.733.832-1.807 1.357-3 1.357z"/></g><g><path d="m40 27h-2v-2h2c.551 0 1-.448 1-1s-.449-1-1-1h-2v-2h2c1.654 0 3 1.346 3 3s-1.346 3-3 3z"/></g><g><path d="m26 27h-2c-1.654 0-3-1.346-3-3s1.346-3 3-3h2v2h-2c-.551 0-1 .448-1 1s.449 1 1 1h2z"/></g><g><path d="m42 22h-2v-3c0-1.103-.897-2-2-2-.552 0-1-.447-1-1v-1c0-1.103-.897-2-2-2h-9c-1.103 0-2 .897-2 2v7h-2v-7c0-2.206 1.794-4 4-4h9c2.206 0 4 1.794 4 4v.127c1.723.444 3 2.013 3 3.873z"/></g><g><path d="m42 45h-20c-.552 0-1-.447-1-1v-6.531c0-2.472 1.846-4.6 4.293-4.949l2.707-.387v-2.133h2v3c0 .498-.366.92-.858.99l-3.566.51c-1.469.209-2.576 1.485-2.576 2.969v5.531h18v-5.531c0-1.483-1.107-2.76-2.575-2.969l-3.566-.51c-.493-.07-.859-.492-.859-.99v-3h2v2.133l2.708.387c2.446.349 4.292 2.477 4.292 4.949v6.531c0 .553-.448 1-1 1z"/></g><g><path d="m32 45c-.451 0-.846-.302-.965-.737l-3-11 1.93-.525 2.035 7.461 2.035-7.462 1.93.525-3 11c-.119.436-.514.738-.965.738z"/></g><g><path d="m28.105 44.447-2-4c-.141-.281-.141-.613 0-.895l.277-.552h-.382c-.552 0-1-.447-1-1v-4h2v3h1c.347 0 .668.18.851.475s.199.663.044.973l-.777 1.552 1.776 3.553z"/></g><g><path d="m35.895 44.447-1.789-.895 1.776-3.552-.776-1.553c-.155-.31-.138-.678.044-.973s.503-.474.85-.474h1v-3h2v4c0 .553-.448 1-1 1h-.382l.276.553c.141.281.141.613 0 .895z"/></g><g><path d="m62 23h-14c-.276 0-.54-.114-.729-.315s-.286-.472-.269-.747l1-16c.033-.528.47-.938.998-.938h12c.528 0 .965.41.998.938l1 16c.017.275-.08.546-.269.747s-.453.315-.729.315zm-12.936-2h11.871l-.874-14h-10.122z"/></g><g><path d="m59 11h-2v-6c0-1.103-.897-2-2-2s-2 .897-2 2v6h-2v-6c0-2.206 1.794-4 4-4s4 1.794 4 4z"/></g><g><path d="m18 53h-16c-.552 0-1-.447-1-1v-4c0-.553.448-1 1-1h16c.552 0 1 .447 1 1v4c0 .553-.448 1-1 1zm-15-2h14v-2h-14z"/></g><g><path d="m16 63h-12c-.552 0-1-.447-1-1v-10h2v9h10v-9h2v10c0 .553-.448 1-1 1z"/></g><g><path d="m10 49h-3c-2.206 0-4-1.794-4-4s1.794-4 4-4 4 1.794 4 4v3c0 .553-.448 1-1 1zm-3-6c-1.103 0-2 .897-2 2s.897 2 2 2h2v-2c0-1.103-.897-2-2-2z"/></g><g><path d="m13 49h-3c-.552 0-1-.447-1-1v-3c0-2.206 1.794-4 4-4s4 1.794 4 4-1.794 4-4 4zm-2-2h2c1.103 0 2-.897 2-2s-.897-2-2-2-2 .897-2 2z"/></g><g><path d="m12 13h-5v-2h2.586l-2.293-2.293c-.286-.286-.372-.716-.217-1.09s.52-.617.924-.617h5v2h-2.586l2.293 2.293c.286.286.372.716.217 1.09s-.52.617-.924.617z"/></g><g><path d="m9 5h2v3h-2z"/></g><g><path d="m9 12h2v3h-2z"/></g><g><path d="m10 19c-4.962 0-9-4.037-9-9s4.038-9 9-9 9 4.037 9 9-4.038 9-9 9zm0-16c-3.86 0-7 3.141-7 7s3.14 7 7 7 7-3.141 7-7-3.14-7-7-7z"/></g><g><path d="m56 57h-5v-2h2.586l-2.293-2.293c-.286-.286-.372-.716-.217-1.09s.52-.617.924-.617h5v2h-2.586l2.293 2.293c.286.286.372.716.217 1.09s-.52.617-.924.617z"/></g><g><path d="m53 49h2v3h-2z"/></g><g><path d="m53 56h2v3h-2z"/></g><g><path d="m54 63c-4.962 0-9-4.037-9-9s4.038-9 9-9 9 4.037 9 9-4.038 9-9 9zm0-16c-3.86 0-7 3.141-7 7s3.14 7 7 7 7-3.141 7-7-3.14-7-7-7z"/></g><g><path d="m45.5 44.379h2v4.243h-2z" transform="matrix(.707 -.707 .707 .707 -19.261 46.5)"/></g><g><path d="m44.275 16.25h4.95v2h-4.95z" transform="matrix(.707 -.707 .707 .707 1.495 38.11)"/></g><g><path d="m16.5 15.379h2v4.243h-2z" transform="matrix(.707 -.707 .707 .707 -7.249 17.5)"/></g><g><path d="m17.172 43h5.657v2h-5.657z" transform="matrix(.707 -.707 .707 .707 -25.255 27.029)"/></g></g></svg>