<svg id="Layer_3" enable-background="new 0 0 64 64" height="512" viewBox="0 0 64 64" width="512" xmlns="http://www.w3.org/2000/svg"><g><g><path d="m10 40v22h4v-4h36v4h4v-22" fill="#8892a0"/></g><g><path d="m8 36h48v4h-48z" fill="#4d5d7a"/></g><g><path d="m23 36v-4c0-3.314 2.686-6 6-6h6c3.314 0 6 2.686 6 6v4" fill="#c7e2fc"/></g><g><path d="m30 30 2-2 2 2 2.795-3.726c-.567-.178-1.17-.274-1.795-.274h-6c-.625 0-1.228.096-1.795.274z" fill="#ebf7fe"/></g><g><path d="m28 18h-3c-1.105 0-2 .895-2 2 0 1.105.895 2 2 2h3" fill="#db9b7c"/></g><g><path d="m37 14v7c0 2.761-2.239 5-5 5-2.761 0-5-2.239-5-5v-7" fill="#efbe9a"/></g><g><path d="m34.599 10.499c.255-.441.401-.953.401-1.499 0-1.657-1.343-3-3-3s-3 1.343-3 3c0 .546.146 1.058.401 1.499" fill="#976947"/></g><g><path d="m35 14c0 2.209 1.791 4 4 4v-1c0-3.866-3.134-7-7-7-3.866 0-7 3.134-7 7v1h6c2.209 0 4-1.791 4-4z" fill="#c18e59"/></g><g><path d="m48 18h4v4l4-4h4c1.105 0 2-.895 2-2v-12c0-1.105-.895-2-2-2h-12c-1.105 0-2 .895-2 2v12c0 1.105.895 2 2 2z" fill="#e47c6e"/></g><g><path d="m16 18h-4v4l-4-4h-4c-1.105 0-2-.895-2-2v-12c0-1.105.895-2 2-2h12c1.105 0 2 .895 2 2v12c0 1.105-.895 2-2 2z" fill="#e47c6e"/></g><g><path d="m39 19c-1.634 0-3.087-.788-4-2.003-.913 1.215-2.366 2.003-4 2.003h-6c-.553 0-1-.447-1-1v-1c0-4.411 3.589-8 8-8s8 3.589 8 8v1c0 .553-.447 1-1 1zm-13-2h5c1.654 0 3-1.346 3-3 0-.553.447-1 1-1s1 .447 1 1c0 1.303.835 2.414 1.998 2.828-.092-3.229-2.747-5.828-5.998-5.828-3.309 0-6 2.691-6 6z"/></g><g><path d="m32 27c-3.309 0-6-2.691-6-6v-3h2v3c0 2.206 1.794 4 4 4s4-1.794 4-4v-4h2v4c0 3.309-2.691 6-6 6z"/></g><g><path d="m42 36h-2v-4c0-2.757-2.243-5-5-5h-6c-2.757 0-5 2.243-5 5v4h-2v-4c0-3.859 3.141-7 7-7h6c3.859 0 7 3.141 7 7z"/></g><g><path d="m26 31h2v5h-2z"/></g><g><path d="m36 31h2v5h-2z"/></g><g><path d="m28.537 11.001c-.351-.605-.537-1.296-.537-2.001 0-2.206 1.794-4 4-4s4 1.794 4 4c0 .702-.185 1.394-.534 1.999l-1.732-1c.174-.302.266-.647.266-.999 0-1.103-.897-2-2-2s-2 .897-2 2c0 .353.092.697.266.997z"/></g><g><path d="m27 23h-2c-1.654 0-3-1.346-3-3s1.346-3 3-3h1v2h-1c-.552 0-1 .448-1 1s.448 1 1 1h2z"/></g><g><path d="m41 23h-7v-2h6v-2h-2v-2h3c.553 0 1 .447 1 1v4c0 .553-.447 1-1 1z"/></g><g><path d="m34 31c-.265 0-.519-.104-.707-.293l-1.293-1.293-1.293 1.293c-.205.205-.479.316-.778.29-.289-.021-.555-.165-.729-.397l-3-4 1.6-1.199 2.309 3.077 1.185-1.185c.391-.391 1.023-.391 1.414 0l1.185 1.185 2.307-3.078 1.6 1.199-3 4c-.174.232-.439.377-.729.397-.024.003-.048.004-.071.004z"/></g><g><path d="m56 41h-48c-.553 0-1-.447-1-1v-4c0-.553.447-1 1-1h48c.553 0 1 .447 1 1v4c0 .553-.447 1-1 1zm-47-2h46v-2h-46z"/></g><g><path d="m54 63h-4c-.553 0-1-.447-1-1v-3h-34v3c0 .553-.447 1-1 1h-4c-.553 0-1-.447-1-1v-22h2v21h2v-3c0-.553.447-1 1-1h36c.553 0 1 .447 1 1v3h2v-21h2v22c0 .553-.447 1-1 1z"/></g><g><path d="m52 23c-.129 0-.259-.024-.383-.076-.374-.154-.617-.52-.617-.924v-3h-3c-1.654 0-3-1.346-3-3v-12c0-1.654 1.346-3 3-3h12c1.654 0 3 1.346 3 3v12c0 1.654-1.346 3-3 3h-3.586l-3.707 3.707c-.191.191-.447.293-.707.293zm-4-20c-.552 0-1 .448-1 1v12c0 .552.448 1 1 1h4c.553 0 1 .447 1 1v1.586l2.293-2.293c.187-.188.441-.293.707-.293h4c.552 0 1-.448 1-1v-12c0-.552-.448-1-1-1z"/></g><g><path d="m49 9h2v2h-2z"/></g><g><path d="m53 9h2v2h-2z"/></g><g><path d="m57 9h2v2h-2z"/></g><g><path d="m12 23c-.26 0-.516-.102-.707-.293l-3.707-3.707h-3.586c-1.654 0-3-1.346-3-3v-12c0-1.654 1.346-3 3-3h12c1.654 0 3 1.346 3 3v12c0 1.654-1.346 3-3 3h-3v3c0 .404-.243.77-.617.924-.124.052-.254.076-.383.076zm-8-20c-.552 0-1 .448-1 1v12c0 .552.448 1 1 1h4c.266 0 .52.105.707.293l2.293 2.293v-1.586c0-.553.447-1 1-1h4c.552 0 1-.448 1-1v-12c0-.552-.448-1-1-1z"/></g><g><path d="m13 9h2v2h-2z"/></g><g><path d="m9 9h2v2h-2z"/></g><g><path d="m5 9h2v2h-2z"/></g></g></svg>