<svg id="Layer_3" enable-background="new 0 0 64 64" height="512" viewBox="0 0 64 64" width="512" xmlns="http://www.w3.org/2000/svg"><g><g><path d="m62 53h-14-.005c-.042-.688-.333-1.339-.823-1.829l-10.172-10.171h-4l-5.172 5.172c-.53.53-1.25.828-2 .828-1.562 0-2.828-1.266-2.828-2.828 0-.75.298-1.47.828-2l6.172-6.172h32" fill="#db9b7c"/></g><g><path d="m2 36h28l-6.172 6.172c-.53.53-.828 1.25-.828 2 0 1.562 1.266 2.828 2.828 2.828.75 0 1.47-.298 2-.828l5.172-5.172h4l10.172 10.172c.53.53.828 1.25.828 2 0 1.562-1.266 2.828-2.828 2.828-.75 0-1.47-.298-2-.828l-2-2c.53.53.828 1.25.828 2 0 1.562-1.266 2.828-2.828 2.828-.75 0-1.47-.298-2-.828l-2-2c.53.53.828 1.25.828 2 0 1.562-1.266 2.828-2.828 2.828-.75 0-1.47-.298-2-.828l-2-2c.53.53.828 1.25.828 2 0 1.562-1.266 2.828-2.828 2.828-.75 0-1.47-.298-2-.828l-8.172-8.172h-15" fill="#efbe9a"/></g><g><path d="m52 20v3l3.566.509c1.97.282 3.434 1.97 3.434 3.96v4.531h-20v-4.531c0-1.991 1.464-3.678 3.434-3.96l3.566-.509v-3" fill="#c7e2fc"/></g><g><path d="m46.5 29c4.173 0 7.766-2.208 9.459-5.397-.131-.032-.258-.074-.394-.093l-3.565-.51v-3h-6v3l-3.566.509c-1.571.224-2.805 1.348-3.247 2.8 1.891 1.663 4.468 2.691 7.313 2.691z" fill="#ebf7fe"/></g><g><path d="m40 12v-4c0-3.314 2.686-6 6-6h6c3.314 0 6 2.686 6 6v4" fill="#976947"/></g><g><path d="m51 7c0 1.657 1.343 3 3 3h1v5c0 3.314-2.686 6-6 6-3.314 0-6-2.686-6-6v-5h5c1.657 0 3-1.343 3-3z" fill="#efbe9a"/></g><g><path d="m55 12h2c1.105 0 2 .895 2 2 0 1.105-.895 2-2 2h-2" fill="#db9b7c"/></g><g><path d="m43 12h-2c-1.105 0-2 .895-2 2 0 1.105.895 2 2 2h2" fill="#db9b7c"/></g><g><path d="m46 20v3c0 1.657 1.343 3 3 3 1.657 0 3-1.343 3-3v-3" fill="#efbe9a"/></g><g><path d="m23 24h.838c1.888 0 3.565-1.208 4.162-3h-2c-1.105 0-2-.895-2-2v-3-4-4c0-3.314-2.686-6-6-6h-6c-3.314 0-6 2.686-6 6v4 4 3c0 1.105-.895 2-2 2h-2c.597 1.792 2.274 3 4.162 3h.838" fill="#976947"/></g><g><path d="m9 12h-2c-1.105 0-2 .895-2 2 0 1.105.895 2 2 2h2" fill="#db9b7c"/></g><g><path d="m18 20v3l3.566.509c1.97.282 3.434 1.97 3.434 3.96v4.531h-20v-4.531c0-1.991 1.464-3.678 3.434-3.96l3.566-.509v-3" fill="#4d5d7a"/></g><g><path d="m19 28h2v-4.571l-3-.429v-3h-6v3l-3 .429v4.571h2l-1 2 2 2h6l2-2z" fill="#8892a0"/></g><g><path d="m18 19v4l-3 9-3-9v-4" fill="#efbe9a"/></g><g><path d="m17 7c0 1.657 1.343 3 3 3h1v5c0 3.314-2.686 6-6 6-3.314 0-6-2.686-6-6v-5h5c1.657 0 3-1.343 3-3z" fill="#efbe9a"/></g><g><path d="m21 12h2c1.105 0 2 .895 2 2 0 1.105-.895 2-2 2h-2" fill="#db9b7c"/></g><g><path d="m9 17h-2c-1.654 0-3-1.346-3-3s1.346-3 3-3h2v2h-2c-.552 0-1 .448-1 1s.448 1 1 1h2z"/></g><g><path d="m1 35h62v2h-62z"/></g><g><path d="m45.172 57c-1.022 0-1.984-.398-2.707-1.121l-8.172-8.172 1.414-1.414 8.172 8.172c.34.34.811.535 1.293.535 1.008 0 1.828-.82 1.828-1.828 0-.481-.195-.953-.535-1.293l-9.879-9.879h-3.172l-4.879 4.879c-.723.723-1.684 1.121-2.707 1.121-2.11 0-3.828-1.718-3.828-3.828 0-1.022.398-1.984 1.121-2.707l6.172-6.172 1.414 1.414-6.172 6.172c-.34.34-.535.811-.535 1.293 0 1.008.82 1.828 1.828 1.828.481 0 .953-.195 1.293-.535l5.172-5.172c.187-.188.441-.293.707-.293h4c.266 0 .52.105.707.293l10.172 10.172c.723.723 1.121 1.684 1.121 2.707 0 2.11-1.718 3.828-3.828 3.828z"/></g><g><path d="m33.172 61c-1.022 0-1.984-.398-2.707-1.121l-6.172-6.172 1.414-1.414 6.172 6.172c.34.34.811.535 1.293.535 1.008 0 1.828-.82 1.828-1.828 0-.481-.195-.953-.535-1.293l1.414-1.414c.723.723 1.121 1.684 1.121 2.707 0 2.11-1.718 3.828-3.828 3.828z"/></g><g><path d="m27.172 63c-1.022 0-1.984-.398-2.707-1.121l-7.879-7.879h-15.586v-2h16c.266 0 .52.105.707.293l8.172 8.172c.34.34.811.535 1.293.535 1.008 0 1.828-.82 1.828-1.828 0-.481-.195-.953-.535-1.293l1.414-1.414c.723.723 1.121 1.684 1.121 2.707 0 2.11-1.718 3.828-3.828 3.828z"/></g><g><path d="m48 52h15v2h-15z"/></g><g><path d="m39.172 59c-1.022 0-1.984-.398-2.707-1.121l-7.172-7.172 1.414-1.414 7.172 7.172c.34.34.811.535 1.293.535 1.008 0 1.828-.82 1.828-1.828 0-.481-.195-.953-.535-1.293l1.414-1.414c.723.723 1.121 1.684 1.121 2.707 0 2.11-1.718 3.828-3.828 3.828z"/></g><g><path d="m15 22c-3.859 0-7-3.141-7-7v-5c0-.553.447-1 1-1h5c1.103 0 2-.897 2-2 0-.553.447-1 1-1s1 .447 1 1c0 1.103.897 2 2 2h1c.553 0 1 .447 1 1v5c0 3.859-3.141 7-7 7zm-5-11v4c0 2.757 2.243 5 5 5s5-2.243 5-5v-4c-1.193 0-2.267-.525-3-1.357-.733.832-1.807 1.357-3 1.357z"/></g><g><path d="m23 17h-2v-2h2c.552 0 1-.448 1-1s-.448-1-1-1h-2v-2h2c1.654 0 3 1.346 3 3s-1.346 3-3 3z"/></g><g><path d="m25 33h-20c-.553 0-1-.447-1-1v-4.531c0-2.472 1.846-4.6 4.293-4.949l2.707-.387v-2.133h2v3c0 .498-.366.92-.858.99l-3.566.51c-1.469.209-2.576 1.485-2.576 2.969v3.531h18v-3.531c0-1.483-1.107-2.76-2.576-2.969l-3.565-.51c-.493-.07-.859-.492-.859-.99v-3h2v2.133l2.707.387c2.447.349 4.293 2.477 4.293 4.949v4.531c0 .553-.447 1-1 1z"/></g><g><path d="m15 33c-.431 0-.812-.275-.948-.684l-3-9 1.896-.633 2.052 6.155 2.052-6.154 1.896.633-3 9c-.136.408-.517.683-.948.683z"/></g><g><path d="m11.293 32.707-2-2c-.305-.305-.38-.77-.188-1.154l.277-.553h-.382c-.553 0-1-.447-1-1v-4h2v3h1c.347 0 .668.18.851.475s.199.663.044.973l-.678 1.355 1.49 1.49z"/></g><g><path d="m18.707 32.707-1.414-1.414 1.49-1.49-.678-1.355c-.155-.31-.139-.678.044-.973s.504-.475.851-.475h1v-3h2v4c0 .553-.447 1-1 1h-.382l.276.553c.192.385.117.85-.188 1.154z"/></g><g><path d="m23.838 25h-.838v-2h.838c.925 0 1.782-.374 2.404-1h-.242c-1.654 0-3-1.346-3-3v-3h2v3c0 .552.448 1 1 1h2c.321 0 .623.154.812.415.188.261.239.597.137.901-.735 2.204-2.789 3.684-5.111 3.684z"/></g><g><path d="m7 25h-.838c-2.322 0-4.376-1.48-5.11-3.684-.103-.305-.051-.641.137-.901.188-.261.49-.415.811-.415h2c.552 0 1-.448 1-1v-3h2v3c0 1.654-1.346 3-3 3h-.242c.622.626 1.479 1 2.404 1h.838z"/></g><g><path d="m25 12h-2v-4c0-2.757-2.243-5-5-5h-6c-2.757 0-5 2.243-5 5v4h-2v-4c0-3.859 3.141-7 7-7h6c3.859 0 7 3.141 7 7z"/></g><g><path d="m49 22c-3.859 0-7-3.141-7-7v-5c0-.553.447-1 1-1h5c1.103 0 2-.897 2-2 0-.553.447-1 1-1s1 .447 1 1c0 1.103.897 2 2 2h1c.553 0 1 .447 1 1v5c0 3.859-3.141 7-7 7zm-5-11v4c0 2.757 2.243 5 5 5s5-2.243 5-5v-4c-1.193 0-2.267-.525-3-1.357-.733.832-1.807 1.357-3 1.357z"/></g><g><path d="m57 17h-2v-2h2c.552 0 1-.448 1-1s-.448-1-1-1h-2v-2h2c1.654 0 3 1.346 3 3s-1.346 3-3 3z"/></g><g><path d="m43 17h-2c-1.654 0-3-1.346-3-3s1.346-3 3-3h2v2h-2c-.552 0-1 .448-1 1s.448 1 1 1h2z"/></g><g><path d="m59 33h-20c-.553 0-1-.447-1-1v-4.531c0-2.472 1.846-4.6 4.293-4.949l2.707-.387v-2.133h2v3c0 .498-.366.92-.858.99l-3.565.51c-1.47.209-2.577 1.485-2.577 2.969v3.531h18v-3.531c0-1.483-1.107-2.76-2.576-2.969l-3.565-.51c-.493-.07-.859-.492-.859-.99v-3h2v2.133l2.707.387c2.447.349 4.293 2.477 4.293 4.949v4.531c0 .553-.447 1-1 1z"/></g><g><path d="m59 12h-2v-4c0-2.757-2.243-5-5-5h-6c-2.757 0-5 2.243-5 5v4h-2v-4c0-3.859 3.141-7 7-7h6c3.859 0 7 3.141 7 7z"/></g><g><path d="m49 27c-2.206 0-4-1.794-4-4h2c0 1.103.897 2 2 2s2-.897 2-2h2c0 2.206-1.794 4-4 4z"/></g></g></svg>