<svg height="512" viewBox="0 0 512 512" width="512" xmlns="http://www.w3.org/2000/svg"><g id="Fill_out_line" data-name="Fill out line"><path d="m464 312-48 72-96 40h-96l-56 56h-96l109.25-109.25a64.00452 64.00452 0 0 1 45.26-18.75h37.49a81.9343 81.9343 0 0 1 57.93994-24h22.06006l-40 40h24l56-16 2.01-2.52a99.92867 99.92867 0 0 1 77.99-37.48z" fill="#f4ceaf"/><path d="m32 496 112-112 88 88-24 24z" fill="#8acce7"/><path d="m152 96h256v208h-256z" fill="#eebe33"/><path d="m152 96h192v208h-192z" fill="#eedc9a"/><path d="m224 96h48v40h-48z" fill="#eebe33"/><path d="m256 232h64v48h-64z" fill="#eebe33"/><path d="m471.05005 308.23a7.98082 7.98082 0 0 0 -7.05005-4.23 107.94257 107.94257 0 0 0 -84.24 40.49l-.41992.52-52.4602 14.99h-3.55981l26.33984-26.34009a8.00435 8.00435 0 0 0 -5.65991-13.65991h-22.06006a90.00769 90.00769 0 0 0 -61.16994 24h-34.26a71.56754 71.56754 0 0 0 -50.91992 21.08984l-19.59008 19.59009-6.34009-6.34009a8.01523 8.01523 0 0 0 -11.31982 0l-104 104 11.31982 11.32007 98.34009-98.34985 76.68994 76.68994-10.34985 10.33984 11.31982 11.32007 16-16a8.01508 8.01508 0 0 0 0-11.32007l-22.33984-22.33984 11.99-12h92.68993a7.95225 7.95225 0 0 0 3.08008-.62012l96-40a7.97218 7.97218 0 0 0 3.57983-2.93994l48-72a7.9926 7.9926 0 0 0 .39014-8.20994zm-60.36011 69.32007-92.29004 38.44993h-94.3999a8.00745 8.00745 0 0 0 -5.65991 2.33984l-14.34009 14.34009-36.67993-36.67993 19.58984-19.59009a55.63629 55.63629 0 0 1 39.60009-16.40991h37.49a8.00769 8.00769 0 0 0 5.65991-2.34009 73.906 73.906 0 0 1 52.28003-21.65991h2.75l-42.34985 42.33984 11.31982 11.32007 13.66016-13.65991h20.67993a7.84822 7.84822 0 0 0 2.2-.31006l56-16a7.9078 7.9078 0 0 0 4.05-2.7l2-2.51a91.84023 91.84023 0 0 1 55.87012-33.08008z"/><path d="m408 88h-256a7.9979 7.9979 0 0 0 -8 8v208a7.9979 7.9979 0 0 0 8 8h256a7.9979 7.9979 0 0 0 8-8v-208a7.9979 7.9979 0 0 0 -8-8zm-176 16h32v24h-32zm-72 0h56v32a7.9979 7.9979 0 0 0 8 8h48a7.9979 7.9979 0 0 0 8-8v-32h56v192h-176zm240 192h-48v-192h48z"/><path d="m320 288h-64a8.00039 8.00039 0 0 1 -8-8v-48a8.00039 8.00039 0 0 1 8-8h64a8.00039 8.00039 0 0 1 8 8v48a8.00039 8.00039 0 0 1 -8 8zm-56-16h48v-32h-48z"/><path d="m272 16h16v32h-16z"/><path d="m115.999 51.029h16.001v33.941h-16.001z" transform="matrix(.707 -.707 .707 .707 -11.765 107.598)"/><path d="m96 184h32v16h-32z"/><path d="m427.029 59.999h33.941v16.001h-33.941z" transform="matrix(.707 -.707 .707 .707 81.961 333.872)"/><path d="m432 184h32v16h-32z"/></g></svg>