<?xml version="1.0" encoding="utf-8"?>
<!-- Generator: Adobe Illustrator 19.0.0, SVG Export Plug-In . SVG Version: 6.00 Build 0)  -->
<svg version="1.1" id="Layer_1" xmlns="http://www.w3.org/2000/svg" xmlns:xlink="http://www.w3.org/1999/xlink" x="0px" y="0px"
	 viewBox="0 0 512 512" style="enable-background:new 0 0 512 512;" xml:space="preserve">
<style type="text/css">
	.st0{fill:#FFFFFF;}
</style>
<g id="XMLID_1_">
	<g id="XMLID_20_">
		<path id="XMLID_2_" class="st0" d="M256.1,463.8c-114.3,0-207.3-93-207.3-207.3c0-114.3,93-207.3,207.3-207.3
			s207.3,93,207.3,207.3C463.4,370.8,370.4,463.8,256.1,463.8z M256.1,70.1c-102.8,0-186.4,83.6-186.4,186.4
			c0,102.8,83.6,186.4,186.4,186.4c102.8,0,186.4-83.6,186.4-186.4C442.5,153.7,358.9,70.1,256.1,70.1z"/>
	</g>
	<g id="XMLID_13_">
		<path id="XMLID_15_" class="st0" d="M355.9,189.8c6.5,11.1,6.2,25.1-1.2,35.6c-0.8,1.2-1.7,2.3-2.7,3.3
			c-34.7,35.6-70.1,70.6-105.3,105.7c-2,2-4.4,3.4-7.1,4.2c-21,5.8-42.1,11.3-63.2,16.9c-13.4,3.6-17.8-0.8-14.1-14.2
			c5.3-19.5,10.5-39.1,16.2-58.4c1.4-4.6,3.9-9.4,7.3-12.8c33.6-34,67.5-67.8,101.4-101.6c16.3-16.3,33.1-16.2,49.7,0.1
			c5.4,5.3,11.4,10.2,15.9,16.3C353.8,186.4,354.9,188.1,355.9,189.8z M238.5,318.4c28.4-28.3,56.6-56.4,84.3-84
			c-12.9-12.9-26-26-37.6-37.5c-27.6,27.6-56.1,56.1-84,83.9C213,292.7,226,305.7,238.5,318.4z M296.8,181.9
			c13.6,13.5,26.7,26.6,39.8,39.7c12.8-11.3,13.1-17.5,0.9-29.7c-3.8-3.8-7.6-7.6-11.4-11.4C314.6,168.9,307.3,169.3,296.8,181.9z
			 M179.7,338c15.5-4.2,28.6-7.8,40.9-11.2c-10.1-10.3-19.7-20.1-29.8-30.4C187.3,309.5,183.8,322.7,179.7,338z"/>
		<path id="XMLID_14_" class="st0" d="M243.4,283.7c-2.9-2.7-6.3-5.9-9.2-8.6c16.9-16.7,33.2-32.9,50.1-49.7
			c2.3,2.5,5.6,6.1,8.7,9.6C276.6,251,260.2,267.1,243.4,283.7z"/>
	</g>
</g>
</svg>
