<svg id="Layer_3" enable-background="new 0 0 64 64" height="512" viewBox="0 0 64 64" width="512" xmlns="http://www.w3.org/2000/svg"><g><g><path d="m46 62h-42c-1.105 0-2-.895-2-2v-54c0-1.105.895-2 2-2h42c1.105 0 2 .895 2 2v54c0 1.105-.895 2-2 2z" fill="#4d5d7a"/></g><g><path d="m18 46v12h26v-50h-38v38z" fill="#c7e2fc"/></g><g><path d="m15 20.5c0 16.845 11.864 30.5 26.5 30.5.844 0 1.677-.05 2.5-.139v-42.861h-26.671c-1.492 3.816-2.329 8.044-2.329 12.5z" fill="#ebf7fe"/></g><g><circle cx="50" cy="45" fill="#f5b953" r="12"/></g><g><circle cx="50" cy="45" fill="#fff" r="9"/></g><g><path d="m16 2h18v8h-18z" fill="#976947" transform="matrix(-1 0 0 -1 50 12)"/></g><g><path d="m32 14h8v8h-8z" fill="#8892a0" transform="matrix(-1 0 0 -1 72 36)"/></g><g><path d="m32 26h8v8h-8z" fill="#8892a0" transform="matrix(-1 0 0 -1 72 60)"/></g><g><path d="m6 46h12v12" fill="#8892a0"/></g><g><path d="m34 11h-18c-.552 0-1-.448-1-1v-8c0-.552.448-1 1-1h18c.552 0 1 .448 1 1v8c0 .552-.448 1-1 1zm-17-2h16v-6h-16z"/></g><g><path d="m49 33h-2v-27c0-.551-.449-1-1-1h-12v-2h12c1.654 0 3 1.346 3 3z"/></g><g><path d="m46 63h-42c-1.654 0-3-1.346-3-3v-54c0-1.654 1.346-3 3-3h12v2h-12c-.551 0-1 .449-1 1v54c0 .551.449 1 1 1h42c.551 0 1-.449 1-1v-3h2v3c0 1.654-1.346 3-3 3z"/></g><g><path d="m45 35h-2v-26h-9v-2h10c.552 0 1 .448 1 1z"/></g><g><path d="m44 59h-26c-.552 0-1-.448-1-1v-11h-11c-.552 0-1-.448-1-1v-38c0-.552.448-1 1-1h10v2h-9v36h11c.552 0 1 .448 1 1v11h24v-2h2v3c0 .552-.448 1-1 1z"/></g><g><path d="m11 43.515h2v16.971h-2z" transform="matrix(.707 -.707 .707 .707 -33.255 23.716)"/></g><g><path d="m40 23h-8c-.552 0-1-.448-1-1v-8c0-.552.448-1 1-1h8c.552 0 1 .448 1 1v8c0 .552-.448 1-1 1zm-7-2h6v-6h-6z"/></g><g><path d="m33.55 14.5h9.899v2h-9.899z" transform="matrix(.707 -.707 .707 .707 .316 31.764)"/></g><g><path d="m40 35h-8c-.552 0-1-.448-1-1v-8c0-.552.448-1 1-1h8c.552 0 1 .448 1 1v8c0 .552-.448 1-1 1zm-7-2h6v-6h-6z"/></g><g><path d="m33.55 26.5h9.899v2h-9.899z" transform="matrix(.707 -.707 .707 .707 -8.169 35.278)"/></g><g><path d="m27 13h2v2h-2z"/></g><g><path d="m9 13h16v2h-16z"/></g><g><path d="m9 17h2v2h-2z"/></g><g><path d="m13 17h16v2h-16z"/></g><g><path d="m27 25h2v2h-2z"/></g><g><path d="m9 25h16v2h-16z"/></g><g><path d="m9 29h2v2h-2z"/></g><g><path d="m13 29h16v2h-16z"/></g><g><path d="m27 37h2v2h-2z"/></g><g><path d="m9 37h16v2h-16z"/></g><g><path d="m9 41h2v2h-2z"/></g><g><path d="m13 41h16v2h-16z"/></g><g><path d="m50 52c-2.206 0-4-1.794-4-4h2c0 1.103.897 2 2 2s2-.897 2-2-.897-2-2-2c-2.206 0-4-1.794-4-4s1.794-4 4-4 4 1.794 4 4h-2c0-1.103-.897-2-2-2s-2 .897-2 2 .897 2 2 2c2.206 0 4 1.794 4 4s-1.794 4-4 4z"/></g><g><path d="m49 36h2v3h-2z"/></g><g><path d="m49 51h2v3h-2z"/></g><g><path d="m50 58c-7.168 0-13-5.832-13-13s5.832-13 13-13 13 5.832 13 13-5.832 13-13 13zm0-24c-6.065 0-11 4.935-11 11s4.935 11 11 11 11-4.935 11-11-4.935-11-11-11z"/></g></g></svg>