<svg id="Layer_3" enable-background="new 0 0 64 64" height="512" viewBox="0 0 64 64" width="512" xmlns="http://www.w3.org/2000/svg"><g><g><path d="m2 32h60v4h-60z" fill="#4d5d7a"/></g><g><path d="m4 36v26h4v-4h48v4h4v-26" fill="#8892a0"/></g><g><path d="m41 13v-4c0-1.657-1.343-3-3-3v-1c0-1.657-1.343-3-3-3h-9c-1.657 0-3 1.343-3 3v8" fill="#976947"/></g><g><path d="m42 32v-4.531c0-1.991-1.464-3.678-3.434-3.96l-3.566-.509v-3h-6v3l-3.566.509c-1.97.282-3.434 1.97-3.434 3.96v4.531" fill="#2b74ca"/></g><g><path d="m29 23-3 .429v4.571h2l-1 2 2 2h3z" fill="#3d98f7"/></g><g><path d="m35 23 3 .429v4.571h-2l1 2-2 2h-3z" fill="#3d98f7"/></g><g><path d="m35 19v4l-3 9-3-9v-4" fill="#efbe9a"/></g><g><path d="m38 12h2c1.105 0 2 .895 2 2 0 1.105-.895 2-2 2h-2" fill="#db9b7c"/></g><g><path d="m26 12h-2c-1.105 0-2 .895-2 2 0 1.105.895 2 2 2h2" fill="#db9b7c"/></g><g><path d="m34 7c0 1.657 1.343 3 3 3h1v5c0 3.314-2.686 6-6 6-3.314 0-6-2.686-6-6v-5h5c1.657 0 3-1.343 3-3z" fill="#efbe9a"/></g><g><path d="m62 37h-60c-.552 0-1-.448-1-1v-4c0-.552.448-1 1-1h60c.552 0 1 .448 1 1v4c0 .552-.448 1-1 1zm-59-2h58v-2h-58z"/></g><g><path d="m60 63h-4c-.552 0-1-.448-1-1v-3h-46v3c0 .552-.448 1-1 1h-4c-.552 0-1-.448-1-1v-26h2v25h2v-3c0-.552.448-1 1-1h48c.552 0 1 .448 1 1v3h2v-25h2v26c0 .552-.448 1-1 1z"/></g><g><path d="m32 22c-3.86 0-7-3.14-7-7v-5c0-.552.448-1 1-1h5c1.103 0 2-.897 2-2 0-.552.448-1 1-1s1 .448 1 1c0 1.103.897 2 2 2h1c.552 0 1 .448 1 1v5c0 3.86-3.14 7-7 7zm-5-11v4c0 2.757 2.243 5 5 5s5-2.243 5-5v-4c-1.193 0-2.267-.525-3-1.357-.733.832-1.807 1.357-3 1.357z"/></g><g><path d="m40 17h-2v-2h2c.551 0 1-.449 1-1s-.449-1-1-1h-2v-2h2c1.654 0 3 1.346 3 3s-1.346 3-3 3z"/></g><g><path d="m26 17h-2c-1.654 0-3-1.346-3-3s1.346-3 3-3h2v2h-2c-.551 0-1 .449-1 1s.449 1 1 1h2z"/></g><g><path d="m42 12h-2v-3c0-1.103-.897-2-2-2-.552 0-1-.448-1-1v-1c0-1.103-.897-2-2-2h-9c-1.103 0-2 .897-2 2v7h-2v-7c0-2.206 1.794-4 4-4h9c2.206 0 4 1.794 4 4v.126c1.723.446 3 2.014 3 3.874z"/></g><g><path d="m42 33h-20c-.552 0-1-.448-1-1v-4.531c0-2.472 1.845-4.6 4.292-4.95l2.708-.386v-2.133h2v3c0 .498-.366.919-.858.99l-3.566.509c-1.469.21-2.576 1.487-2.576 2.97v3.531h18v-3.531c0-1.483-1.107-2.76-2.576-2.97l-3.566-.509c-.492-.071-.858-.492-.858-.99v-3h2v2.133l2.708.387c2.447.35 4.292 2.478 4.292 4.95v4.53c0 .552-.448 1-1 1z"/></g><g><path d="m32 33c-.431 0-.812-.275-.949-.684l-3-9 1.897-.633 2.052 6.155 2.051-6.154 1.897.633-3 9c-.136.408-.517.683-.948.683z"/></g><g><path d="m28.293 32.707-2-2c-.304-.304-.38-.769-.188-1.154l.277-.553h-.382c-.552 0-1-.448-1-1v-4h2v3h1c.347 0 .668.18.851.474.182.295.199.663.044.973l-.678 1.355 1.49 1.49z"/></g><g><path d="m35.707 32.707-1.414-1.414 1.49-1.49-.678-1.355c-.155-.31-.138-.678.044-.973.183-.295.504-.475.851-.475h1v-3h2v4c0 .552-.448 1-1 1h-.382l.276.553c.192.385.117.85-.188 1.154z"/></g></g></svg>