<svg id="Layer_3" enable-background="new 0 0 64 64" height="512" viewBox="0 0 64 64" width="512" xmlns="http://www.w3.org/2000/svg"><g><g><path d="m47 50h-36v-48h26v10h10z" fill="#c7e2fc"/></g><g><path d="m37 2h-11.339c-4.725 4.447-7.661 10.643-7.661 17.5 0 13.531 11.417 24.5 25.5 24.5 1.188 0 2.355-.084 3.5-.235v-31.765h-10z" fill="#ebf7fe"/></g><g><path d="m47 12h-10v-10" fill="#8892a0"/></g><g><path d="m44 24-2-4h6l-2 4" fill="#976947"/></g><g><path d="m51 36v-6c0-3.314-2.686-6-6-6s-6 2.686-6 6v6c-1.105 0-2 .895-2 2s.895 2 2 2h12c1.105 0 2-.895 2-2s-.895-2-2-2z" fill="#976947"/></g><g><path d="m41 38c4.418 0 8-3.806 8-8.5 0-1.85-.563-3.557-1.507-4.953-.76-.348-1.602-.547-2.493-.547-3.314 0-6 2.686-6 6v6c-.745 0-1.387.412-1.731 1.016 1.114.626 2.383.984 3.731.984z" fill="#c18e59"/></g><g><path d="m35 46-2-4h6l-2 4" fill="#976947"/></g><g><path d="m42 58v-6c0-3.314-2.686-6-6-6s-6 2.686-6 6v6c-1.105 0-2 .895-2 2s.895 2 2 2h12c1.105 0 2-.895 2-2s-.895-2-2-2z" fill="#976947"/></g><g><path d="m32 60c4.418 0 8-3.806 8-8.5 0-1.85-.563-3.557-1.507-4.953-.76-.348-1.602-.547-2.493-.547-3.314 0-6 2.686-6 6v6c-.745 0-1.387.412-1.731 1.016 1.114.626 2.383.984 3.731.984z" fill="#c18e59"/></g><g><path d="m53 46-2-4h6l-2 4" fill="#976947"/></g><g><path d="m60 58v-6c0-3.314-2.686-6-6-6s-6 2.686-6 6v6c-1.105 0-2 .895-2 2s.895 2 2 2h12c1.105 0 2-.895 2-2s-.895-2-2-2z" fill="#976947"/></g><g><path d="m50 60c4.418 0 8-3.806 8-8.5 0-1.85-.563-3.557-1.507-4.953-.76-.348-1.602-.547-2.493-.547-3.314 0-6 2.686-6 6v6c-.745 0-1.387.412-1.731 1.016 1.114.626 2.383.984 3.731.984z" fill="#c18e59"/></g><g><path d="m2 54h3l4 2h11c1.105 0 2-.895 2-2v-10-2c0-1.105-.895-2-2-2h-9v-4h-2l-4 4h-3" fill="#efbe9a"/></g><g><path d="m1 37h2v20h-2z"/></g><g><path d="m20 57h-11c-.155 0-.309-.036-.447-.105l-3.789-1.895h-2.764v-2h3c.155 0 .309.036.447.105l3.789 1.895h10.764c.551 0 1-.449 1-1v-1h-8v-2h9c.552 0 1 .448 1 1v2c0 1.654-1.346 3-3 3z"/></g><g><path d="m22 53h-9v-2h8v-2h-8v-2h9c.552 0 1 .448 1 1v4c0 .552-.448 1-1 1z"/></g><g><path d="m22 49h-9v-2h8v-2h-8v-2h9c.552 0 1 .448 1 1v4c0 .552-.448 1-1 1z"/></g><g><path d="m5 41h-3v-2h2.586l3.707-3.707c.187-.188.442-.293.707-.293h2v2h-1.586l-3.707 3.707c-.187.188-.442.293-.707.293z"/></g><g><path d="m22 45h-9v-2h8v-1c0-.551-.449-1-1-1h-9v-2h9c1.654 0 3 1.346 3 3v2c0 .552-.448 1-1 1z"/></g><g><path d="m41-.071h2v14.142h-2z" transform="matrix(.707 -.707 .707 .707 7.352 31.749)"/></g><g><path d="m14 5h2v2h-2z"/></g><g><path d="m18 5h16v2h-16z"/></g><g><path d="m32 9h2v2h-2z"/></g><g><path d="m14 9h16v2h-16z"/></g><g><path d="m14 13h2v2h-2z"/></g><g><path d="m18 13h16v2h-16z"/></g><g><path d="m14 17h22v2h-22z"/></g><g><path d="m14 21h2v2h-2z"/></g><g><path d="m18 21h18v2h-18z"/></g><g><path d="m14 25h22v2h-22z"/></g><g><path d="m12 38h-2v-36c0-.552.448-1 1-1h26c.552 0 1 .448 1 1v9h9c.552 0 1 .448 1 1v5h-2v-4h-9c-.552 0-1-.448-1-1v-9h-24z"/></g><g><path d="m47 51h-5v-2h4v-9h2v10c0 .552-.448 1-1 1z"/></g><g><path d="m22 49h8v2h-8z"/></g><g><path d="m38 57h-5v-2h2.586l-2.293-2.293c-.286-.286-.372-.716-.217-1.09.155-.373.52-.617.924-.617h5v2h-2.586l2.293 2.293c.286.286.372.716.217 1.09-.155.373-.52.617-.924.617z"/></g><g><path d="m35 49h2v3h-2z"/></g><g><path d="m35 56h2v3h-2z"/></g><g><path d="m43 58h-2v-6c0-2.757-2.243-5-5-5s-5 2.243-5 5v6h-2v-6c0-3.86 3.14-7 7-7s7 3.14 7 7z"/></g><g><path d="m42 63h-12c-1.654 0-3-1.346-3-3s1.346-3 3-3h2v2h-2c-.551 0-1 .449-1 1s.449 1 1 1h12c.551 0 1-.449 1-1s-.449-1-1-1h-2v-2h2c1.654 0 3 1.346 3 3s-1.346 3-3 3z"/></g><g><path d="m37.895 46.447-1.789-.895 1.276-2.552h-2.764l1.276 2.553-1.789.895-2-4c-.155-.31-.138-.678.044-.973.183-.295.504-.475.851-.475h6c.347 0 .668.18.851.474.182.295.199.663.044.973z"/></g><g><path d="m56 57h-5v-2h2.586l-2.293-2.293c-.286-.286-.372-.716-.217-1.09.155-.373.52-.617.924-.617h5v2h-2.586l2.293 2.293c.286.286.372.716.217 1.09-.155.373-.52.617-.924.617z"/></g><g><path d="m53 49h2v3h-2z"/></g><g><path d="m53 56h2v3h-2z"/></g><g><path d="m61 58h-2v-6c0-2.757-2.243-5-5-5s-5 2.243-5 5v6h-2v-6c0-3.86 3.14-7 7-7s7 3.14 7 7z"/></g><g><path d="m60 63h-12c-1.654 0-3-1.346-3-3s1.346-3 3-3h2v2h-2c-.551 0-1 .449-1 1s.449 1 1 1h12c.551 0 1-.449 1-1s-.449-1-1-1h-2v-2h2c1.654 0 3 1.346 3 3s-1.346 3-3 3z"/></g><g><path d="m55.895 46.447-1.789-.895 1.276-2.552h-2.764l1.276 2.553-1.789.895-2-4c-.155-.31-.138-.678.044-.973.183-.295.504-.475.851-.475h6c.347 0 .668.18.851.474.182.295.199.663.044.973z"/></g><g><path d="m47 35h-5v-2h2.586l-2.293-2.293c-.286-.286-.372-.716-.217-1.09.155-.373.52-.617.924-.617h5v2h-2.586l2.293 2.293c.286.286.372.716.217 1.09-.155.373-.52.617-.924.617z"/></g><g><path d="m44 27h2v3h-2z"/></g><g><path d="m44 34h2v3h-2z"/></g><g><path d="m52 36h-2v-6c0-2.757-2.243-5-5-5s-5 2.243-5 5v6h-2v-6c0-3.86 3.14-7 7-7s7 3.14 7 7z"/></g><g><path d="m51 41h-12c-1.654 0-3-1.346-3-3s1.346-3 3-3h2v2h-2c-.551 0-1 .449-1 1s.449 1 1 1h12c.551 0 1-.449 1-1s-.449-1-1-1h-2v-2h2c1.654 0 3 1.346 3 3s-1.346 3-3 3z"/></g><g><path d="m46.895 24.447-1.789-.895 1.276-2.552h-2.764l1.276 2.553-1.789.895-2-4c-.155-.31-.138-.678.044-.973.183-.295.504-.475.851-.475h6c.347 0 .668.18.851.474.182.295.199.663.044.973z"/></g></g></svg>