<svg id="Layer_3" enable-background="new 0 0 64 64" height="512" viewBox="0 0 64 64" width="512" xmlns="http://www.w3.org/2000/svg"><g><g><path d="m53 42c-2.761 0-5-2.239-5-5v-2c0-2.761 2.239-5 5-5 2.761 0 5 2.239 5 5v2c0 2.761-2.239 5-5 5z" fill="#efbe9a"/></g><g><path d="m34 16 .633 1.267c.838 1.675 2.55 2.733 4.423 2.733 2.73 0 4.944 2.214 4.944 4.944v7.056h-24v-7.056c0-2.73 2.214-4.944 4.944-4.944 1.873 0 3.585-1.058 4.422-2.733l.634-1.267" fill="#3d98f7"/></g><g><path d="m32.515 21c1.535 0 3.006-.593 4.119-1.645-.844-.475-1.55-1.189-2-2.088l-.634-1.267h-4l-.633 1.267c-.45.9-1.156 1.613-2 2.088 1.112 1.052 2.583 1.645 4.118 1.645z" fill="#efbe9a"/></g><g><path d="m32 16c3.314 0 6-2.686 6-6v-2c0-3.314-2.686-6-6-6-3.314 0-6 2.686-6 6v2c0 3.314 2.686 6 6 6z" fill="#efbe9a"/></g><g><path d="m13 42c.613 1.226 1.866 2 3.236 2h.146c1.998 0 3.618 1.62 3.618 3.618v4.382h-18v-4.382c0-1.998 1.62-3.618 3.618-3.618h.146c1.37 0 2.623-.774 3.236-2" fill="#669e4f"/></g><g><path d="m7 44 .586.586c.905.905 2.133 1.414 3.414 1.414s2.509-.509 3.414-1.414l.586-.586.122-.183c-.908-.294-1.682-.936-2.122-1.817h-4c-.44.881-1.214 1.523-2.122 1.817z" fill="#efbe9a"/></g><g><path d="m11 42c-2.761 0-5-2.239-5-5v-2c0-2.761 2.239-5 5-5 2.761 0 5 2.239 5 5v2c0 2.761-2.239 5-5 5z" fill="#efbe9a"/></g><g><path d="m55 42c.613 1.226 1.866 2 3.236 2h.146c1.998 0 3.618 1.62 3.618 3.618v4.382h-18v-4.382c0-1.998 1.62-3.618 3.618-3.618h.146c1.37 0 2.623-.774 3.236-2" fill="#669e4f"/></g><g><path d="m49 44 .586.586c.905.905 2.133 1.414 3.414 1.414s2.509-.509 3.414-1.414l.586-.586.122-.183c-.908-.294-1.682-.936-2.122-1.817h-4c-.44.881-1.214 1.523-2.122 1.817z" fill="#efbe9a"/></g><g><path d="m53 42c-2.761 0-5-2.239-5-5v-2c0-2.761 2.239-5 5-5 2.761 0 5 2.239 5 5v2c0 2.761-2.239 5-5 5z" fill="#efbe9a"/></g><g><path d="m32 17c-3.859 0-7-3.14-7-7v-2c0-3.86 3.141-7 7-7s7 3.14 7 7v2c0 3.86-3.141 7-7 7zm0-14c-2.757 0-5 2.243-5 5v2c0 2.757 2.243 5 5 5s5-2.243 5-5v-2c0-2.757-2.243-5-5-5z"/></g><g><path d="m44 33h-24c-.553 0-1-.448-1-1v-7.056c0-3.277 2.667-5.944 5.944-5.944 1.504 0 2.855-.835 3.527-2.18l.634-1.268 1.789.895-.634 1.267c-1.012 2.027-3.049 3.286-5.316 3.286-2.174 0-3.944 1.77-3.944 3.944v6.056h22v-6.056c0-2.174-1.77-3.944-3.944-3.944-2.267 0-4.304-1.259-5.316-3.286l-.634-1.267 1.789-.895.634 1.267c.671 1.346 2.023 2.181 3.527 2.181 3.277 0 5.944 2.667 5.944 5.944v7.056c0 .552-.447 1-1 1z"/></g><g><path d="m37 25h2v7h-2z"/></g><g><path d="m25 25h2v7h-2z"/></g><g><path d="m32.515 22h-1.029c-1.79 0-3.497-.681-4.806-1.918l1.373-1.454c.936.885 2.155 1.372 3.432 1.372h1.029c1.277 0 2.496-.487 3.433-1.372l1.373 1.454c-1.308 1.237-3.015 1.918-4.805 1.918z"/></g><g><path d="m11 43c-3.309 0-6-2.691-6-6v-2c0-3.309 2.691-6 6-6s6 2.691 6 6v2c0 3.309-2.691 6-6 6zm0-12c-2.206 0-4 1.794-4 4v2c0 2.206 1.794 4 4 4s4-1.794 4-4v-2c0-2.206-1.794-4-4-4z"/></g><g><path d="m20 53h-18c-.553 0-1-.448-1-1v-4.382c0-2.546 2.071-4.618 4.618-4.618h.146c.998 0 1.896-.555 2.342-1.447l1.789.895c-.789 1.574-2.372 2.552-4.131 2.552h-.146c-1.443 0-2.618 1.174-2.618 2.618v3.382h16v-3.382c0-1.444-1.175-2.618-2.618-2.618h-.146c-1.76 0-3.343-.978-4.131-2.553l1.789-.895c.447.893 1.344 1.448 2.342 1.448h.146c2.547 0 4.618 2.072 4.618 4.618v4.382c0 .552-.447 1-1 1z"/></g><g><path d="m15 49h2v3h-2z"/></g><g><path d="m5 49h2v3h-2z"/></g><g><path d="m11 47c-1.534 0-3.036-.622-4.121-1.707l-.586-.586 1.414-1.414.586.586c.713.712 1.699 1.121 2.707 1.121s1.994-.409 2.707-1.121l.586-.586 1.414 1.414-.586.586c-1.085 1.085-2.587 1.707-4.121 1.707z"/></g><g><path d="m53 43c-3.309 0-6-2.691-6-6v-2c0-3.309 2.691-6 6-6s6 2.691 6 6v2c0 3.309-2.691 6-6 6zm0-12c-2.206 0-4 1.794-4 4v2c0 2.206 1.794 4 4 4s4-1.794 4-4v-2c0-2.206-1.794-4-4-4z"/></g><g><path d="m62 53h-18c-.553 0-1-.448-1-1v-4.382c0-2.546 2.071-4.618 4.618-4.618h.146c.998 0 1.896-.555 2.342-1.447l1.789.895c-.789 1.574-2.372 2.552-4.131 2.552h-.146c-1.443 0-2.618 1.174-2.618 2.618v3.382h16v-3.382c0-1.444-1.175-2.618-2.618-2.618h-.146c-1.76 0-3.343-.978-4.131-2.553l1.789-.895c.447.893 1.344 1.448 2.342 1.448h.146c2.547 0 4.618 2.072 4.618 4.618v4.382c0 .552-.447 1-1 1z"/></g><g><path d="m57 49h2v3h-2z"/></g><g><path d="m47 49h2v3h-2z"/></g><g><path d="m53 47c-1.534 0-3.036-.622-4.121-1.707l-.586-.586 1.414-1.414.586.586c.713.712 1.699 1.121 2.707 1.121s1.994-.409 2.707-1.121l.586-.586 1.414 1.414-.586.586c-1.085 1.085-2.587 1.707-4.121 1.707z"/></g><g><path d="m31 32h2v16h-2z"/></g><g><path d="m20 47h24v2h-24z"/></g><g><path d="m10 52h2v6h-2z"/></g><g><path d="m19 63h-2v-4h-12v4h-2v-5c0-.552.447-1 1-1h14c.553 0 1 .448 1 1z"/></g><g><path d="m52 52h2v6h-2z"/></g><g><path d="m61 63h-2v-4h-12v4h-2v-5c0-.552.447-1 1-1h14c.553 0 1 .448 1 1z"/></g></g></svg>