<svg id="Layer_3" enable-background="new 0 0 64 64" height="512" viewBox="0 0 64 64" width="512" xmlns="http://www.w3.org/2000/svg"><g><g><path d="m38 62v-46h22v46" fill="#3d98f7"/></g><g><path d="m44 56h10v6h-10z" fill="#f5b953"/></g><g><path d="m26 42h12v20h-12z" fill="#2b74ca"/></g><g><path d="m4 62v-31h22v31" fill="#3d98f7"/></g><g><path d="m42 24h4v4h-4z" fill="#fff"/></g><g><path d="m52 24h4v4h-4z" fill="#fff"/></g><g><path d="m42 32h4v4h-4z" fill="#fff"/></g><g><path d="m52 32h4v4h-4z" fill="#fff"/></g><g><path d="m42 40h4v4h-4z" fill="#fff"/></g><g><path d="m52 40h4v4h-4z" fill="#fff"/></g><g><path d="m42 48h4v4h-4z" fill="#fff"/></g><g><path d="m52 48h4v4h-4z" fill="#fff"/></g><g><path d="m8 35h4v4h-4z" fill="#fff"/></g><g><path d="m18 35h4v4h-4z" fill="#fff"/></g><g><path d="m8 43h4v4h-4z" fill="#fff"/></g><g><path d="m18 43h4v4h-4z" fill="#fff"/></g><g><path d="m8 51h4v4h-4z" fill="#fff"/></g><g><path d="m18 51h4v4h-4z" fill="#fff"/></g><g><path d="m40 16v-4h18v4" fill="#f5b953"/></g><g><path d="m6 31v-4h18v4" fill="#f5b953"/></g><g><ellipse cx="44" cy="5" fill="#669e4f" rx="2" ry="3"/></g><g><ellipse cx="54" cy="5" fill="#669e4f" rx="2" ry="3"/></g><g><path d="m1 61h62v2h-62z"/></g><g><path d="m61 62h-2v-45h-20v45h-2v-46c0-.552.447-1 1-1h22c.553 0 1 .448 1 1z"/></g><g><path d="m59 16h-2v-3h-16v3h-2v-4c0-.552.447-1 1-1h18c.553 0 1 .448 1 1z"/></g><g><path d="m27 62h-2v-30h-20v30h-2v-31c0-.552.447-1 1-1h22c.553 0 1 .448 1 1z"/></g><g><path d="m25 31h-2v-3h-16v3h-2v-4c0-.552.447-1 1-1h18c.553 0 1 .448 1 1z"/></g><g><path d="m26 41h12v2h-12z"/></g><g><path d="m29 45h2v2h-2z"/></g><g><path d="m33 45h2v2h-2z"/></g><g><path d="m29 49h2v2h-2z"/></g><g><path d="m33 49h2v2h-2z"/></g><g><path d="m29 53h2v2h-2z"/></g><g><path d="m33 53h2v2h-2z"/></g><g><path d="m29 57h2v2h-2z"/></g><g><path d="m33 57h2v2h-2z"/></g><g><path d="m46 29h-4c-.553 0-1-.448-1-1v-4c0-.552.447-1 1-1h4c.553 0 1 .448 1 1v4c0 .552-.447 1-1 1zm-3-2h2v-2h-2z"/></g><g><path d="m56 29h-4c-.553 0-1-.448-1-1v-4c0-.552.447-1 1-1h4c.553 0 1 .448 1 1v4c0 .552-.447 1-1 1zm-3-2h2v-2h-2z"/></g><g><path d="m46 37h-4c-.553 0-1-.448-1-1v-4c0-.552.447-1 1-1h4c.553 0 1 .448 1 1v4c0 .552-.447 1-1 1zm-3-2h2v-2h-2z"/></g><g><path d="m56 37h-4c-.553 0-1-.448-1-1v-4c0-.552.447-1 1-1h4c.553 0 1 .448 1 1v4c0 .552-.447 1-1 1zm-3-2h2v-2h-2z"/></g><g><path d="m46 45h-4c-.553 0-1-.448-1-1v-4c0-.552.447-1 1-1h4c.553 0 1 .448 1 1v4c0 .552-.447 1-1 1zm-3-2h2v-2h-2z"/></g><g><path d="m56 45h-4c-.553 0-1-.448-1-1v-4c0-.552.447-1 1-1h4c.553 0 1 .448 1 1v4c0 .552-.447 1-1 1zm-3-2h2v-2h-2z"/></g><g><path d="m46 53h-4c-.553 0-1-.448-1-1v-4c0-.552.447-1 1-1h4c.553 0 1 .448 1 1v4c0 .552-.447 1-1 1zm-3-2h2v-2h-2z"/></g><g><path d="m56 53h-4c-.553 0-1-.448-1-1v-4c0-.552.447-1 1-1h4c.553 0 1 .448 1 1v4c0 .552-.447 1-1 1zm-3-2h2v-2h-2z"/></g><g><path d="m12 40h-4c-.553 0-1-.448-1-1v-4c0-.552.447-1 1-1h4c.553 0 1 .448 1 1v4c0 .552-.447 1-1 1zm-3-2h2v-2h-2z"/></g><g><path d="m22 40h-4c-.553 0-1-.448-1-1v-4c0-.552.447-1 1-1h4c.553 0 1 .448 1 1v4c0 .552-.447 1-1 1zm-3-2h2v-2h-2z"/></g><g><path d="m12 48h-4c-.553 0-1-.448-1-1v-4c0-.552.447-1 1-1h4c.553 0 1 .448 1 1v4c0 .552-.447 1-1 1zm-3-2h2v-2h-2z"/></g><g><path d="m22 48h-4c-.553 0-1-.448-1-1v-4c0-.552.447-1 1-1h4c.553 0 1 .448 1 1v4c0 .552-.447 1-1 1zm-3-2h2v-2h-2z"/></g><g><path d="m12 56h-4c-.553 0-1-.448-1-1v-4c0-.552.447-1 1-1h4c.553 0 1 .448 1 1v4c0 .552-.447 1-1 1zm-3-2h2v-2h-2z"/></g><g><path d="m22 56h-4c-.553 0-1-.448-1-1v-4c0-.552.447-1 1-1h4c.553 0 1 .448 1 1v4c0 .552-.447 1-1 1zm-3-2h2v-2h-2z"/></g><g><path d="m55 62h-2v-5h-8v5h-2v-6c0-.552.447-1 1-1h10c.553 0 1 .448 1 1z"/></g><g><path d="m44 9c-1.683 0-3-1.757-3-4s1.317-4 3-4 3 1.757 3 4-1.317 4-3 4zm0-6c-.408 0-1 .779-1 2s.592 2 1 2 1-.779 1-2-.592-2-1-2z"/></g><g><path d="m43 8h2v4h-2z"/></g><g><path d="m54 9c-1.683 0-3-1.757-3-4s1.317-4 3-4 3 1.757 3 4-1.317 4-3 4zm0-6c-.408 0-1 .779-1 2s.592 2 1 2 1-.779 1-2-.592-2-1-2z"/></g><g><path d="m53 8h2v4h-2z"/></g><g><path d="m41 19h16v2h-16z"/></g></g></svg>