<svg id="Layer_3" enable-background="new 0 0 64 64" height="512" viewBox="0 0 64 64" width="512" xmlns="http://www.w3.org/2000/svg"><g><g><path d="m44 36v-24h-10v-10h-32v52h8" fill="#c7e2fc"/></g><g><path d="m34 2h-10.742c-6.261 4.86-10.258 12.238-10.258 20.5 0 9.645 5.446 18.084 13.585 22.72l17.415-9.22v-24h-10z" fill="#ebf7fe"/></g><g><path d="m44 12h-10v-10" fill="#8892a0"/></g><g><path d="m10 36h52v26h-52z" fill="#669e4f"/></g><g><path d="m53 58h-34c0-2.761-2.239-5-5-5v-8c2.761 0 5-2.239 5-5h34c0 2.761 2.239 5 5 5v8c-2.761 0-5 2.239-5 5z" fill="#96cc7f"/></g><g><circle cx="20" cy="49" fill="#fff" r="2"/></g><g><circle cx="52" cy="49" fill="#fff" r="2"/></g><g><path d="m23 5h2v2h-2z"/></g><g><path d="m5 5h16v2h-16z"/></g><g><path d="m5 9h2v2h-2z"/></g><g><path d="m9 9h16v2h-16z"/></g><g><path d="m23 15h2v2h-2z"/></g><g><path d="m5 15h16v2h-16z"/></g><g><path d="m5 19h2v2h-2z"/></g><g><path d="m9 19h16v2h-16z"/></g><g><path d="m23 25h2v2h-2z"/></g><g><path d="m5 25h16v2h-16z"/></g><g><path d="m5 29h2v2h-2z"/></g><g><path d="m9 29h16v2h-16z"/></g><g><path d="m10 55h-8c-.552 0-1-.448-1-1v-52c0-.552.448-1 1-1h32c.552 0 1 .448 1 1v9h9c.552 0 1 .448 1 1v24h-2v-23h-9c-.552 0-1-.448-1-1v-9h-30v50h7z"/></g><g><path d="m38-.071h2v14.142h-2z" transform="matrix(.707 -.707 .707 .707 6.473 29.627)"/></g><g><path d="m53 59h-34c-.552 0-1-.448-1-1 0-2.206-1.794-4-4-4-.552 0-1-.448-1-1v-8c0-.552.448-1 1-1 2.206 0 4-1.794 4-4 0-.552.448-1 1-1h34c.552 0 1 .448 1 1 0 2.206 1.794 4 4 4 .552 0 1 .448 1 1v8c0 .552-.448 1-1 1-2.206 0-4 1.794-4 4 0 .552-.448 1-1 1zm-33.083-2h32.167c.422-2.509 2.408-4.494 4.917-4.917v-6.167c-2.509-.422-4.494-2.408-4.917-4.917h-32.167c-.422 2.509-2.408 4.494-4.917 4.917v6.167c2.509.423 4.494 2.408 4.917 4.917z"/></g><g><path d="m62 63h-52c-.552 0-1-.448-1-1v-26c0-.552.448-1 1-1h52c.552 0 1 .448 1 1v26c0 .552-.448 1-1 1zm-51-2h50v-24h-50z"/></g><g><path d="m57 39h2v2h-2z"/></g><g><path d="m57 57h2v2h-2z"/></g><g><path d="m13 39h2v2h-2z"/></g><g><path d="m13 57h2v2h-2z"/></g><g><path d="m20 52c-1.654 0-3-1.346-3-3s1.346-3 3-3 3 1.346 3 3-1.346 3-3 3zm0-4c-.551 0-1 .449-1 1s.449 1 1 1 1-.449 1-1-.449-1-1-1z"/></g><g><path d="m52 52c-1.654 0-3-1.346-3-3s1.346-3 3-3 3 1.346 3 3-1.346 3-3 3zm0-4c-.551 0-1 .449-1 1s.449 1 1 1 1-.449 1-1-.449-1-1-1z"/></g><g><path d="m36 56c-2.206 0-4-1.794-4-4h2c0 1.103.897 2 2 2s2-.897 2-2-.897-2-2-2c-2.206 0-4-1.794-4-4s1.794-4 4-4 4 1.794 4 4h-2c0-1.103-.897-2-2-2s-2 .897-2 2 .897 2 2 2c2.206 0 4 1.794 4 4s-1.794 4-4 4z"/></g><g><path d="m35 40h2v3h-2z"/></g><g><path d="m35 55h2v3h-2z"/></g></g></svg>