<svg id="Layer_3" enable-background="new 0 0 64 64" height="512" viewBox="0 0 64 64" width="512" xmlns="http://www.w3.org/2000/svg"><g><g><path d="m62 60h-42v-58h32v10h10z" fill="#c7e2fc"/></g><g><path d="m52 2h-20.324c-2.95 5.129-4.676 11.325-4.676 18 0 17.673 12.088 32 27 32 2.785 0 5.472-.501 8-1.429v-38.571h-10z" fill="#ebf7fe"/></g><g><path d="m24 6h24v14h-24z" fill="#fff"/></g><g><path d="m52 2v10h10" fill="#8892a0"/></g><g><circle cx="35" cy="47" fill="#f9d18b" r="9"/></g><g><circle cx="49" cy="47" fill="#f5b953" r="9"/></g><g><path d="m17 51h1.394c2.253 0 4.356-1.126 5.606-3-2.209 0-4-1.791-4-4v-1c0-3.866-3.134-7-7-7-3.866 0-7 3.134-7 7v1c0 2.209-1.791 4-4 4 1.249 1.874 3.353 3 5.606 3h1.394" fill="#976947"/></g><g><path d="m22 62h-18v-4c0-3.314 2.686-6 6-6h6c3.314 0 6 2.686 6 6z" fill="#78b75b"/></g><g><path d="m11 56 2-2 2 2 2.795-3.726c-.567-.178-1.17-.274-1.795-.274h-6c-.625 0-1.228.096-1.795.274z" fill="#669e4f"/></g><g><path d="m13 40c0 2.209 1.791 4 4 4h1v3c0 2.761-2.239 5-5 5-2.761 0-5-2.239-5-5v-3h1c2.209 0 4-1.791 4-4z" fill="#efbe9a"/></g><g><path d="m18.395 52h-1.395v-2h1.395c1.384 0 2.696-.495 3.721-1.369-1.826-.745-3.116-2.541-3.116-4.631v-1c0-3.309-2.691-6-6-6s-6 2.691-6 6v1c0 2.09-1.29 3.886-3.115 4.631 1.024.874 2.337 1.369 3.72 1.369h1.395v2h-1.395c-2.593 0-4.999-1.288-6.438-3.445-.205-.307-.224-.701-.05-1.026.175-.326.514-.529.883-.529 1.654 0 3-1.346 3-3v-1c0-4.411 3.589-8 8-8s8 3.589 8 8v1c0 1.654 1.346 3 3 3 .369 0 .708.203.882.528s.155.72-.05 1.026c-1.438 2.158-3.845 3.446-6.437 3.446z"/></g><g><path d="m13 53c-3.309 0-6-2.691-6-6v-3c0-.552.448-1 1-1h1c1.654 0 3-1.346 3-3 0-.552.448-1 1-1s1 .448 1 1c0 1.654 1.346 3 3 3h1c.552 0 1 .448 1 1v3c0 3.309-2.691 6-6 6zm-4-8v2c0 2.206 1.794 4 4 4s4-1.794 4-4v-2c-1.634 0-3.087-.788-4-2.003-.913 1.215-2.366 2.003-4 2.003z"/></g><g><path d="m22 63h-18c-.552 0-1-.448-1-1v-4c0-3.86 3.14-7 7-7h6c3.86 0 7 3.14 7 7v4c0 .552-.448 1-1 1zm-17-2h16v-3c0-2.757-2.243-5-5-5h-6c-2.757 0-5 2.243-5 5z"/></g><g><path d="m7 57h2v5h-2z"/></g><g><path d="m17 57h2v5h-2z"/></g><g><path d="m15 57c-.264 0-.519-.104-.707-.293l-1.293-1.293-1.293 1.293c-.204.206-.487.312-.778.291-.289-.021-.555-.166-.729-.397l-3-4 1.6-1.2 2.309 3.078 1.185-1.185c.391-.391 1.023-.391 1.414 0l1.185 1.185 2.307-3.079 1.6 1.2-3 4c-.174.232-.44.377-.729.397-.024.002-.048.003-.071.003z"/></g><g><path d="m62 61h-40v-2h39v-46h-9c-.552 0-1-.448-1-1v-9h-30v32h-2v-33c0-.552.448-1 1-1h32c.552 0 1 .448 1 1v9h9c.552 0 1 .448 1 1v48c0 .552-.448 1-1 1z"/></g><g><path d="m56-.071h2v14.142h-2z" transform="matrix(.707 -.707 .707 .707 11.745 42.355)"/></g><g><path d="m48 21h-24c-.552 0-1-.448-1-1v-14c0-.552.448-1 1-1h24c.552 0 1 .448 1 1v14c0 .552-.448 1-1 1zm-23-2h22v-12h-22z"/></g><g><path d="m23 23h2v2h-2z"/></g><g><path d="m27 23h2v2h-2z"/></g><g><path d="m31 23h28v2h-28z"/></g><g><path d="m57 27h2v2h-2z"/></g><g><path d="m53 27h2v2h-2z"/></g><g><path d="m23 27h28v2h-28z"/></g><g><path d="m57 31h2v2h-2z"/></g><g><path d="m53 31h2v2h-2z"/></g><g><path d="m23 31h28v2h-28z"/></g><g><path d="m49 54c-2.206 0-4-1.794-4-4h2c0 1.103.897 2 2 2s2-.897 2-2-.897-2-2-2c-2.206 0-4-1.794-4-4s1.794-4 4-4 4 1.794 4 4h-2c0-1.103-.897-2-2-2s-2 .897-2 2 .897 2 2 2c2.206 0 4 1.794 4 4s-1.794 4-4 4z"/></g><g><path d="m48 38h2v3h-2z"/></g><g><path d="m48 53h2v3h-2z"/></g><g><path d="m49 57c-5.514 0-10-4.486-10-10s4.486-10 10-10 10 4.486 10 10-4.486 10-10 10zm0-18c-4.411 0-8 3.589-8 8s3.589 8 8 8 8-3.589 8-8-3.589-8-8-8z"/></g><g><path d="m35 54c-2.206 0-4-1.794-4-4h2c0 1.103.897 2 2 2s2-.897 2-2-.897-2-2-2c-2.206 0-4-1.794-4-4s1.794-4 4-4 4 1.794 4 4h-2c0-1.103-.897-2-2-2s-2 .897-2 2 .897 2 2 2c2.206 0 4 1.794 4 4s-1.794 4-4 4z"/></g><g><path d="m34 38h2v3h-2z"/></g><g><path d="m34 53h2v3h-2z"/></g><g><path d="m35 57c-5.514 0-10-4.486-10-10s4.486-10 10-10c3.034 0 5.869 1.354 7.778 3.714l-1.555 1.258c-1.528-1.889-3.796-2.972-6.223-2.972-4.411 0-8 3.589-8 8s3.589 8 8 8c2.427 0 4.695-1.083 6.223-2.972l1.555 1.258c-1.909 2.36-4.744 3.714-7.778 3.714z"/></g></g></svg>