<svg id="Layer_3" enable-background="new 0 0 64 64" height="512" viewBox="0 0 64 64" width="512" xmlns="http://www.w3.org/2000/svg"><g><g><path d="m43 52v10h-28v-48h38v38z" fill="#c7e2fc"/></g><g><path d="m15 50.59c1.463.265 2.965.41 4.5.41 14.636 0 26.5-12.536 26.5-28 0-3.15-.5-6.174-1.407-9h-29.593z" fill="#ebf7fe"/></g><g><path d="m53 52h-10v10" fill="#8892a0"/></g><g><path d="m18 48v3l3.566.509c1.97.282 3.434 1.97 3.434 3.96v6.531h-20v-6.531c0-1.991 1.464-3.678 3.434-3.96l3.566-.509v-3" fill="#4d5d7a"/></g><g><path d="m19 56h2v-4.571l-3-.429v-3h-6v3l-3 .429v4.571h2l-1 2 2 4h6l2-4z" fill="#8892a0"/></g><g><path d="m23 52h.838c1.888 0 3.565-1.208 4.162-3h-2c-1.105 0-2-.895-2-2v-3-4-4c0-3.314-2.686-6-6-6h-6c-3.314 0-6 2.686-6 6v4 4 3c0 1.105-.895 2-2 2h-2c.597 1.792 2.274 3 4.162 3h.838" fill="#976947"/></g><g><path d="m18 47v4l-3 11-3-11v-4" fill="#efbe9a"/></g><g><path d="m17 35c0 1.657 1.343 3 3 3h1v5c0 3.314-2.686 6-6 6-3.314 0-6-2.686-6-6v-5h5c1.657 0 3-1.343 3-3z" fill="#efbe9a"/></g><g><path d="m21 40h2c1.105 0 2 .895 2 2 0 1.105-.895 2-2 2h-2" fill="#db9b7c"/></g><g><path d="m9 40h-2c-1.105 0-2 .895-2 2 0 1.105.895 2 2 2h2" fill="#db9b7c"/></g><g><circle cx="54" cy="10" fill="#f5b953" r="8"/></g><g><path d="m15 50c-3.859 0-7-3.14-7-7v-5c0-.552.447-1 1-1h5c1.103 0 2-.897 2-2 0-.552.447-1 1-1s1 .448 1 1c0 1.103.897 2 2 2h1c.553 0 1 .448 1 1v5c0 3.86-3.141 7-7 7zm-5-11v4c0 2.757 2.243 5 5 5s5-2.243 5-5v-4c-1.193 0-2.267-.525-3-1.357-.733.832-1.807 1.357-3 1.357z"/></g><g><path d="m23 45h-2v-2h2c.552 0 1-.449 1-1s-.448-1-1-1h-2v-2h2c1.654 0 3 1.346 3 3s-1.346 3-3 3z"/></g><g><path d="m9 45h-2c-1.654 0-3-1.346-3-3s1.346-3 3-3h2v2h-2c-.552 0-1 .449-1 1s.448 1 1 1h2z"/></g><g><path d="m25 63h-20c-.553 0-1-.448-1-1v-6.531c0-2.472 1.846-4.6 4.293-4.95l2.707-.386v-2.133h2v3c0 .498-.366.919-.858.99l-3.565.509c-1.47.21-2.577 1.487-2.577 2.97v5.531h18v-5.531c0-1.483-1.107-2.76-2.576-2.97l-3.565-.509c-.493-.071-.859-.492-.859-.99v-3h2v2.133l2.707.387c2.447.35 4.293 2.478 4.293 4.95v6.53c0 .552-.447 1-1 1z"/></g><g><path d="m15 63c-.451 0-.846-.302-.965-.737l-3-11 1.93-.526 2.035 7.462 2.035-7.462 1.93.526-3 11c-.119.435-.514.737-.965.737z"/></g><g><path d="m11.105 62.447-2-4c-.141-.282-.141-.613 0-.895l.277-.552h-.382c-.553 0-1-.448-1-1v-4h2v3h1c.347 0 .668.18.851.474.183.295.199.663.044.973l-.777 1.553 1.776 3.553z"/></g><g><path d="m18.895 62.447-1.789-.895 1.776-3.552-.776-1.553c-.155-.31-.139-.678.044-.973.182-.294.503-.474.85-.474h1v-3h2v4c0 .552-.447 1-1 1h-.382l.276.553c.141.282.141.613 0 .895z"/></g><g><path d="m23.838 53h-.838v-2h.838c.925 0 1.782-.374 2.404-1h-.242c-1.654 0-3-1.346-3-3v-3h2v3c0 .551.448 1 1 1h2c.321 0 .623.155.812.416.188.261.239.596.137.901-.735 2.203-2.789 3.683-5.111 3.683z"/></g><g><path d="m7 53h-.838c-2.322 0-4.376-1.48-5.11-3.684-.103-.305-.051-.64.137-.901.188-.26.49-.415.811-.415h2c.552 0 1-.449 1-1v-3h2v3c0 1.654-1.346 3-3 3h-.242c.622.626 1.479 1 2.404 1h.838z"/></g><g><path d="m25 40h-2v-4c0-2.757-2.243-5-5-5h-6c-2.757 0-5 2.243-5 5v4h-2v-4c0-3.86 3.141-7 7-7h6c3.859 0 7 3.14 7 7z"/></g><g><path d="m43 63h-18v-2h17v-9c0-.552.447-1 1-1h9v-33h2v34c0 .552-.447 1-1 1h-9v9c0 .552-.447 1-1 1z"/></g><g><path d="m16 30h-2v-16c0-.552.447-1 1-1h32v2h-31z"/></g><g><path d="m40.929 56h14.142v2h-14.142z" transform="matrix(.707 -.707 .707 .707 -26.246 50.636)"/></g><g><path d="m54 16c-1.654 0-3-1.346-3-3v-1h2v1c0 .551.448 1 1 1s1-.449 1-1v-1c0-.551-.448-1-1-1-1.654 0-3-1.346-3-3v-1c0-1.654 1.346-3 3-3s3 1.346 3 3v1h-2v-1c0-.551-.448-1-1-1s-1 .449-1 1v1c0 .551.448 1 1 1 1.654 0 3 1.346 3 3v1c0 1.654-1.346 3-3 3z"/></g><g><path d="m54 19c-4.963 0-9-4.038-9-9s4.037-9 9-9 9 4.038 9 9-4.037 9-9 9zm0-16c-3.859 0-7 3.14-7 7s3.141 7 7 7 7-3.14 7-7-3.141-7-7-7z"/></g><g><path d="m53 2h2v3h-2z"/></g><g><path d="m53 15h2v3h-2z"/></g><g><path d="m48 20h2v2h-2z"/></g><g><path d="m27 20h19v2h-19z"/></g><g><path d="m27 24h2v2h-2z"/></g><g><path d="m31 24h19v2h-19z"/></g><g><path d="m48 28h2v2h-2z"/></g><g><path d="m27 28h19v2h-19z"/></g><g><path d="m27 32h2v2h-2z"/></g><g><path d="m31 32h19v2h-19z"/></g><g><path d="m48 36h2v2h-2z"/></g><g><path d="m27 36h19v2h-19z"/></g><g><path d="m27 40h2v2h-2z"/></g><g><path d="m31 40h19v2h-19z"/></g></g></svg>