<svg id="Layer_3" enable-background="new 0 0 64 64" height="512" viewBox="0 0 64 64" width="512" xmlns="http://www.w3.org/2000/svg"><g><g><path d="m36 35v-6l-3.434-.404c-.338-1.35-.869-2.619-1.567-3.781l2.143-2.714-4.243-4.243-2.714 2.143c-1.162-.698-2.432-1.229-3.781-1.567l-.404-3.434h-6l-.404 3.434c-1.35.338-2.619.869-3.781 1.567l-2.714-2.143-4.243 4.242 2.143 2.714c-.698 1.162-1.229 2.432-1.567 3.781l-3.434.405v6l3.434.404c.338 1.35.869 2.619 1.567 3.781l-2.143 2.714 4.243 4.243 2.714-2.143c1.162.698 2.432 1.229 3.781 1.567l.404 3.434h6l.404-3.434c1.35-.338 2.619-.869 3.781-1.567l2.714 2.143 4.243-4.243-2.143-2.714c.698-1.162 1.229-2.432 1.567-3.781zm-17 7c-5.523 0-10-4.477-10-10s4.477-10 10-10 10 4.477 10 10-4.477 10-10 10z" fill="#8892a0"/></g><g><path d="m52 33h8c1.105 0 2 .895 2 2v6h-12v-6c0-1.105.895-2 2-2z" fill="#f097d0"/></g><g><path d="m52 12h8c1.105 0 2 .895 2 2v6h-12v-6c0-1.105.895-2 2-2z" fill="#f097d0"/></g><g><path d="m52 54h8c1.105 0 2 .895 2 2v6h-12v-6c0-1.105.895-2 2-2z" fill="#f097d0"/></g><g><path d="m56 23c1.657 0 3 1.343 3 3v2c0 1.657-1.343 3-3 3-1.657 0-3-1.343-3-3v-2c0-1.657 1.343-3 3-3z" fill="#efbe9a"/></g><g><path d="m56 2c1.657 0 3 1.343 3 3v2c0 1.657-1.343 3-3 3-1.657 0-3-1.343-3-3v-2c0-1.657 1.343-3 3-3z" fill="#efbe9a"/></g><g><path d="m56 44c1.657 0 3 1.343 3 3v2c0 1.657-1.343 3-3 3-1.657 0-3-1.343-3-3v-2c0-1.657 1.343-3 3-3z" fill="#efbe9a"/></g><g><path d="m62 42h-12c-.553 0-1-.447-1-1v-6c0-1.654 1.346-3 3-3h8c1.654 0 3 1.346 3 3v6c0 .553-.447 1-1 1zm-11-2h10v-5c0-.552-.448-1-1-1h-8c-.552 0-1 .448-1 1z"/></g><g><path d="m58 36h2v5h-2z"/></g><g><path d="m52 36h2v5h-2z"/></g><g><path d="m56 32c-2.206 0-4-1.794-4-4v-2c0-2.206 1.794-4 4-4s4 1.794 4 4v2c0 2.206-1.794 4-4 4zm0-8c-1.103 0-2 .897-2 2v2c0 1.103.897 2 2 2s2-.897 2-2v-2c0-1.103-.897-2-2-2z"/></g><g><path d="m62 21h-12c-.553 0-1-.448-1-1v-6c0-1.654 1.346-3 3-3h8c1.654 0 3 1.346 3 3v6c0 .552-.447 1-1 1zm-11-2h10v-5c0-.551-.448-1-1-1h-8c-.552 0-1 .449-1 1z"/></g><g><path d="m58 15h2v5h-2z"/></g><g><path d="m52 15h2v5h-2z"/></g><g><path d="m56 11c-2.206 0-4-1.794-4-4v-2c0-2.206 1.794-4 4-4s4 1.794 4 4v2c0 2.206-1.794 4-4 4zm0-8c-1.103 0-2 .897-2 2v2c0 1.103.897 2 2 2s2-.897 2-2v-2c0-1.103-.897-2-2-2z"/></g><g><path d="m62 63h-12c-.553 0-1-.447-1-1v-6c0-1.654 1.346-3 3-3h8c1.654 0 3 1.346 3 3v6c0 .553-.447 1-1 1zm-11-2h10v-5c0-.552-.448-1-1-1h-8c-.552 0-1 .448-1 1z"/></g><g><path d="m58 57h2v5h-2z"/></g><g><path d="m52 57h2v5h-2z"/></g><g><path d="m56 53c-2.206 0-4-1.794-4-4v-2c0-2.206 1.794-4 4-4s4 1.794 4 4v2c0 2.206-1.794 4-4 4zm0-8c-1.103 0-2 .897-2 2v2c0 1.103.897 2 2 2s2-.897 2-2v-2c0-1.103-.897-2-2-2z"/></g><g><path d="m22 50h-6c-.507 0-.934-.38-.993-.883l-.325-2.767c-.962-.288-1.892-.673-2.776-1.149l-2.185 1.727c-.398.312-.967.281-1.327-.078l-4.244-4.244c-.358-.358-.392-.929-.078-1.327l1.727-2.185c-.477-.885-.861-1.814-1.149-2.776l-2.767-.325c-.503-.059-.883-.486-.883-.993v-6c0-.507.38-.934.883-.993l2.767-.326c.288-.962.673-1.891 1.149-2.775l-1.727-2.186c-.313-.398-.28-.968.078-1.327l4.243-4.243c.36-.36.93-.392 1.327-.078l2.186 1.726c.884-.476 1.813-.861 2.775-1.15l.325-2.766c.06-.503.487-.882.994-.882h6c.507 0 .934.379.993.883l.325 2.766c.962.289 1.892.674 2.775 1.15l2.186-1.726c.397-.315.967-.283 1.327.078l4.243 4.243c.358.358.392.929.078 1.327l-1.727 2.186c.477.884.861 1.813 1.149 2.775l2.767.326c.504.058.884.485.884.992v6c0 .507-.38.934-.883.993l-2.767.325c-.288.962-.673 1.892-1.149 2.776l1.727 2.185c.313.398.28.969-.078 1.327l-4.243 4.243c-.359.36-.93.391-1.327.078l-2.185-1.727c-.885.477-1.814.861-2.776 1.149l-.325 2.767c-.06.504-.487.884-.994.884zm-5.11-2h4.221l.301-2.552c.049-.413.348-.752.751-.854 1.235-.308 2.416-.797 3.509-1.453.355-.215.808-.186 1.135.072l2.016 1.593 2.985-2.985-1.593-2.016c-.257-.326-.286-.778-.072-1.135.656-1.093 1.146-2.273 1.453-3.509.102-.403.44-.702.854-.751l2.55-.3v-4.221l-2.552-.3c-.413-.049-.752-.348-.854-.751-.309-1.236-.797-2.417-1.453-3.508-.214-.356-.186-.809.072-1.135l1.593-2.017-2.985-2.985-2.016 1.592c-.327.257-.779.287-1.135.073-1.093-.655-2.273-1.145-3.51-1.454-.402-.101-.701-.44-.75-.854l-.3-2.55h-4.22l-.301 2.551c-.049.413-.348.752-.75.854-1.236.309-2.417.799-3.51 1.454-.357.214-.809.184-1.135-.073l-2.016-1.592-2.985 2.985 1.593 2.017c.258.326.286.778.072 1.135-.656 1.091-1.145 2.271-1.453 3.508-.102.403-.44.702-.854.751l-2.551.299v4.221l2.552.301c.413.049.752.348.854.751.308 1.235.797 2.416 1.453 3.509.214.356.185.809-.072 1.135l-1.593 2.016 2.985 2.985 2.016-1.593c.326-.258.777-.287 1.135-.072 1.093.656 2.273 1.146 3.509 1.453.403.102.702.44.751.854z"/></g><g><path d="m19 43c-6.065 0-11-4.935-11-11s4.935-11 11-11 11 4.935 11 11-4.935 11-11 11zm0-20c-4.963 0-9 4.038-9 9 0 4.963 4.037 9 9 9s9-4.037 9-9c0-4.962-4.037-9-9-9z"/></g><g><path d="m39 31h8v2h-8z"/></g><g><path d="m47 53h-4c-.553 0-1-.447-1-1v-40c0-.552.447-1 1-1h4v2h-3v38h3z"/></g></g></svg>