<svg id="Layer_3" enable-background="new 0 0 64 64" height="512" viewBox="0 0 64 64" width="512" xmlns="http://www.w3.org/2000/svg"><g><g><path d="m21 56h22v6h-22z" fill="#8892a0"/></g><g><path d="m10 28h44v28h-44z" fill="#4d5d7a"/></g><g><path d="m10 28v17.794c3.788 2.034 8.238 3.206 13 3.206 13.426 0 24.377-9.314 24.971-21z" fill="#8892a0"/></g><g><path d="m32 34c7.732 0 14-6.268 14-14h4c0 9.941-8.059 18-18 18z" fill="#669e4f"/></g><g><path d="m32 34c-7.732 0-14-6.268-14-14s6.268-14 14-14 14 6.268 14 14h4c0-9.941-8.059-18-18-18s-18 8.059-18 18 8.059 18 18 18z" fill="#f5b953"/></g><g><path d="m54 57h-44c-.552 0-1-.447-1-1v-28c0-.552.448-1 1-1h6v2h-5v26h42v-26h-5v-2h6c.552 0 1 .448 1 1v28c0 .553-.448 1-1 1z"/></g><g><path d="m42 56h2v6h-2z"/></g><g><path d="m20 56h2v6h-2z"/></g><g><path d="m18 61h28v2h-28z"/></g><g><path d="m32 39v-2c9.374 0 17-7.626 17-17h2c0 10.477-8.523 19-19 19z"/></g><g><path d="m32 35v-2c7.168 0 13-5.832 13-13h2c0 8.271-6.729 15-15 15z"/></g><g><path d="m31 2h2v4h-2z"/></g><g><path d="m32 39c-10.477 0-19-8.523-19-19s8.523-19 19-19 19 8.523 19 19c0 .552-.448 1-1 1h-4c-.552 0-1-.448-1-1 0-7.168-5.832-13-13-13s-13 5.832-13 13 5.832 13 13 13c.552 0 1 .447 1 1v4c0 .553-.448 1-1 1zm0-36c-9.374 0-17 7.626-17 17 0 9.038 7.09 16.451 16 16.971v-2.004c-7.806-.517-14-7.032-14-14.967 0-8.271 6.729-15 15-15 7.935 0 14.45 6.194 14.967 14h2.004c-.52-8.91-7.933-16-16.971-16z"/></g><g><path d="m41 26h-14c-.552 0-1-.448-1-1v-1.409c0-1.405.956-2.607 2.325-2.923l10.675-2.463v-3.205h-11v-2h12c.552 0 1 .448 1 1v5c0 .466-.321.87-.775.975l-11.45 2.642c-.456.105-.775.506-.775.974v.409h13z"/></g><g><path d="m28.006 21.11-.901-8.11h-2.105v-2h3c.51 0 .938.383.994.89l1 9z"/></g><g><path d="m29 30c-1.654 0-3-1.346-3-3s1.346-3 3-3 3 1.346 3 3-1.346 3-3 3zm0-4c-.551 0-1 .449-1 1s.449 1 1 1 1-.449 1-1-.449-1-1-1z"/></g><g><path d="m37 30c-1.654 0-3-1.346-3-3s1.346-3 3-3 3 1.346 3 3-1.346 3-3 3zm0-4c-.551 0-1 .449-1 1s.449 1 1 1 1-.449 1-1-.449-1-1-1z"/></g><g><path d="m35 14h2v6h-2z"/></g><g><path d="m31 14h2v7h-2z"/></g><g><path d="m17 53c-2.206 0-4-1.794-4-4s1.794-4 4-4 4 1.794 4 4-1.794 4-4 4zm0-6c-1.103 0-2 .897-2 2s.897 2 2 2 2-.897 2-2-.897-2-2-2z"/></g><g><path d="m47 53c-2.206 0-4-1.794-4-4s1.794-4 4-4 4 1.794 4 4-1.794 4-4 4zm0-6c-1.103 0-2 .897-2 2s.897 2 2 2 2-.897 2-2-.897-2-2-2z"/></g><g><path d="m13.138 36.5h19.723v2h-19.723z" transform="matrix(.507 -.862 .862 .507 -20.984 38.316)"/></g><g><path d="m36.5 25.396h2v24.207h-2z" transform="matrix(.785 -.62 .62 .785 -15.17 31.303)"/></g></g></svg>