<svg id="Layer_3" enable-background="new 0 0 64 64" height="512" viewBox="0 0 64 64" width="512" xmlns="http://www.w3.org/2000/svg"><g><g><path d="m52 54h8c1.105 0 2 .895 2 2v6h-12v-6c0-1.105.895-2 2-2z" fill="#f5b953"/></g><g><path d="m4 54h8c1.105 0 2 .895 2 2v6h-12v-6c0-1.105.895-2 2-2z" fill="#f5b953"/></g><g><path d="m56 44c1.657 0 3 1.343 3 3v2c0 1.657-1.343 3-3 3-1.657 0-3-1.343-3-3v-2c0-1.657 1.343-3 3-3z" fill="#efbe9a"/></g><g><path d="m8 44c1.657 0 3 1.343 3 3v2c0 1.657-1.343 3-3 3-1.657 0-3-1.343-3-3v-2c0-1.657 1.343-3 3-3z" fill="#efbe9a"/></g><g><path d="m16 10h10v14h-10z" fill="#3d98f7"/></g><g><path d="m38 6h10v18h-10z" fill="#3d98f7"/></g><g><path d="m26 2h12v22h-12z" fill="#f5b953"/></g><g><path d="m34 40c.613 1.226 1.866 2 3.236 2h.146c1.998 0 3.618 1.62 3.618 3.618v4.382h-18v-4.382c0-1.998 1.62-3.618 3.618-3.618h.146c1.37 0 2.623-.774 3.236-2" fill="#3d98f7"/></g><g><path d="m28 42 .586.586c.905.905 2.133 1.414 3.414 1.414s2.509-.509 3.414-1.414l.586-.586.122-.183c-.908-.294-1.682-.936-2.122-1.817h-4c-.44.881-1.214 1.523-2.122 1.817z" fill="#efbe9a"/></g><g><path d="m32 40c-2.761 0-5-2.239-5-5v-2c0-2.761 2.239-5 5-5 2.761 0 5 2.239 5 5v2c0 2.761-2.239 5-5 5z" fill="#efbe9a"/></g><g><path d="m38 25h-12c-.552 0-1-.447-1-1v-22c0-.553.448-1 1-1h12c.552 0 1 .447 1 1v22c0 .553-.448 1-1 1zm-11-2h10v-20h-10z"/></g><g><path d="m48 25h-10v-2h9v-16h-9v-2h10c.552 0 1 .447 1 1v18c0 .553-.448 1-1 1z"/></g><g><path d="m26 25h-10c-.552 0-1-.447-1-1v-14c0-.553.448-1 1-1h10v2h-9v12h9z"/></g><g><path d="m29 5h2v2h-2z"/></g><g><path d="m33 5h2v2h-2z"/></g><g><path d="m29 9h2v2h-2z"/></g><g><path d="m33 9h2v2h-2z"/></g><g><path d="m29 13h2v2h-2z"/></g><g><path d="m33 13h2v2h-2z"/></g><g><path d="m29 17h2v2h-2z"/></g><g><path d="m33 17h2v2h-2z"/></g><g><path d="m18 13h2v2h-2z"/></g><g><path d="m22 13h2v2h-2z"/></g><g><path d="m18 17h2v2h-2z"/></g><g><path d="m22 17h2v2h-2z"/></g><g><path d="m40 9h2v2h-2z"/></g><g><path d="m44 9h2v2h-2z"/></g><g><path d="m40 13h2v2h-2z"/></g><g><path d="m44 13h2v2h-2z"/></g><g><path d="m40 17h2v2h-2z"/></g><g><path d="m44 17h2v2h-2z"/></g><g><path d="m32 41c-3.309 0-6-2.691-6-6v-2c0-3.309 2.691-6 6-6s6 2.691 6 6v2c0 3.309-2.691 6-6 6zm0-12c-2.206 0-4 1.794-4 4v2c0 2.206 1.794 4 4 4s4-1.794 4-4v-2c0-2.206-1.794-4-4-4z"/></g><g><path d="m41 51h-18c-.552 0-1-.447-1-1v-4.382c0-2.547 2.072-4.618 4.618-4.618h.146c.998 0 1.895-.555 2.341-1.447l1.789.895c-.787 1.573-2.37 2.552-4.13 2.552h-.146c-1.444 0-2.618 1.175-2.618 2.618v3.382h16v-3.382c0-1.443-1.174-2.618-2.618-2.618h-.146c-1.76 0-3.343-.979-4.13-2.553l1.789-.895c.446.893 1.343 1.448 2.341 1.448h.146c2.546 0 4.618 2.071 4.618 4.618v4.382c0 .553-.448 1-1 1z"/></g><g><path d="m36 47h2v3h-2z"/></g><g><path d="m26 47h2v3h-2z"/></g><g><path d="m32 45c-1.557 0-3.021-.606-4.121-1.707l-.586-.586 1.414-1.414.586.586c1.446 1.445 3.968 1.445 5.414 0l.586-.586 1.414 1.414-.586.586c-1.1 1.101-2.564 1.707-4.121 1.707z"/></g><g><path d="m62 63h-12c-.552 0-1-.447-1-1v-6c0-1.654 1.346-3 3-3h8c1.654 0 3 1.346 3 3v6c0 .553-.448 1-1 1zm-11-2h10v-5c0-.552-.449-1-1-1h-8c-.551 0-1 .448-1 1z"/></g><g><path d="m58 57h2v5h-2z"/></g><g><path d="m52 57h2v5h-2z"/></g><g><path d="m56 53c-2.206 0-4-1.794-4-4v-2c0-2.206 1.794-4 4-4s4 1.794 4 4v2c0 2.206-1.794 4-4 4zm0-8c-1.103 0-2 .897-2 2v2c0 1.103.897 2 2 2s2-.897 2-2v-2c0-1.103-.897-2-2-2z"/></g><g><path d="m14 63h-12c-.552 0-1-.447-1-1v-6c0-1.654 1.346-3 3-3h8c1.654 0 3 1.346 3 3v6c0 .553-.448 1-1 1zm-11-2h10v-5c0-.552-.449-1-1-1h-8c-.551 0-1 .448-1 1z"/></g><g><path d="m10 57h2v5h-2z"/></g><g><path d="m4 57h2v5h-2z"/></g><g><path d="m8 53c-2.206 0-4-1.794-4-4v-2c0-2.206 1.794-4 4-4s4 1.794 4 4v2c0 2.206-1.794 4-4 4zm0-8c-1.103 0-2 .897-2 2v2c0 1.103.897 2 2 2s2-.897 2-2v-2c0-1.103-.897-2-2-2z"/></g><g><path d="m32 61c-2.206 0-4-1.794-4-4s1.794-4 4-4 4 1.794 4 4-1.794 4-4 4zm0-6c-1.103 0-2 .897-2 2s.897 2 2 2 2-.897 2-2-.897-2-2-2z"/></g><g><path d="m31 50h2v4h-2z"/></g><g><path d="m35 56h15v2h-15z"/></g><g><path d="m14 56h15v2h-15z"/></g><g><path d="m31 24h2v4h-2z"/></g></g></svg>