<svg id="Layer_3" enable-background="new 0 0 64 64" height="512" viewBox="0 0 64 64" width="512" xmlns="http://www.w3.org/2000/svg"><g><g><path d="m34 14v-3l3-2v-4l-3-3v5h-4v-5l-3 3v4l3 2v3" fill="#4d5d7a"/></g><g><circle cx="32" cy="25" fill="#3d98f7" r="11"/></g><g><path d="m35 20v3h4l2.858-2.858c-1.795-3.635-5.529-6.142-9.858-6.142v3z" fill="#96cc7f"/></g><g><path d="m21 25c0 2.271.689 4.38 1.868 6.132l3.132-3.132v-3l2-2v-3l-3.254-3.254c-2.292 2.016-3.746 4.962-3.746 8.254z" fill="#96cc7f"/></g><g><path d="m37 30-2 2-3 1v3c4.273 0 7.968-2.441 9.79-6z" fill="#96cc7f"/></g><g><path d="m49 26h7v4l6-6-6-6v4h-7" fill="#669e4f"/></g><g><path d="m15 26h-7v4l-6-6 6-6v4h7" fill="#669e4f"/></g><g><path d="m34 52c.613 1.226 1.866 2 3.236 2h.146c1.998 0 3.618 1.62 3.618 3.618v4.382h-18v-4.382c0-1.998 1.62-3.618 3.618-3.618h.146c1.37 0 2.623-.774 3.236-2" fill="#669e4f"/></g><g><path d="m28 54 .586.586c.905.905 2.133 1.414 3.414 1.414s2.509-.509 3.414-1.414l.586-.586.122-.183c-.908-.294-1.682-.936-2.122-1.817h-4c-.44.881-1.214 1.523-2.122 1.817z" fill="#efbe9a"/></g><g><path d="m32 52c-2.761 0-5-2.239-5-5v-2c0-2.761 2.239-5 5-5 2.761 0 5 2.239 5 5v2c0 2.761-2.239 5-5 5z" fill="#efbe9a"/></g><g><path d="m55 52c.613 1.226 1.866 2 3.236 2h.146c1.998 0 3.618 1.62 3.618 3.618v4.382h-18v-4.382c0-1.998 1.62-3.618 3.618-3.618h.146c1.37 0 2.623-.774 3.236-2" fill="#669e4f"/></g><g><path d="m49 54 .586.586c.905.905 2.133 1.414 3.414 1.414s2.509-.509 3.414-1.414l.586-.586.122-.183c-.908-.294-1.682-.936-2.122-1.817h-4c-.44.881-1.214 1.523-2.122 1.817z" fill="#efbe9a"/></g><g><path d="m53 52c-2.761 0-5-2.239-5-5v-2c0-2.761 2.239-5 5-5 2.761 0 5 2.239 5 5v2c0 2.761-2.239 5-5 5z" fill="#efbe9a"/></g><g><path d="m13 52c.613 1.226 1.866 2 3.236 2h.146c1.998 0 3.618 1.62 3.618 3.618v4.382h-18v-4.382c0-1.998 1.62-3.618 3.618-3.618h.146c1.37 0 2.623-.774 3.236-2" fill="#669e4f"/></g><g><path d="m7 54 .586.586c.905.905 2.133 1.414 3.414 1.414s2.509-.509 3.414-1.414l.586-.586.122-.183c-.908-.294-1.682-.936-2.122-1.817h-4c-.44.881-1.214 1.523-2.122 1.817z" fill="#efbe9a"/></g><g><path d="m11 52c-2.761 0-5-2.239-5-5v-2c0-2.761 2.239-5 5-5 2.761 0 5 2.239 5 5v2c0 2.761-2.239 5-5 5z" fill="#efbe9a"/></g><g><path d="m32 53c-3.309 0-6-2.691-6-6v-2c0-3.309 2.691-6 6-6s6 2.691 6 6v2c0 3.309-2.691 6-6 6zm0-12c-2.206 0-4 1.794-4 4v2c0 2.206 1.794 4 4 4s4-1.794 4-4v-2c0-2.206-1.794-4-4-4z"/></g><g><path d="m41 63h-18c-.552 0-1-.447-1-1v-4.382c0-2.547 2.072-4.618 4.618-4.618h.146c.998 0 1.895-.555 2.341-1.447l1.789.895c-.787 1.573-2.37 2.552-4.13 2.552h-.146c-1.444 0-2.618 1.175-2.618 2.618v3.382h16v-3.382c0-1.443-1.174-2.618-2.618-2.618h-.146c-1.76 0-3.343-.979-4.13-2.553l1.789-.895c.446.893 1.343 1.448 2.341 1.448h.146c2.546 0 4.618 2.071 4.618 4.618v4.382c0 .553-.448 1-1 1z"/></g><g><path d="m36 59h2v3h-2z"/></g><g><path d="m26 59h2v3h-2z"/></g><g><path d="m32 57c-1.557 0-3.021-.606-4.121-1.707l-.586-.586 1.414-1.414.586.586c1.446 1.445 3.968 1.445 5.414 0l.586-.586 1.414 1.414-.586.586c-1.1 1.101-2.564 1.707-4.121 1.707z"/></g><g><path d="m53 53c-3.309 0-6-2.691-6-6v-2c0-3.309 2.691-6 6-6s6 2.691 6 6v2c0 3.309-2.691 6-6 6zm0-12c-2.206 0-4 1.794-4 4v2c0 2.206 1.794 4 4 4s4-1.794 4-4v-2c0-2.206-1.794-4-4-4z"/></g><g><path d="m62 63h-18c-.552 0-1-.447-1-1v-4.382c0-2.547 2.072-4.618 4.618-4.618h.146c.998 0 1.895-.555 2.341-1.447l1.789.895c-.787 1.573-2.37 2.552-4.13 2.552h-.146c-1.444 0-2.618 1.175-2.618 2.618v3.382h16v-3.382c0-1.443-1.174-2.618-2.618-2.618h-.146c-1.76 0-3.343-.979-4.13-2.553l1.789-.895c.446.893 1.343 1.448 2.341 1.448h.146c2.546 0 4.618 2.071 4.618 4.618v4.382c0 .553-.448 1-1 1z"/></g><g><path d="m57 59h2v3h-2z"/></g><g><path d="m47 59h2v3h-2z"/></g><g><path d="m53 57c-1.557 0-3.021-.606-4.121-1.707l-.586-.586 1.414-1.414.586.586c1.446 1.445 3.968 1.445 5.414 0l.586-.586 1.414 1.414-.586.586c-1.1 1.101-2.564 1.707-4.121 1.707z"/></g><g><path d="m11 53c-3.309 0-6-2.691-6-6v-2c0-3.309 2.691-6 6-6s6 2.691 6 6v2c0 3.309-2.691 6-6 6zm0-12c-2.206 0-4 1.794-4 4v2c0 2.206 1.794 4 4 4s4-1.794 4-4v-2c0-2.206-1.794-4-4-4z"/></g><g><path d="m20 63h-18c-.552 0-1-.447-1-1v-4.382c0-2.547 2.072-4.618 4.618-4.618h.146c.998 0 1.895-.555 2.341-1.447l1.789.895c-.787 1.573-2.37 2.552-4.13 2.552h-.146c-1.444 0-2.618 1.175-2.618 2.618v3.382h16v-3.382c0-1.443-1.174-2.618-2.618-2.618h-.146c-1.76 0-3.343-.979-4.13-2.553l1.789-.895c.446.893 1.343 1.448 2.341 1.448h.146c2.546 0 4.618 2.071 4.618 4.618v4.382c0 .553-.448 1-1 1z"/></g><g><path d="m15 59h2v3h-2z"/></g><g><path d="m5 59h2v3h-2z"/></g><g><path d="m11 57c-1.557 0-3.021-.606-4.121-1.707l-.586-.586 1.414-1.414.586.586c1.446 1.445 3.968 1.445 5.414 0l.586-.586 1.414 1.414-.586.586c-1.1 1.101-2.564 1.707-4.121 1.707z"/></g><g><path d="m32 37c-6.617 0-12-5.383-12-12s5.383-12 12-12 12 5.383 12 12-5.383 12-12 12zm0-22c-5.514 0-10 4.486-10 10s4.486 10 10 10 10-4.486 10-10-4.486-10-10-10z"/></g><g><path d="m39 24h-4c-.552 0-1-.447-1-1v-2.586l-2.707-2.707c-.188-.187-.293-.441-.293-.707v-3h2v2.586l2.707 2.707c.188.187.293.441.293.707v2h2.586l2.707-2.707 1.414 1.414-3 3c-.187.188-.442.293-.707.293z"/></g><g><path d="m23.707 31.707-1.414-1.414 2.707-2.707v-2.586c0-.266.105-.52.293-.707l1.707-1.707v-2.172l-2.707-2.707 1.414-1.414 3 3c.188.187.293.441.293.707v3c0 .266-.105.52-.293.707l-1.707 1.707v2.586c0 .266-.105.52-.293.707z"/></g><g><path d="m33 36h-2v-3c0-.431.275-.812.684-.948l2.776-.926 1.833-1.833c.187-.188.442-.293.707-.293h5v2h-4.586l-1.707 1.707c-.11.109-.244.192-.391.241l-2.316.773z"/></g><g><path d="m35 14h-2v-3c0-.334.167-.646.445-.832l2.555-1.703v-3.051l-1-1v2.586c0 .553-.448 1-1 1h-4c-.552 0-1-.447-1-1v-2.586l-1 1v3.051l2.555 1.703c.278.186.445.498.445.832v3h-2v-2.465l-2.555-1.703c-.278-.186-.445-.498-.445-.832v-4c0-.266.105-.52.293-.707l3-3c.286-.287.714-.374 1.09-.217.373.154.617.52.617.924v4h2v-4c0-.404.244-.77.617-.924.373-.157.803-.07 1.09.217l3 3c.188.187.293.441.293.707v4c0 .334-.167.646-.445.832l-2.555 1.703z"/></g><g><path d="m56 31c-.129 0-.259-.024-.383-.076-.373-.154-.617-.52-.617-.924v-3h-6v-2h7c.552 0 1 .447 1 1v1.586l3.586-3.586-3.586-3.586v1.586c0 .553-.448 1-1 1h-7v-2h6v-3c0-.404.244-.77.617-.924.374-.157.804-.069 1.09.217l6 6c.391.391.391 1.023 0 1.414l-6 6c-.191.191-.447.293-.707.293z"/></g><g><path d="m45 21h2v2h-2z"/></g><g><path d="m45 25h2v2h-2z"/></g><g><path d="m8 31c-.26 0-.516-.102-.707-.293l-6-6c-.391-.391-.391-1.023 0-1.414l6-6c.286-.286.715-.374 1.09-.217.373.154.617.52.617.924v3h6v2h-7c-.552 0-1-.447-1-1v-1.586l-3.586 3.586 3.586 3.586v-1.586c0-.553.448-1 1-1h7v2h-6v3c0 .404-.244.77-.617.924-.124.052-.254.076-.383.076z"/></g><g><path d="m17 21h2v2h-2z"/></g><g><path d="m17 25h2v2h-2z"/></g></g></svg>