<svg id="Layer_3" enable-background="new 0 0 64 64" height="512" viewBox="0 0 64 64" width="512" xmlns="http://www.w3.org/2000/svg"><g><g><path d="m10 8h36v-2c0-2.209 1.791-4 4-4 2.209 0 4 1.791 4 4v50h-36v2c0 2.209-1.791 4-4 4-2.209 0-4-1.791-4-4z" fill="#ebf7fe"/></g><g><circle cx="32" cy="47" fill="#fff" r="5"/></g><g><circle cx="45" cy="47" fill="#fff" r="5"/></g><g><circle cx="19" cy="47" fill="#fff" r="5"/></g><g><path d="m50 2h-44c-2.209 0-4 1.791-4 4v2h44v-2c0-2.209 1.791-4 4-4z" fill="#a1cdfb"/></g><g><path d="m14 62h44c2.209 0 4-1.791 4-4v-2h-44v2c0 2.209-1.791 4-4 4z" fill="#a1cdfb"/></g><g><path d="m34 24c.613 1.226 1.866 2 3.236 2h.146c1.998 0 3.618 1.62 3.618 3.618v4.382h-18v-4.382c0-1.998 1.62-3.618 3.618-3.618h.146c1.37 0 2.623-.774 3.236-2" fill="#669e4f"/></g><g><path d="m28 26 .586.586c.905.905 2.133 1.414 3.414 1.414s2.509-.509 3.414-1.414l.586-.586.122-.183c-.908-.294-1.682-.936-2.122-1.817h-4c-.44.881-1.214 1.523-2.122 1.817z" fill="#efbe9a"/></g><g><path d="m32 24c-2.761 0-5-2.239-5-5v-2c0-2.761 2.239-5 5-5 2.761 0 5 2.239 5 5v2c0 2.761-2.239 5-5 5z" fill="#efbe9a"/></g><g><path d="m58 63h-44c-2.757 0-5-2.243-5-5v-50h2v50c0 1.654 1.346 3 3 3s3-1.346 3-3v-2c0-.553.447-1 1-1h44c.553 0 1 .447 1 1v2c0 2.757-2.243 5-5 5zm-40.002-2h40.002c1.654 0 3-1.346 3-3v-1h-42v1c0 1.125-.373 2.164-1.002 3z"/></g><g><path d="m55 56h-2v-50c0-1.654-1.346-3-3-3s-3 1.346-3 3v2c0 .553-.447 1-1 1h-44c-.553 0-1-.447-1-1v-2c0-2.757 2.243-5 5-5h44c2.757 0 5 2.243 5 5zm-52-49h42v-1c0-1.125.373-2.164 1.002-3h-40.002c-1.654 0-3 1.346-3 3z"/></g><g><path d="m32 25c-3.309 0-6-2.691-6-6v-2c0-3.309 2.691-6 6-6s6 2.691 6 6v2c0 3.309-2.691 6-6 6zm0-12c-2.206 0-4 1.794-4 4v2c0 2.206 1.794 4 4 4s4-1.794 4-4v-2c0-2.206-1.794-4-4-4z"/></g><g><path d="m41 35h-18c-.553 0-1-.447-1-1v-4.382c0-2.547 2.071-4.618 4.618-4.618h.146c.998 0 1.896-.555 2.342-1.447l1.789.895c-.789 1.573-2.372 2.552-4.131 2.552h-.146c-1.443 0-2.618 1.175-2.618 2.618v3.382h16v-3.382c0-1.443-1.175-2.618-2.618-2.618h-.146c-1.76 0-3.343-.979-4.131-2.553l1.789-.895c.447.893 1.344 1.448 2.342 1.448h.146c2.547 0 4.618 2.071 4.618 4.618v4.382c0 .553-.447 1-1 1z"/></g><g><path d="m36 31h2v3h-2z"/></g><g><path d="m26 31h2v3h-2z"/></g><g><path d="m32 29c-1.534 0-3.036-.622-4.121-1.707l-.586-.586 1.414-1.414.586.586c.713.713 1.699 1.121 2.707 1.121s1.994-.408 2.707-1.121l.586-.586 1.414 1.414-.586.586c-1.085 1.085-2.587 1.707-4.121 1.707z"/></g><g><path d="m32 53c-3.309 0-6-2.691-6-6s2.691-6 6-6 6 2.691 6 6-2.691 6-6 6zm0-10c-2.206 0-4 1.794-4 4s1.794 4 4 4 4-1.794 4-4-1.794-4-4-4z"/></g><g><path d="m45 53c-3.309 0-6-2.691-6-6s2.691-6 6-6 6 2.691 6 6-2.691 6-6 6zm0-10c-2.206 0-4 1.794-4 4s1.794 4 4 4 4-1.794 4-4-1.794-4-4-4z"/></g><g><path d="m19 53c-3.309 0-6-2.691-6-6s2.691-6 6-6 6 2.691 6 6-2.691 6-6 6zm0-10c-2.206 0-4 1.794-4 4s1.794 4 4 4 4-1.794 4-4-1.794-4-4-4z"/></g><g><path d="m31 34h2v8h-2z"/></g><g><path d="m46 42h-2v-3h-24v3h-2v-4c0-.553.447-1 1-1h26c.553 0 1 .447 1 1z"/></g></g></svg>