<svg id="Layer_3" enable-background="new 0 0 64 64" height="512" viewBox="0 0 64 64" width="512" xmlns="http://www.w3.org/2000/svg"><g><g><circle cx="10" cy="50" fill="#f5b953" r="8"/></g><g><path d="m62 32h-19v10h-14v10h-14v10h47z" fill="#8892a0"/></g><g><path d="m35 28v-12h-5l7-7 7 7h-5v12" fill="#669e4f"/></g><g><path d="m53 21v-12h-5l7-7 7 7h-5v12" fill="#669e4f"/></g><g><circle cx="10" cy="10" fill="#f5b953" r="8"/></g><g><circle cx="10" cy="30" fill="#f5b953" r="8"/></g><g><path d="m15 63h-14v-2h13v-9c0-.553.447-1 1-1h13v-9c0-.553.447-1 1-1h13v-9c0-.553.447-1 1-1h13v-22c0-.553.447-1 1-1h2.586l-4.586-4.586-4.586 4.586h2.586c.553 0 1 .447 1 1v12h-2v-11h-4c-.404 0-.77-.243-.924-.617-.155-.374-.069-.804.217-1.09l7-7c.391-.391 1.023-.391 1.414 0l7 7c.286.286.372.716.217 1.09-.154.374-.52.617-.924.617h-4v22c0 .553-.447 1-1 1h-13v9c0 .553-.447 1-1 1h-13v9c0 .553-.447 1-1 1h-13v9c0 .553-.447 1-1 1z"/></g><g><path d="m52 23h2v2h-2z"/></g><g><path d="m52 27h2v2h-2z"/></g><g><path d="m40 39h-2v-23c0-.553.447-1 1-1h2.586l-4.586-4.586-4.586 4.586h2.586c.553 0 1 .447 1 1v12h-2v-11h-4c-.404 0-.77-.243-.924-.617-.155-.374-.069-.804.217-1.09l7-7c.391-.391 1.023-.391 1.414 0l7 7c.286.286.372.716.217 1.09-.154.374-.52.617-.924.617h-4z"/></g><g><path d="m34 30h2v2h-2z"/></g><g><path d="m34 34h2v2h-2z"/></g><g><path d="m12 13h-5v-2h2.586l-2.293-2.293c-.286-.286-.372-.716-.217-1.09.154-.374.52-.617.924-.617h5v2h-2.586l2.293 2.293c.286.286.372.716.217 1.09-.154.374-.52.617-.924.617z"/></g><g><path d="m9 5h2v3h-2z"/></g><g><path d="m9 12h2v3h-2z"/></g><g><path d="m10 19c-4.963 0-9-4.037-9-9s4.037-9 9-9 9 4.037 9 9-4.037 9-9 9zm0-16c-3.859 0-7 3.141-7 7s3.141 7 7 7 7-3.141 7-7-3.141-7-7-7z"/></g><g><path d="m12 33h-5v-2h2.586l-2.293-2.293c-.286-.286-.372-.716-.217-1.09.154-.374.52-.617.924-.617h5v2h-2.586l2.293 2.293c.286.286.372.716.217 1.09-.154.374-.52.617-.924.617z"/></g><g><path d="m9 25h2v3h-2z"/></g><g><path d="m9 32h2v3h-2z"/></g><g><path d="m10 39c-4.963 0-9-4.037-9-9s4.037-9 9-9 9 4.037 9 9-4.037 9-9 9zm0-16c-3.859 0-7 3.141-7 7s3.141 7 7 7 7-3.141 7-7-3.141-7-7-7z"/></g><g><path d="m12 53h-5v-2h2.586l-2.293-2.293c-.286-.286-.372-.716-.217-1.09.154-.374.52-.617.924-.617h5v2h-2.586l2.293 2.293c.286.286.372.716.217 1.09-.154.374-.52.617-.924.617z"/></g><g><path d="m9 45h2v3h-2z"/></g><g><path d="m9 52h2v3h-2z"/></g><g><path d="m10 59c-4.963 0-9-4.037-9-9s4.037-9 9-9 9 4.037 9 9c0 .759-.096 1.516-.283 2.248l-1.938-.496c.147-.571.221-1.16.221-1.752 0-3.859-3.141-7-7-7s-7 3.141-7 7 3.141 7 7 7c1.609 0 3.122-.531 4.374-1.535l1.252 1.561c-1.589 1.273-3.587 1.974-5.626 1.974z"/></g></g></svg>