<svg id="Layer_3" enable-background="new 0 0 64 64" height="512" viewBox="0 0 64 64" width="512" xmlns="http://www.w3.org/2000/svg"><g><g><path d="m7 46 1.562 12.496c.25 2.002 1.952 3.504 3.969 3.504h14.938c2.017 0 3.719-1.502 3.969-3.504l1.562-12.496" fill="#e47c6e"/></g><g><path d="m33 46h-26c-1.105 0-2-.895-2-2 0-1.105.895-2 2-2h26c1.105 0 2 .895 2 2 0 1.105-.895 2-2 2z" fill="#4d5d7a"/></g><g><path d="m22 32v3h3l-5 5-5-5h3v-3" fill="#f5b953"/></g><g><path d="m15 26h10v4h-10z" fill="#4d5d7a"/></g><g><path d="m38 20v6h-36v-24h36v14" fill="#c7e2fc"/></g><g><path d="m2 17.417c3.28 1.63 7.237 2.583 11.5 2.583 11.322 0 20.5-6.716 20.5-15 0-1.028-.143-2.031-.412-3h-31.588z" fill="#ebf7fe"/></g><g><circle cx="20" cy="14" fill="#f5b953" r="8"/></g><g><path d="m62 6h-5l-4-2h-11v12h-10v4h14v4h7l4-4h5" fill="#efbe9a"/></g><g><path d="m38 27h-36c-.552 0-1-.447-1-1v-24c0-.553.448-1 1-1h36c.552 0 1 .447 1 1v14h-2v-13h-34v22h34v-5h2v6c0 .553-.448 1-1 1z"/></g><g><path d="m14 26h2v4h-2z"/></g><g><path d="m24 26h2v4h-2z"/></g><g><path d="m12 29h16v2h-16z"/></g><g><path d="m61 3h2v20h-2z"/></g><g><path d="m48 9h-6c-.552 0-1-.447-1-1v-4c0-.553.448-1 1-1h11c.155 0 .309.036.447.105l3.789 1.895h4.764v2h-5c-.155 0-.309-.036-.447-.105l-3.789-1.895h-9.764v2h5z"/></g><g><path d="m48 13h-6c-.552 0-1-.447-1-1v-4c0-.553.448-1 1-1h6v2h-5v2h5z"/></g><g><path d="m48 17h-6c-.552 0-1-.447-1-1v-4c0-.553.448-1 1-1h6v2h-5v2h5z"/></g><g><path d="m53 25h-7c-.552 0-1-.447-1-1v-4c0-.553.448-1 1-1h4v2h-3v2h5.586l3.707-3.707c.187-.188.442-.293.707-.293h5v2h-4.586l-3.707 3.707c-.187.188-.442.293-.707.293z"/></g><g><path d="m50 21h-18c-.552 0-1-.447-1-1v-4c0-.553.448-1 1-1h16v2h-15v2h17z"/></g><g><path d="m22 17h-5v-2h2.586l-2.293-2.293c-.286-.286-.372-.716-.217-1.09s.52-.617.924-.617h5v2h-2.586l2.293 2.293c.286.286.372.716.217 1.09s-.52.617-.924.617z"/></g><g><path d="m19 9h2v3h-2z"/></g><g><path d="m19 16h2v3h-2z"/></g><g><path d="m20 23c-4.962 0-9-4.037-9-9s4.038-9 9-9 9 4.037 9 9-4.038 9-9 9zm0-16c-3.86 0-7 3.141-7 7s3.14 7 7 7 7-3.141 7-7-3.14-7-7-7z"/></g><g><path d="m33 47h-26c-1.654 0-3-1.346-3-3s1.346-3 3-3h26c1.654 0 3 1.346 3 3s-1.346 3-3 3zm-26-4c-.551 0-1 .448-1 1s.449 1 1 1h26c.551 0 1-.448 1-1s-.449-1-1-1z"/></g><g><path d="m27.469 63h-14.938c-2.517 0-4.65-1.883-4.961-4.38l-1.562-12.496 1.984-.248 1.562 12.496c.187 1.498 1.467 2.628 2.977 2.628h14.938c1.51 0 2.79-1.13 2.977-2.628l1.562-12.496 1.984.248-1.562 12.496c-.311 2.497-2.445 4.38-4.961 4.38z"/></g><g><path d="m13 49h2v10h-2z"/></g><g><path d="m17 49h2v10h-2z"/></g><g><path d="m21 49h2v10h-2z"/></g><g><path d="m25 49h2v10h-2z"/></g><g><path d="m20 41c-.256 0-.512-.098-.707-.293l-5-5c-.286-.286-.372-.716-.217-1.09s.52-.617.924-.617h2v-2h2v3c0 .553-.448 1-1 1h-.586l2.586 2.586 2.586-2.586h-.586c-.552 0-1-.447-1-1v-3h2v2h2c.404 0 .769.243.924.617s.069.804-.217 1.09l-5 5c-.195.195-.451.293-.707.293z"/></g></g></svg>