<svg id="Layer_3" enable-background="new 0 0 64 64" height="512" viewBox="0 0 64 64" width="512" xmlns="http://www.w3.org/2000/svg"><g><g><path d="m16 40v4h4v-4" fill="#3d98f7"/></g><g><path d="m15 30c-3.866 0-7 3.134-7 7v21h-4v-21c0-6.075 4.925-11 11-11" fill="#3d98f7"/></g><g><path d="m21 24h3v10h-3z" fill="#3d98f7"/></g><g><path d="m2 58h24v4h-24z" fill="#f5b953"/></g><g><path d="m15 22h6v18h-6z" fill="#f5b953"/></g><g><path d="m62 12h-10v-10h-24v44h34z" fill="#c7e2fc"/></g><g><circle cx="37" cy="10" fill="#fff" r="5"/></g><g><circle cx="37" cy="24" fill="#fff" r="5"/></g><g><circle cx="37" cy="38" fill="#fff" r="5"/></g><g><path d="m62 12h-10v-10" fill="#8892a0"/></g><g><path d="m26 63h-24c-.552 0-1-.447-1-1v-4c0-.553.448-1 1-1h24c.552 0 1 .447 1 1v4c0 .553-.448 1-1 1zm-23-2h22v-2h-22z"/></g><g><path d="m5 58h-2v-21c0-6.617 5.383-12 12-12v2c-5.514 0-10 4.486-10 10z"/></g><g><path d="m9 58h-2v-21c0-4.411 3.589-8 8-8v2c-3.309 0-6 2.691-6 6z"/></g><g><path d="m21 41h-6c-.552 0-1-.447-1-1v-18c0-.553.448-1 1-1h6c.552 0 1 .447 1 1v18c0 .553-.448 1-1 1zm-5-2h4v-16h-4z"/></g><g><path d="m14 17h8v2h-8z"/></g><g><path d="m17 18h2v4h-2z"/></g><g><path d="m20 45h-4c-.552 0-1-.447-1-1v-4h2v3h2v-3h2v4c0 .553-.448 1-1 1z"/></g><g><path d="m24 35h-3v-2h2v-8h-2v-2h3c.552 0 1 .447 1 1v10c0 .553-.448 1-1 1z"/></g><g><path d="m11 53h14v2h-14z"/></g><g><path d="m17 54h2v4h-2z"/></g><g><path d="m62 47h-34c-.552 0-1-.447-1-1v-44c0-.553.448-1 1-1h24c.552 0 1 .447 1 1v9h9c.552 0 1 .447 1 1v34c0 .553-.448 1-1 1zm-33-2h32v-32h-9c-.552 0-1-.447-1-1v-9h-22z"/></g><g><path d="m56-.071h2v14.142h-2z" transform="matrix(.707 -.707 .707 .707 11.745 42.355)"/></g><g><path d="m37 16c-3.309 0-6-2.691-6-6s2.691-6 6-6 6 2.691 6 6-2.691 6-6 6zm0-10c-2.206 0-4 1.794-4 4s1.794 4 4 4 4-1.794 4-4-1.794-4-4-4z"/></g><g><path d="m34.55 6.5h9.899v2h-9.899z" transform="matrix(.707 -.707 .707 .707 6.266 30.127)"/></g><g><path d="m37 30c-3.309 0-6-2.691-6-6s2.691-6 6-6 6 2.691 6 6-2.691 6-6 6zm0-10c-2.206 0-4 1.794-4 4s1.794 4 4 4 4-1.794 4-4-1.794-4-4-4z"/></g><g><path d="m34.55 20.5h9.899v2h-9.899z" transform="matrix(.707 -.707 .707 .707 -3.634 34.228)"/></g><g><path d="m37 44c-3.309 0-6-2.691-6-6s2.691-6 6-6 6 2.691 6 6-2.691 6-6 6zm0-10c-2.206 0-4 1.794-4 4s1.794 4 4 4 4-1.794 4-4-1.794-4-4-4z"/></g><g><path d="m34.55 34.5h9.899v2h-9.899z" transform="matrix(.707 -.707 .707 .707 -13.533 38.328)"/></g><g><path d="m46 28h2v2h-2z"/></g><g><path d="m50 28h9v2h-9z"/></g><g><path d="m46 24h2v2h-2z"/></g><g><path d="m50 24h9v2h-9z"/></g><g><path d="m46 42h2v2h-2z"/></g><g><path d="m50 42h9v2h-9z"/></g><g><path d="m46 38h2v2h-2z"/></g><g><path d="m50 38h9v2h-9z"/></g></g></svg>