<svg id="Layer_3" enable-background="new 0 0 64 64" height="512" viewBox="0 0 64 64" width="512" xmlns="http://www.w3.org/2000/svg"><g><g><path d="m13 2h42v56h-42z" fill="#c7e2fc"/></g><g><path d="m51 62v-48h-8v-8h-34v56z" fill="#c7e2fc"/></g><g><path d="m43 6h-17.708c-2.725 5.002-4.292 10.805-4.292 17 0 18.063 13.259 32.829 30 33.927v-42.927h-8z" fill="#ebf7fe"/></g><g><path d="m51 14h-8v-8" fill="#8892a0"/></g><g><circle cx="26" cy="22" fill="#fff" r="13"/></g><g><path d="m22 22h8c1.105 0 2 .895 2 2v6h-12v-6c0-1.105.895-2 2-2z" fill="#3d98f7"/></g><g><path d="m26 12c1.657 0 3 1.343 3 3v2c0 1.657-1.343 3-3 3-1.657 0-3-1.343-3-3v-2c0-1.657 1.343-3 3-3z" fill="#efbe9a"/></g><g><path d="m51 63h-42c-.552 0-1-.447-1-1v-56c0-.553.448-1 1-1h34c.552 0 1 .447 1 1v7h7c.552 0 1 .447 1 1v48c0 .553-.448 1-1 1zm-41-2h40v-46h-7c-.552 0-1-.447-1-1v-7h-32z"/></g><g><path d="m46 4.343h2v11.314h-2z" transform="matrix(.707 -.707 .707 .707 6.695 36.163)"/></g><g><path d="m12 37h36v2h-36z"/></g><g><path d="m12 41h36v2h-36z"/></g><g><path d="m12 45h36v2h-36z"/></g><g><path d="m12 49h36v2h-36z"/></g><g><path d="m12 53h18v2h-18z"/></g><g><path d="m12 57h18v2h-18z"/></g><g><path d="m55 59h-4v-2h3v-54h-40v3h-2v-4c0-.553.448-1 1-1h42c.552 0 1 .447 1 1v56c0 .553-.448 1-1 1z"/></g><g><path d="m32 31h-12c-.552 0-1-.447-1-1v-6c0-1.654 1.346-3 3-3h8c1.654 0 3 1.346 3 3v6c0 .553-.448 1-1 1zm-11-2h10v-5c0-.552-.449-1-1-1h-8c-.551 0-1 .448-1 1z"/></g><g><path d="m28 25h2v5h-2z"/></g><g><path d="m22 25h2v5h-2z"/></g><g><path d="m26 21c-2.206 0-4-1.794-4-4v-2c0-2.206 1.794-4 4-4s4 1.794 4 4v2c0 2.206-1.794 4-4 4zm0-8c-1.103 0-2 .897-2 2v2c0 1.103.897 2 2 2s2-.897 2-2v-2c0-1.103-.897-2-2-2z"/></g><g><path d="m26 36c-7.72 0-14-6.28-14-14s6.28-14 14-14 14 6.28 14 14-6.28 14-14 14zm0-26c-6.617 0-12 5.383-12 12s5.383 12 12 12 12-5.383 12-12-5.383-12-12-12z"/></g></g></svg>