<svg id="Layer_3" enable-background="new 0 0 64 64" height="512" viewBox="0 0 64 64" width="512" xmlns="http://www.w3.org/2000/svg"><g><g><path d="m24 8h22v-2c0-2.209 1.791-4 4-4 2.209 0 4 1.791 4 4v50h-22v2c0 2.209-1.791 4-4 4-2.209 0-4-1.791-4-4z" fill="#c7e2fc"/></g><g><path d="m49 22.5c0-5.592-1.087-10.853-3-15.447v.947h-22v47c13.807 0 25-14.551 25-32.5z" fill="#ebf7fe"/></g><g><path d="m50 2h-30c-2.209 0-4 1.791-4 4v2h30v-2c0-2.209 1.791-4 4-4z" fill="#a1cdfb"/></g><g><path d="m28 62h30c2.209 0 4-1.791 4-4v-2h-30v2c0 2.209-1.791 4-4 4z" fill="#a1cdfb"/></g><g><circle cx="40" cy="22" fill="#f5b953" r="8"/></g><g><circle cx="40" cy="42" fill="#f5b953" r="8"/></g><g><circle cx="40" cy="42" fill="#fff" r="5"/></g><g><circle cx="40" cy="22" fill="#fff" r="5"/></g><g><path d="m4 22h22c1.105 0 2 .895 2 2v30c0 1.105-.895 2-2 2h-22c-1.105 0-2-.895-2-2v-30c0-1.105.895-2 2-2z" fill="#f5b953"/></g><g><path d="m5 25h20v6h-20z" fill="#fff"/></g><g><path d="m5 35h4v4h-4z" fill="#fff"/></g><g><path d="m13 35h4v4h-4z" fill="#fff"/></g><g><path d="m21 35h4v4h-4z" fill="#fff"/></g><g><path d="m5 42h4v4h-4z" fill="#fff"/></g><g><path d="m13 42h4v4h-4z" fill="#fff"/></g><g><path d="m21 42h4v4h-4z" fill="#fff"/></g><g><path d="m5 49h4v4h-4z" fill="#fff"/></g><g><path d="m13 49h4v4h-4z" fill="#fff"/></g><g><path d="m21 49h4v4h-4z" fill="#fff"/></g><g><path d="m58 63h-30c-2.757 0-5-2.243-5-5v-2h2v2c0 1.654 1.346 3 3 3s3-1.346 3-3v-2c0-.552.448-1 1-1h30c.552 0 1 .448 1 1v2c0 2.757-2.243 5-5 5zm-26.002-2h26.002c1.654 0 3-1.346 3-3v-1h-28v1c0 1.125-.374 2.164-1.002 3z"/></g><g><path d="m23 8h2v14h-2z"/></g><g><path d="m23 8h2v14h-2z"/></g><g><path d="m55 56h-2v-50c0-1.654-1.346-3-3-3s-3 1.346-3 3v2c0 .552-.448 1-1 1h-30c-.552 0-1-.448-1-1v-2c0-2.757 2.243-5 5-5h30c2.757 0 5 2.243 5 5zm-38-49h28v-1c0-1.125.374-2.164 1.002-3h-26.002c-1.654 0-3 1.346-3 3z"/></g><g><path d="m26 57h-22c-1.654 0-3-1.346-3-3v-30c0-1.654 1.346-3 3-3h22c1.654 0 3 1.346 3 3v30c0 1.654-1.346 3-3 3zm-22-34c-.551 0-1 .449-1 1v30c0 .551.449 1 1 1h22c.551 0 1-.449 1-1v-30c0-.551-.449-1-1-1z"/></g><g><path d="m25 32h-20c-.552 0-1-.448-1-1v-6c0-.552.448-1 1-1h20c.552 0 1 .448 1 1v6c0 .552-.448 1-1 1zm-19-2h18v-4h-18z"/></g><g><path d="m9 40h-4c-.552 0-1-.448-1-1v-4c0-.552.448-1 1-1h4c.552 0 1 .448 1 1v4c0 .552-.448 1-1 1zm-3-2h2v-2h-2z"/></g><g><path d="m17 40h-4c-.552 0-1-.448-1-1v-4c0-.552.448-1 1-1h4c.552 0 1 .448 1 1v4c0 .552-.448 1-1 1zm-3-2h2v-2h-2z"/></g><g><path d="m25 40h-4c-.552 0-1-.448-1-1v-4c0-.552.448-1 1-1h4c.552 0 1 .448 1 1v4c0 .552-.448 1-1 1zm-3-2h2v-2h-2z"/></g><g><path d="m9 47h-4c-.552 0-1-.448-1-1v-4c0-.552.448-1 1-1h4c.552 0 1 .448 1 1v4c0 .552-.448 1-1 1zm-3-2h2v-2h-2z"/></g><g><path d="m17 47h-4c-.552 0-1-.448-1-1v-4c0-.552.448-1 1-1h4c.552 0 1 .448 1 1v4c0 .552-.448 1-1 1zm-3-2h2v-2h-2z"/></g><g><path d="m25 47h-4c-.552 0-1-.448-1-1v-4c0-.552.448-1 1-1h4c.552 0 1 .448 1 1v4c0 .552-.448 1-1 1zm-3-2h2v-2h-2z"/></g><g><path d="m9 54h-4c-.552 0-1-.448-1-1v-4c0-.552.448-1 1-1h4c.552 0 1 .448 1 1v4c0 .552-.448 1-1 1zm-3-2h2v-2h-2z"/></g><g><path d="m17 54h-4c-.552 0-1-.448-1-1v-4c0-.552.448-1 1-1h4c.552 0 1 .448 1 1v4c0 .552-.448 1-1 1zm-3-2h2v-2h-2z"/></g><g><path d="m25 54h-4c-.552 0-1-.448-1-1v-4c0-.552.448-1 1-1h4c.552 0 1 .448 1 1v4c0 .552-.448 1-1 1zm-3-2h2v-2h-2z"/></g><g><path d="m40 28c-1.654 0-3-1.346-3-3v-1h2v1c0 .551.449 1 1 1s1-.449 1-1v-1c0-.551-.449-1-1-1-1.654 0-3-1.346-3-3v-1c0-1.654 1.346-3 3-3s3 1.346 3 3v1h-2v-1c0-.551-.449-1-1-1s-1 .449-1 1v1c0 .551.449 1 1 1 1.654 0 3 1.346 3 3v1c0 1.654-1.346 3-3 3z"/></g><g><path d="m40 31c-4.962 0-9-4.038-9-9s4.038-9 9-9 9 4.038 9 9-4.038 9-9 9zm0-16c-3.86 0-7 3.14-7 7s3.14 7 7 7 7-3.14 7-7-3.14-7-7-7z"/></g><g><path d="m39 14h2v3h-2z"/></g><g><path d="m39 27h2v3h-2z"/></g><g><path d="m40 48c-1.654 0-3-1.346-3-3v-1h2v1c0 .551.449 1 1 1s1-.449 1-1v-1c0-.551-.449-1-1-1-1.654 0-3-1.346-3-3v-1c0-1.654 1.346-3 3-3s3 1.346 3 3v1h-2v-1c0-.551-.449-1-1-1s-1 .449-1 1v1c0 .551.449 1 1 1 1.654 0 3 1.346 3 3v1c0 1.654-1.346 3-3 3z"/></g><g><path d="m40 51c-4.962 0-9-4.038-9-9s4.038-9 9-9 9 4.038 9 9-4.038 9-9 9zm0-16c-3.86 0-7 3.14-7 7s3.14 7 7 7 7-3.14 7-7-3.14-7-7-7z"/></g><g><path d="m39 34h2v3h-2z"/></g><g><path d="m39 47h2v3h-2z"/></g></g></svg>