<svg id="Layer_3" enable-background="new 0 0 64 64" height="512" viewBox="0 0 64 64" width="512" xmlns="http://www.w3.org/2000/svg"><g><g><path d="m60 6v26h-34v-26" fill="#c7e2fc"/></g><g><path d="m55.5 26c1.54 0 3.043-.133 4.5-.38v-19.62h-27.986c.306 11.09 10.7 20 23.486 20z" fill="#ebf7fe"/></g><g><circle cx="38" cy="18" fill="#c66b60" r="8"/></g><g><path d="m38 18v-8c-2.209 0-4.209.895-5.657 2.343z" fill="#f5b953"/></g><g><path d="m38 10v8h8c0-4.418-3.582-8-8-8z" fill="#669e4f"/></g><g><path d="m24 2h38v4h-38z" fill="#8892a0"/></g><g><path d="m4 54h8c1.105 0 2 .895 2 2v6h-12v-6c0-1.105.895-2 2-2z" fill="#669e4f"/></g><g><path d="m20 54h8c1.105 0 2 .895 2 2v6h-12v-6c0-1.105.895-2 2-2z" fill="#669e4f"/></g><g><path d="m36 54h8c1.105 0 2 .895 2 2v6h-12v-6c0-1.105.895-2 2-2z" fill="#669e4f"/></g><g><path d="m52 54h8c1.105 0 2 .895 2 2v6h-12v-6c0-1.105.895-2 2-2z" fill="#669e4f"/></g><g><path d="m8 44c1.657 0 3 1.343 3 3v2c0 1.657-1.343 3-3 3-1.657 0-3-1.343-3-3v-2c0-1.657 1.343-3 3-3z" fill="#efbe9a"/></g><g><path d="m24 44c1.657 0 3 1.343 3 3v2c0 1.657-1.343 3-3 3-1.657 0-3-1.343-3-3v-2c0-1.657 1.343-3 3-3z" fill="#efbe9a"/></g><g><path d="m40 44c1.657 0 3 1.343 3 3v2c0 1.657-1.343 3-3 3-1.657 0-3-1.343-3-3v-2c0-1.657 1.343-3 3-3z" fill="#efbe9a"/></g><g><path d="m56 44c1.657 0 3 1.343 3 3v2c0 1.657-1.343 3-3 3-1.657 0-3-1.343-3-3v-2c0-1.657 1.343-3 3-3z" fill="#efbe9a"/></g><g><path d="m21 13v-4c0-1.657-1.343-3-3-3v-1c0-1.657-1.343-3-3-3h-9c-1.657 0-3 1.343-3 3v8" fill="#976947"/></g><g><path d="m22 33v-5.531c0-1.991-1.464-3.678-3.434-3.96l-3.566-.509v-3h-6v3l-3.566.509c-1.97.282-3.434 1.97-3.434 3.96v5.531" fill="#2b74ca"/></g><g><path d="m15 23 3 .429v4.571h-2l1 2-2 3h-3z" fill="#3d98f7"/></g><g><path d="m15 19v4l-3 10-3-10v-4" fill="#efbe9a"/></g><g><path d="m9 23-3 .429v4.571h2l-1 2 2 3h3z" fill="#3d98f7"/></g><g><path d="m18 12h2c1.105 0 2 .895 2 2 0 1.105-.895 2-2 2h-2" fill="#db9b7c"/></g><g><path d="m6 12h-2c-1.105 0-2 .895-2 2 0 1.105.895 2 2 2h2" fill="#db9b7c"/></g><g><path d="m14 7c0 1.657 1.343 3 3 3h1v5c0 3.314-2.686 6-6 6-3.314 0-6-2.686-6-6v-5h5c1.657 0 3-1.343 3-3z" fill="#efbe9a"/></g><g><path d="m12 22c-3.86 0-7-3.14-7-7v-5c0-.552.448-1 1-1h5c1.103 0 2-.897 2-2 0-.552.448-1 1-1s1 .448 1 1c0 1.103.897 2 2 2h1c.552 0 1 .448 1 1v5c0 3.86-3.14 7-7 7zm-5-11v4c0 2.757 2.243 5 5 5s5-2.243 5-5v-4c-1.193 0-2.267-.525-3-1.357-.733.832-1.807 1.357-3 1.357z"/></g><g><path d="m20 17h-2v-2h2c.551 0 1-.449 1-1s-.449-1-1-1h-2v-2h2c1.654 0 3 1.346 3 3s-1.346 3-3 3z"/></g><g><path d="m6 17h-2c-1.654 0-3-1.346-3-3s1.346-3 3-3h2v2h-2c-.551 0-1 .449-1 1s.449 1 1 1h2z"/></g><g><path d="m22 12h-2v-3c0-1.103-.897-2-2-2-.552 0-1-.448-1-1v-1c0-1.103-.897-2-2-2h-9c-1.103 0-2 .897-2 2v7h-2v-7c0-2.206 1.794-4 4-4h9c2.206 0 4 1.794 4 4v.126c1.723.446 3 2.014 3 3.874z"/></g><g><path d="m22 34h-20c-.552 0-1-.447-1-1v-5.531c0-2.472 1.845-4.6 4.292-4.95l2.708-.386v-2.133h2v3c0 .498-.366.919-.858.99l-3.566.509c-1.469.21-2.576 1.487-2.576 2.97v4.531h18v-4.531c0-1.483-1.107-2.76-2.576-2.97l-3.566-.509c-.492-.071-.858-.492-.858-.99v-3h2v2.133l2.708.387c2.447.35 4.292 2.478 4.292 4.95v5.53c0 .553-.448 1-1 1z"/></g><g><path d="m12 34c-.441 0-.831-.29-.958-.713l-3-10 1.916-.574 2.042 6.807 2.042-6.807 1.916.574-3 10c-.127.423-.517.713-.958.713z"/></g><g><path d="m8.168 33.555-2-3c-.199-.298-.223-.681-.062-1.002l.276-.553h-.382c-.552 0-1-.448-1-1v-4h2v3h1c.347 0 .668.18.851.474.182.295.199.663.044.973l-.741 1.481 1.678 2.517z"/></g><g><path d="m15.832 33.555-1.664-1.109 1.678-2.517-.741-1.481c-.155-.31-.138-.678.044-.973.183-.295.504-.475.851-.475h1v-3h2v4c0 .552-.448 1-1 1h-.382l.276.553c.16.321.137.704-.062 1.002z"/></g><g><path d="m62 7h-38c-.552 0-1-.448-1-1v-4c0-.552.448-1 1-1h38c.552 0 1 .448 1 1v4c0 .552-.448 1-1 1zm-37-2h36v-2h-36z"/></g><g><path d="m60 33h-34c-.552 0-1-.448-1-1v-26h2v25h32v-25h2v26c0 .552-.448 1-1 1z"/></g><g><path d="m38 27c-4.962 0-9-4.038-9-9s4.038-9 9-9 9 4.038 9 9-4.038 9-9 9zm0-16c-3.86 0-7 3.14-7 7s3.14 7 7 7 7-3.14 7-7-3.14-7-7-7z"/></g><g><path d="m46 19h-8c-.552 0-1-.448-1-1v-8h2v7h7z"/></g><g><path d="m34 10.757h2v8.485h-2z" transform="matrix(.707 -.707 .707 .707 -.355 29.142)"/></g><g><path d="m55 18h2v11h-2z"/></g><g><path d="m51 23h2v6h-2z"/></g><g><path d="m47 27h2v2h-2z"/></g><g><path d="m14 63h-12c-.552 0-1-.447-1-1v-6c0-1.654 1.346-3 3-3h8c1.654 0 3 1.346 3 3v6c0 .553-.448 1-1 1zm-11-2h10v-5c0-.552-.449-1-1-1h-8c-.551 0-1 .448-1 1z"/></g><g><path d="m10 57h2v5h-2z"/></g><g><path d="m4 57h2v5h-2z"/></g><g><path d="m8 53c-2.206 0-4-1.794-4-4v-2c0-2.206 1.794-4 4-4s4 1.794 4 4v2c0 2.206-1.794 4-4 4zm0-8c-1.103 0-2 .897-2 2v2c0 1.103.897 2 2 2s2-.897 2-2v-2c0-1.103-.897-2-2-2z"/></g><g><path d="m30 63h-12c-.552 0-1-.447-1-1v-6c0-1.654 1.346-3 3-3h8c1.654 0 3 1.346 3 3v6c0 .553-.448 1-1 1zm-11-2h10v-5c0-.552-.449-1-1-1h-8c-.551 0-1 .448-1 1z"/></g><g><path d="m26 57h2v5h-2z"/></g><g><path d="m20 57h2v5h-2z"/></g><g><path d="m24 53c-2.206 0-4-1.794-4-4v-2c0-2.206 1.794-4 4-4s4 1.794 4 4v2c0 2.206-1.794 4-4 4zm0-8c-1.103 0-2 .897-2 2v2c0 1.103.897 2 2 2s2-.897 2-2v-2c0-1.103-.897-2-2-2z"/></g><g><path d="m46 63h-12c-.552 0-1-.447-1-1v-6c0-1.654 1.346-3 3-3h8c1.654 0 3 1.346 3 3v6c0 .553-.448 1-1 1zm-11-2h10v-5c0-.552-.449-1-1-1h-8c-.551 0-1 .448-1 1z"/></g><g><path d="m42 57h2v5h-2z"/></g><g><path d="m36 57h2v5h-2z"/></g><g><path d="m40 53c-2.206 0-4-1.794-4-4v-2c0-2.206 1.794-4 4-4s4 1.794 4 4v2c0 2.206-1.794 4-4 4zm0-8c-1.103 0-2 .897-2 2v2c0 1.103.897 2 2 2s2-.897 2-2v-2c0-1.103-.897-2-2-2z"/></g><g><path d="m62 63h-12c-.552 0-1-.447-1-1v-6c0-1.654 1.346-3 3-3h8c1.654 0 3 1.346 3 3v6c0 .553-.448 1-1 1zm-11-2h10v-5c0-.552-.449-1-1-1h-8c-.551 0-1 .448-1 1z"/></g><g><path d="m58 57h2v5h-2z"/></g><g><path d="m52 57h2v5h-2z"/></g><g><path d="m56 53c-2.206 0-4-1.794-4-4v-2c0-2.206 1.794-4 4-4s4 1.794 4 4v2c0 2.206-1.794 4-4 4zm0-8c-1.103 0-2 .897-2 2v2c0 1.103.897 2 2 2s2-.897 2-2v-2c0-1.103-.897-2-2-2z"/></g></g></svg>