<?xml version="1.0" encoding="utf-8"?>
<!-- Generator: Adobe Illustrator 19.0.0, SVG Export Plug-In . SVG Version: 6.00 Build 0)  -->
<svg version="1.1" id="Layer_1" xmlns="http://www.w3.org/2000/svg" xmlns:xlink="http://www.w3.org/1999/xlink" x="0px" y="0px"
	 viewBox="0 0 512 512" style="enable-background:new 0 0 512 512;" xml:space="preserve">
<style type="text/css">
	.st0{fill:none;stroke:#58595B;stroke-width:32.4352;stroke-miterlimit:10;}
	.st1{fill:none;stroke:#58595B;stroke-width:23.0657;stroke-miterlimit:10;}
	.st2{fill:#196FD9;}
</style>
<path id="XMLID_77_" class="st0" d="M352.4,411.6H160.3c-41,0-74.2-33.2-74.2-74.2V234.7c0-41,33.2-74.2,74.2-74.2h192.1
	c41,0,74.2,33.2,74.2,74.2v102.7C426.7,378.4,393.4,411.6,352.4,411.6z"/>
<path id="XMLID_82_" class="st1" d="M283.3,160.5h-53.9c-10.5,0-19-8.5-19-19v-23c0-10.5,8.5-19,19-19h53.9c10.5,0,19,8.5,19,19v23
	C302.3,152,293.8,160.5,283.3,160.5z"/>
<path id="XMLID_83_" class="st1" d="M419.5,203.1c0,0-145.2,153.3-326.3,0"/>
<path id="XMLID_79_" class="st2" d="M267.1,313.6h-21.5c-11.1,0-20-9-20-20v-31.5c0-11.1,9-20,20-20h21.5c11.1,0,20,9,20,20v31.5
	C287.1,304.7,278.1,313.6,267.1,313.6z"/>
</svg>
