<?xml version="1.0" encoding="utf-8"?>
<!-- Generator: Adobe Illustrator 19.0.0, SVG Export Plug-In . SVG Version: 6.00 Build 0)  -->
<svg version="1.1" id="Layer_1" xmlns="http://www.w3.org/2000/svg" xmlns:xlink="http://www.w3.org/1999/xlink" x="0px" y="0px"
	 viewBox="0 0 512 512" style="enable-background:new 0 0 512 512;" xml:space="preserve">
<style type="text/css">
	.st0{fill:#196FD9;}
	.st1{fill:#58595B;}
	.st2{fill:#00A3EA;}
	.st3{fill:#FEFEFE;}
	.st4{fill:#292929;}
	.st5{fill:#2D2D2D;}
	.st6{fill:#2A2A2A;}
	.st7{fill:#2C2C2C;}
	.st8{fill:#2F2F2F;}
	.st9{fill:#303030;}
	.st10{fill:#252525;}
	.st11{fill:#333333;}
	.st12{fill:#FFFFFF;}
</style>
<g id="XMLID_86_">
	<path id="XMLID_502_" class="st0" d="M162.4,382.5c-63.4,0-114.8-51.4-114.8-114.8c0-63.3,51.5-114.7,114.9-114.7
		c63.3,0,114.7,51.6,114.6,115C277,331.1,225.5,382.5,162.4,382.5z"/>
	<path id="XMLID_501_" class="st1" d="M341.3,146.7c62.3,0.1,110.1,40.5,119.4,95.7c10.4,61.7-31,120.8-92.5,131.6
		c-38.1,6.7-71.6-3.7-100.1-29.9c-1.3-1.2-1.4-1.9-0.4-3.4c16.8-24.8,24.6-52.3,22.7-82.3c-1.7-26.5-11.6-49.9-28.1-70.6
		c-1.1-1.4-1.1-2.1,0.1-3.4C285.4,159.6,313.9,147.2,341.3,146.7z"/>
	<path id="XMLID_494_" class="st2" d="M123.9,130.2c1,0.1,2.1-0.4,2.9,0.5C125.8,130.8,124.8,130.8,123.9,130.2z"/>
	<path id="XMLID_401_" class="st3" d="M355.3,247.9c5.2,1.7,10.4,3.2,15.5,5c17.3,5.9,27.6,19.4,28.2,36.7
		c0.6,18-9.3,33.8-25.4,40.8c-4.5,2-9.2,3.1-14,4.2c-0.3,0.3-0.6,0.4-1,0.5c-0.9,0-1.8,0-2.7,0.3c-1.2,0.4-0.6,1.5-0.7,2.2
		c-0.2,4,0.3,8.1-0.3,12.1c-1,3.4-2.8,5.8-6.5,6.3c-4.4,0.6-8.1-2.6-8.2-7.1c-0.1-3.8-0.2-7.6,0-11.4c0.1-1.9-0.6-2.5-2.4-2.8
		c-8.4-1-16.3-3.7-23.3-8.7c-9.3-6.6-15.8-15.1-18.1-26.5c-0.6-2.9-0.8-5.8,0-8.7c1.6-5.2,6.5-8.8,12.4-9c5.8-0.2,9.7,2.5,11.7,8.1
		c1.3,3.6,2.6,7.3,4,10.9c2.7,6.5,7.3,10.9,13.8,13.6c1.5,0.6,1.8,0.3,1.8-1.3c-0.1-14.1-0.1-28.1-0.1-42.2c0-1.3-0.3-1.9-1.7-2.3
		c-6-1.8-11.9-3.8-17.5-6.5c-13.3-6.5-20.5-17-21.1-32c-0.4-11.7,2.3-22.1,10.9-30.5c7.2-7,16.3-10.1,25.9-11.6
		c0.6-0.1,1.2-0.3,1.8-0.4c0.4-0.5,0.8-0.3,1.3-0.2c0.8-2.4,0.2-4.8,0.3-7.2c0.1-2,0-4.1,0-6.2c0.1-4,2.6-7,6.2-7.5
		c3.9-0.5,7,1.6,8.3,5.5c0.1,0.3,0.2,0.6,0.3,0.9c0.6,4.7,0.4,9.4,0.1,14.1c0.9,1,2.3,0.8,3.4,0.9c15.8,2,27.1,10,33.8,24.5
		c1.2,2.6,2,5.3,2.1,8.2c0.2,5.9-3.6,11.1-9.2,12.5c-6.2,1.5-11.7-1-14.3-6.7c-0.7-1.5-1.1-3.1-1.6-4.7c-2.2-6.5-6.1-11.5-12.8-13.8
		c-1.6,0.2-1.2,1.4-1.2,2.4c0,10.4,0,20.8,0,31.2c0,1.5,0.2,3-0.2,4.4c0,0.2,0,0.3,0,0.5C355.3,246.9,355.3,247.4,355.3,247.9z"/>
	<path id="XMLID_400_" class="st4" d="M355,245.9c0-12.4-0.1-24.9-0.1-37.3c0-1.6,0.7-1.3,1.6-0.7c-1.1,0.7-1,1.9-1,3
		c0,10.8,0,21.5,0,32.3C355.5,244.1,355.8,245.1,355,245.9z"/>
	<path id="XMLID_399_" class="st5" d="M355,349.7c0-4.3,0-8.7-0.1-13c0-1-0.1-2,1.4-1.7c0.8-0.4,1.7,0.1,2.5-0.4
		c0.3,0,0.6-0.1,0.8-0.1c0.5,0.1,1.1,0.1,2,0.2c-1.3,0.3-2.1,0.8-2.9,0.7c-3.4-0.5-3.3,1.6-3.3,4c0.1,3.7,0,7.5,0,11.3
		C354.8,350.5,355.1,350.1,355,349.7z"/>
	<path id="XMLID_398_" class="st6" d="M339.8,187.5c-0.4,0.1-0.8,0.1-1.3,0.2c-0.3,0-0.6-0.1-0.9-0.1c1.9-0.3,1.8-1.6,1.8-3.1
		c-0.1-4,0-8,0.4-12C339.8,177.4,339.8,182.5,339.8,187.5z"/>
	<path id="XMLID_397_" class="st7" d="M355,187.1c0-4.7-0.1-9.4-0.1-14.1c0.1-0.2,0.5-0.6,0.5-0.6C355.3,177.4,356,182.3,355,187.1z
		"/>
	<path id="XMLID_396_" class="st8" d="M299.1,232.1c0-3.1,0-6.1,0-9.2c0.1,0,0.1,0,0.2,0c0,3.1,0,6.1,0,9.2
		C299.2,232.1,299.2,232.1,299.1,232.1z"/>
	<path id="XMLID_395_" class="st9" d="M310.9,281.5c-1.1,0-2.1,0-3.2,0c0-0.1,0-0.2,0-0.3c1.1-0.1,2.1-0.2,3.2-0.3
		C310.9,281.1,310.9,281.3,310.9,281.5z"/>
	<path id="XMLID_394_" class="st4" d="M355.3,247.9c-0.6-0.4-0.3-1-0.3-1.5C355,246.9,356.9,247.1,355.3,247.9z"/>
	<path id="XMLID_380_" class="st1" d="M355.9,274c3.5,0.9,6.8,2.5,9.9,4.4c9.2,5.7,12,17.8,5.9,26.8c-3.9,5.7-9.4,9.3-16.3,10.5
		c-0.4-0.6-0.2-1.2-0.2-1.8c0-12.5,0-25,0-37.5C355.3,275.5,354.9,274.5,355.9,274z"/>
	<path id="XMLID_379_" class="st1" d="M339.4,243c-2.3-0.6-4.3-1.9-6.4-2.9c-13.5-6.8-9.9-25-0.3-30.3c2.1-1.2,4.3-2.4,6.7-2.8
		c0.6,0.7,0.5,1.6,0.5,2.5c0,10.3,0,20.7,0,31C339.8,241.4,340,242.3,339.4,243z"/>
	<path id="XMLID_378_" class="st10" d="M339.4,243c0-12,0-24,0-36c1-0.2,0.7,0.6,0.7,1c0,11.3,0,22.6,0,33.9
		C340.1,242.4,340.4,243.2,339.4,243z"/>
	<path id="XMLID_377_" class="st10" d="M355.9,274c-0.6,0.8-0.5,1.8-0.5,2.7c0,13,0,26,0,39c-1-0.3-0.6-1.2-0.6-1.7
		c0-12.9,0-25.7,0-38.6C354.9,275,354,273.2,355.9,274z"/>
	<path id="XMLID_376_" class="st11" d="M358.8,334.7c-0.7,0.7-1.7,0.4-2.5,0.4C357.1,334.7,357.9,334.6,358.8,334.7z"/>
</g>
<g id="XMLID_5_">
	<path id="XMLID_177_" class="st12" d="M217.7,226c-3.2,4.9-6.2,9.6-9.3,14.2c-0.2,0.4-1,0.6-1.5,0.6c-5.5,0.1-11,0.2-16.5,0.3
		c-0.3,0-0.6,0-1,0c-0.7,5.3-2.3,10.2-4.9,14.7c-4.9,8.7-12.3,14.7-21.4,18.7c-7.2,3.2-14.9,4.8-22.7,5.4c-0.8,0.1-1.6,0.2-2.4,0.3
		c-0.1,0-0.1,0.1-0.3,0.2c2,2.4,3.9,4.9,5.9,7.3c16.4,20.4,32.8,40.9,49.2,61.3c1,1.2,1.3,2.4,1,3.9c-0.3,0-0.7,0.1-1,0.1
		c-6.6,0.1-13.3,0.2-19.9,0.4c-1.2,0-1.9-0.4-2.6-1.2c-10.2-12.1-20.4-24.2-30.6-36.3c-8.9-10.5-17.8-21.1-26.7-31.6
		c-0.3-0.4-0.6-0.8-0.6-1.3c-0.1-4.4-0.2-8.8-0.3-13.2c0-0.2,0.1-0.3,0.1-0.5c6.8,0.6,13.6,0.7,20.3-0.1c8.5-1,16.7-2.9,23.8-7.9
		c6.6-4.6,10.1-11,10.7-19c0-0.4,0-0.8,0-1.3c-20,0-39.9,0-60.1,0c0.7-1,1.2-1.8,1.7-2.6c2.5-3.8,5.1-7.5,7.6-11.3
		c0.5-0.8,1.1-1,2-1c15.1,0,30.2,0,45.3,0c0.5,0,1,0,1.7,0c-1-2.6-2.6-4.6-4.4-6.4c-5.2-5.2-11.8-7.6-18.9-9
		c-6.8-1.3-13.8-0.8-20.6-0.9c-4.5-0.1-9,0-13.8,0c1.3-2,2.3-3.6,3.4-5.2c1.9-2.8,3.8-5.6,5.7-8.5c0.5-0.7,1-1,1.8-1
		c8.4,0,16.9,0,25.3-0.1c24.1-0.1,48.1-0.2,72.2-0.3c0.5,0,1,0,1.8,0c-1.8,2.8-3.4,5.3-5.1,7.8c-1.3,2-2.6,3.9-3.8,5.9
		c-0.6,1-1.3,1.2-2.3,1.2c-7.9,0-15.9,0-23.8,0c-0.5,0-1,0-1.6,0c1.1,1.7,2.1,3.2,3,4.8c2,3.4,3.7,6.9,4.4,10.7
		c0.2,1,0.8,0.9,1.5,0.9c8.7,0,17.3,0,26,0C216.5,226,217,226,217.7,226z"/>
</g>
</svg>
