<?xml version="1.0" encoding="utf-8"?>
<!-- Generator: Adobe Illustrator 19.0.0, SVG Export Plug-In . SVG Version: 6.00 Build 0)  -->
<svg version="1.1" id="Layer_1" xmlns="http://www.w3.org/2000/svg" xmlns:xlink="http://www.w3.org/1999/xlink" x="0px" y="0px"
	 viewBox="0 0 512 512" style="enable-background:new 0 0 512 512;" xml:space="preserve">
<style type="text/css">
	.st0{fill:none;stroke:#58595B;stroke-width:24.8664;stroke-miterlimit:10;}
	.st1{fill:#196FD9;}
</style>
<path id="XMLID_84_" class="st0" d="M317.4,435.9H195.4c-26.8,0-48.5-21.7-48.5-48.5V123.9c0-26.8,21.7-48.5,48.5-48.5h121.9
	c26.8,0,48.5,21.7,48.5,48.5v263.6C365.8,414.2,344.1,435.9,317.4,435.9z"/>
<path id="XMLID_85_" class="st1" d="M294.8,409H218c-20.5,0-37.1-16.6-37.1-37.1V139.5c0-20.5,16.6-37.1,37.1-37.1h76.8
	c20.5,0,37.1,16.6,37.1,37.1v232.3C331.9,392.3,315.3,409,294.8,409z"/>
</svg>
