<svg id="Layer_3" enable-background="new 0 0 64 64" height="512" viewBox="0 0 64 64" width="512" xmlns="http://www.w3.org/2000/svg"><g><path d="m46 62h-42c-1.105 0-2-.895-2-2v-54c0-1.105.895-2 2-2h42c1.105 0 2 .895 2 2v54c0 1.105-.895 2-2 2z" fill="#4d5d7a"/><path d="m18 46v12h26v-50h-38v38z" fill="#c7e2fc"/><path d="m15 20.5c0 16.845 11.864 30.5 26.5 30.5.844 0 1.677-.05 2.5-.139v-42.861h-26.671c-1.492 3.816-2.329 8.044-2.329 12.5z" fill="#ebf7fe"/><circle cx="50" cy="45" fill="#f5b953" r="12"/><circle cx="50" cy="45" fill="#fff" r="9"/><path d="m16 2h18v8h-18z" fill="#976947" transform="matrix(-1 0 0 -1 50 12)"/><path d="m32 14h8v8h-8z" fill="#8892a0" transform="matrix(-1 0 0 -1 72 36)"/><path d="m32 26h8v8h-8z" fill="#8892a0" transform="matrix(-1 0 0 -1 72 60)"/><path d="m6 46h12v12" fill="#8892a0"/><path d="m33.55 14.5h9.899v2h-9.899z" fill="#f5b953" transform="matrix(.707 -.707 .707 .707 .316 31.764)"/><path d="m33.55 26.5h9.899v2h-9.899z" fill="#f5b953" transform="matrix(.707 -.707 .707 .707 -8.169 35.278)"/><g fill="#8892a0"><path d="m27 13h2v2h-2z"/><path d="m9 13h16v2h-16z"/><path d="m9 17h2v2h-2z"/><path d="m13 17h16v2h-16z"/><path d="m27 25h2v2h-2z"/><path d="m9 25h16v2h-16z"/><path d="m9 29h2v2h-2z"/><path d="m13 29h16v2h-16z"/><path d="m27 37h2v2h-2z"/><path d="m9 37h16v2h-16z"/><path d="m9 41h2v2h-2z"/><path d="m13 41h16v2h-16z"/><path d="m50 44c-1.103 0-2-.897-2-2s.897-2 2-2 2 .897 2 2h2c0-1.858-1.28-3.411-3-3.858v-2.142h-2v2.142c-1.72.447-3 2-3 3.858 0 2.206 1.794 4 4 4 1.103 0 2 .897 2 2s-.897 2-2 2-2-.897-2-2h-2c0 1.858 1.28 3.411 3 3.858v2.142h2v-2.142c1.72-.447 3-2 3-3.858 0-2.206-1.794-4-4-4z"/></g></g></svg>