<svg id="Layer_3" enable-background="new 0 0 64 64" height="512" viewBox="0 0 64 64" width="512" xmlns="http://www.w3.org/2000/svg"><g><path d="m47 50h-36v-48h26v10h10z" fill="#c7e2fc"/><path d="m37 2h-11.339c-4.725 4.447-7.661 10.643-7.661 17.5 0 13.531 11.417 24.5 25.5 24.5 1.188 0 2.355-.084 3.5-.235v-31.765h-10z" fill="#ebf7fe"/><path d="m47 12h-10v-10" fill="#8892a0"/><path d="m44 24-2-4h6l-2 4" fill="#976947"/><path d="m51 36v-6c0-3.314-2.686-6-6-6s-6 2.686-6 6v6c-1.105 0-2 .895-2 2s.895 2 2 2h12c1.105 0 2-.895 2-2s-.895-2-2-2z" fill="#976947"/><path d="m41 38c4.418 0 8-3.806 8-8.5 0-1.85-.563-3.557-1.507-4.953-.76-.348-1.602-.547-2.493-.547-3.314 0-6 2.686-6 6v6c-.745 0-1.387.412-1.731 1.016 1.114.626 2.383.984 3.731.984z" fill="#c18e59"/><path d="m35 46-2-4h6l-2 4" fill="#976947"/><path d="m42 58v-6c0-3.314-2.686-6-6-6s-6 2.686-6 6v6c-1.105 0-2 .895-2 2s.895 2 2 2h12c1.105 0 2-.895 2-2s-.895-2-2-2z" fill="#976947"/><path d="m32 60c4.418 0 8-3.806 8-8.5 0-1.85-.563-3.557-1.507-4.953-.76-.348-1.602-.547-2.493-.547-3.314 0-6 2.686-6 6v6c-.745 0-1.387.412-1.731 1.016 1.114.626 2.383.984 3.731.984z" fill="#c18e59"/><path d="m53 46-2-4h6l-2 4" fill="#976947"/><path d="m60 58v-6c0-3.314-2.686-6-6-6s-6 2.686-6 6v6c-1.105 0-2 .895-2 2s.895 2 2 2h12c1.105 0 2-.895 2-2s-.895-2-2-2z" fill="#976947"/><path d="m50 60c4.418 0 8-3.806 8-8.5 0-1.85-.563-3.557-1.507-4.953-.76-.348-1.602-.547-2.493-.547-3.314 0-6 2.686-6 6v6c-.745 0-1.387.412-1.731 1.016 1.114.626 2.383.984 3.731.984z" fill="#c18e59"/><path d="m2 54h3l4 2h11c1.105 0 2-.895 2-2v-10-2c0-1.105-.895-2-2-2h-9v-4h-2l-4 4h-3" fill="#efbe9a"/><path d="m1 37h2v20h-2z" fill="#4472b2"/><g fill="#8892a0"><path d="m14 5h2v2h-2z"/><path d="m18 5h16v2h-16z"/><path d="m32 9h2v2h-2z"/><path d="m14 9h16v2h-16z"/><path d="m14 13h2v2h-2z"/><path d="m18 13h16v2h-16z"/><path d="m14 17h22v2h-22z"/><path d="m14 21h2v2h-2z"/><path d="m18 21h18v2h-18z"/><path d="m14 25h22v2h-22z"/></g><path d="m37 49h-2v2h-1c-.404 0-.769.244-.924.617-.155.374-.069.804.217 1.09l2.293 2.293h-2.586v2h2v2h2v-2h1c.404 0 .769-.244.924-.617.155-.374.069-.804-.217-1.09l-2.293-2.293h2.586v-2h-2z" fill="#f5b953"/><path d="m57 51h-2v-2h-2v2h-1c-.404 0-.769.244-.924.617-.155.374-.069.804.217 1.09l2.293 2.293h-2.586v2h2v2h2v-2h1c.404 0 .769-.244.924-.617.155-.374.069-.804-.217-1.09l-2.293-2.293h2.586z" fill="#f5b953"/><path d="m46 27h-2v2h-1c-.404 0-.769.244-.924.617-.155.374-.069.804.217 1.09l2.293 2.293h-2.586v2h2v2h2v-2h1c.404 0 .769-.244.924-.617.155-.374.069-.804-.217-1.09l-2.293-2.293h2.586v-2h-2z" fill="#f5b953"/><path d="m13 51h9v2h-9z" fill="#db9b7c"/><path d="m13 47h9v2h-9z" fill="#db9b7c"/><path d="m13 43h9v2h-9z" fill="#db9b7c"/></g></svg>