<svg id="Layer_3" enable-background="new 0 0 64 64" height="512" viewBox="0 0 64 64" width="512" xmlns="http://www.w3.org/2000/svg"><g><path d="m62 62v-22h-44v22h4v-4h36v4z" fill="#db9b7c"/><path d="m18 50.36c4.117 2.293 9.112 3.64 14.5 3.64 11.256 0 20.802-5.866 24.184-14h-38.684z" fill="#efbe9a"/><path d="m26 28h4v6h-4z" fill="#8892a0"/><path d="m36 40v-6h-16v6" fill="#4d5d7a"/><path d="m23 24h10v4h-10z" fill="#4d5d7a"/><path d="m13 12c-1.105 0-2 .895-2 2v2h6c-1.105 0-2-.895-2-2 0-1.105-.895-2-2-2z" fill="#a1cdfb"/><path d="m15 14c0 1.105.895 2 2 2 1.105 0 2-.895 2-2v-12h-10v10h4c1.105 0 2 .895 2 2z" fill="#c7e2fc"/><path d="m13 12h-9c-1.105 0-2 .895-2 2v10h9v-10c0-1.105.895-2 2-2z" fill="#ebf7fe"/><path d="m55 29h1.394c2.253 0 4.356-1.126 5.606-3-2.209 0-4-1.791-4-4v-1c0-3.866-3.134-7-7-7-3.866 0-7 3.134-7 7v1c0 2.209-1.791 4-4 4 1.249 1.874 3.353 3 5.606 3h1.394" fill="#976947"/><path d="m60 40h-18v-4c0-3.314 2.686-6 6-6h6c3.314 0 6 2.686 6 6z" fill="#78b75b"/><path d="m49 34 2-2 2 2 2.795-3.726c-.567-.178-1.17-.274-1.795-.274h-6c-.625 0-1.228.096-1.795.274z" fill="#669e4f"/><path d="m51 18c0 2.209 1.791 4 4 4h1v3c0 2.761-2.239 5-5 5-2.761 0-5-2.239-5-5v-3h1c2.209 0 4-1.791 4-4z" fill="#efbe9a"/><path d="m11 4h6v2h-6z" fill="#fff"/><path d="m11 7h4v2h-4z" fill="#fff"/><g fill="#f5b953"><path d="m5 29.184v-2.184h-2v2.184c-1.161.414-2 1.514-2 2.816v1c0 1.654 1.346 3 3 3 .552 0 1 .448 1 1v1c0 .552-.448 1-1 1s-1-.448-1-1v-1h-2v1c0 1.302.839 2.402 2 2.816v2.184h2v-2.184c1.161-.414 2-1.514 2-2.816v-1c0-1.654-1.346-3-3-3-.552 0-1-.448-1-1v-1c0-.552.448-1 1-1s1 .448 1 1v1h2v-1c0-1.302-.839-2.402-2-2.816z"/><path d="m13 29.184v-2.184h-2v2.184c-1.161.414-2 1.514-2 2.816v1c0 1.654 1.346 3 3 3 .552 0 1 .448 1 1v1c0 .552-.448 1-1 1s-1-.448-1-1v-1h-2v1c0 1.302.839 2.402 2 2.816v2.184h2v-2.184c1.161-.414 2-1.514 2-2.816v-1c0-1.654-1.346-3-3-3-.552 0-1-.448-1-1v-1c0-.552.448-1 1-1s1 .448 1 1v1h2v-1c0-1.302-.839-2.402-2-2.816z"/></g></g></svg>