<svg id="Layer_3" enable-background="new 0 0 64 64" height="512" viewBox="0 0 64 64" width="512" xmlns="http://www.w3.org/2000/svg"><g><path d="m39 33h-6v-2h6c.266 0 .52-.105.707-.293l4-4-1.414-1.414-3.707 3.707h-13.172l-3.707-3.707-1.414 1.414 4 4c.187.188.441.293.707.293h6v2h-6c-.266 0-.52.105-.707.293l-4 4 1.414 1.414 3.707-3.707h13.172l3.707 3.707 1.414-1.414-4-4c-.187-.188-.441-.293-.707-.293z" fill="#4d5d7a"/><path d="m2 22 13 8 13-8v-12l-13-8-13 8z" fill="#669e4f"/><path d="m11 16h8c1.105 0 2 .895 2 2v6h-12v-6c0-1.105.895-2 2-2z" fill="#4472b2"/><path d="m15 6c1.657 0 3 1.343 3 3v2c0 1.657-1.343 3-3 3-1.657 0-3-1.343-3-3v-2c0-1.657 1.343-3 3-3z" fill="#efbe9a"/><g><path d="m17 19h2v5h-2z" fill="#2d4d83"/></g><g><path d="m11 19h2v5h-2z" fill="#2d4d83"/></g><path d="m36 22 13 8 13-8v-12l-13-8-13 8z" fill="#669e4f"/><path d="m45 16h8c1.105 0 2 .895 2 2v6h-12v-6c0-1.105.895-2 2-2z" fill="#4472b2"/><path d="m49 6c1.657 0 3 1.343 3 3v2c0 1.657-1.343 3-3 3-1.657 0-3-1.343-3-3v-2c0-1.657 1.343-3 3-3z" fill="#efbe9a"/><g><path d="m51 19h2v5h-2z" fill="#2d4d83"/></g><g><path d="m45 19h2v5h-2z" fill="#2d4d83"/></g><path d="m2 54 13 8 13-8v-12l-13-8-13 8z" fill="#669e4f"/><path d="m11 48h8c1.105 0 2 .895 2 2v6h-12v-6c0-1.105.895-2 2-2z" fill="#4472b2"/><path d="m15 38c1.657 0 3 1.343 3 3v2c0 1.657-1.343 3-3 3-1.657 0-3-1.343-3-3v-2c0-1.657 1.343-3 3-3z" fill="#efbe9a"/><g><path d="m17 51h2v5h-2z" fill="#2d4d83"/></g><g><path d="m11 51h2v5h-2z" fill="#2d4d83"/></g><path d="m36 54 13 8 13-8v-12l-13-8-13 8z" fill="#669e4f"/><path d="m45 48h8c1.105 0 2 .895 2 2v6h-12v-6c0-1.105.895-2 2-2z" fill="#4472b2"/><path d="m49 38c1.657 0 3 1.343 3 3v2c0 1.657-1.343 3-3 3-1.657 0-3-1.343-3-3v-2c0-1.657 1.343-3 3-3z" fill="#efbe9a"/><g><path d="m51 51h2v5h-2z" fill="#2d4d83"/></g><g><path d="m45 51h2v5h-2z" fill="#2d4d83"/></g></g></svg>