<svg id="Layer_3" enable-background="new 0 0 64 64" height="512" viewBox="0 0 64 64" width="512" xmlns="http://www.w3.org/2000/svg"><g><path d="m38 39h2c1.105 0 2-.895 2-2v-15c0-2.209-1.791-4-4-4h-12c-2.209 0-4 1.791-4 4v15c0 1.105.895 2 2 2h2" fill="#8892a0"/><path d="m38 18v5h-2l1 2-5 5-5-5 1-2h-2v-5" fill="#4d5d7a"/><path d="m29 18 3 12 3-12" fill="#fff"/><path d="m26 39h-2c-1.105 0-2-.895-2-2v-2h4z" fill="#efbe9a"/><path d="m40 39h-2v-4h4v2c0 1.105-.895 2-2 2z" fill="#efbe9a"/><path d="m26 35h12v23h-12z" fill="#4d5d7a"/><path d="m32 58h-6c-1.105 0-2 .895-2 2v2h8z" fill="#8892a0"/><path d="m32 58h6c1.105 0 2 .895 2 2v2h-8z" fill="#a8b0bc"/><path d="m28 10h-3c-1.105 0-2 .895-2 2 0 1.105.895 2 2 2h3" fill="#db9b7c"/><path d="m36 10h3c1.105 0 2 .895 2 2 0 1.105-.895 2-2 2h-3" fill="#db9b7c"/><path d="m37 6v7c0 2.761-2.239 5-5 5-2.761 0-5-2.239-5-5v-7" fill="#efbe9a"/><path d="m35 6c0 2.209-3.791 4-6 4h-4v-4c0-2.209 1.791-4 4-4h6c2.209 0 4 1.791 4 4v4c-2.209 0-4-1.791-4-4z" fill="#976947"/><g><path d="m31 40h2v18h-2z" fill="#243242"/></g></g></svg>