<svg id="Layer_3" enable-background="new 0 0 64 64" height="512" viewBox="0 0 64 64" width="512" xmlns="http://www.w3.org/2000/svg"><g><path d="m16 10h10v14h-10z" fill="#3d98f7"/><path d="m38 6h10v18h-10z" fill="#3d98f7"/><path d="m26 2h12v22h-12z" fill="#f5b953"/><path d="m34 40c.613 1.226 1.866 2 3.236 2h.146c1.998 0 3.618 1.62 3.618 3.618v4.382h-18v-4.382c0-1.998 1.62-3.618 3.618-3.618h.146c1.37 0 2.623-.774 3.236-2" fill="#3d98f7"/><path d="m28 42 .586.586c.905.905 2.133 1.414 3.414 1.414s2.509-.509 3.414-1.414l.586-.586.122-.183c-.908-.294-1.682-.936-2.122-1.817h-4c-.44.881-1.214 1.523-2.122 1.817z" fill="#efbe9a"/><path d="m32 40c-2.761 0-5-2.239-5-5v-2c0-2.761 2.239-5 5-5 2.761 0 5 2.239 5 5v2c0 2.761-2.239 5-5 5z" fill="#efbe9a"/><path d="m52 54h8c1.105 0 2 .895 2 2v6h-12v-6c0-1.105.895-2 2-2z" fill="#f5b953"/><path d="m4 54h8c1.105 0 2 .895 2 2v6h-12v-6c0-1.105.895-2 2-2z" fill="#f5b953"/><path d="m56 44c1.657 0 3 1.343 3 3v2c0 1.657-1.343 3-3 3-1.657 0-3-1.343-3-3v-2c0-1.657 1.343-3 3-3z" fill="#efbe9a"/><path d="m8 44c1.657 0 3 1.343 3 3v2c0 1.657-1.343 3-3 3-1.657 0-3-1.343-3-3v-2c0-1.657 1.343-3 3-3z" fill="#efbe9a"/><g><path d="m29 5h2v2h-2z" fill="#fff"/></g><g><path d="m33 5h2v2h-2z" fill="#fff"/></g><g><path d="m29 9h2v2h-2z" fill="#fff"/></g><g><path d="m33 9h2v2h-2z" fill="#fff"/></g><g><path d="m29 13h2v2h-2z" fill="#fff"/></g><g><path d="m33 13h2v2h-2z" fill="#fff"/></g><g><path d="m29 17h2v2h-2z" fill="#fff"/></g><g><path d="m33 17h2v2h-2z" fill="#fff"/></g><g><path d="m18 13h2v2h-2z" fill="#fff"/></g><g><path d="m22 13h2v2h-2z" fill="#fff"/></g><g><path d="m18 17h2v2h-2z" fill="#fff"/></g><g><path d="m22 17h2v2h-2z" fill="#fff"/></g><g><path d="m40 9h2v2h-2z" fill="#fff"/></g><g><path d="m44 9h2v2h-2z" fill="#fff"/></g><g><path d="m40 13h2v2h-2z" fill="#fff"/></g><g><path d="m44 13h2v2h-2z" fill="#fff"/></g><g><path d="m40 17h2v2h-2z" fill="#fff"/></g><g><path d="m44 17h2v2h-2z" fill="#fff"/></g><g fill="#4472b2"><path d="m50 56h-14.142c-.364-1.399-1.459-2.494-2.858-2.858v-3.142h-2v3.142c-1.399.364-2.494 1.459-2.858 2.858h-14.142v2h14.142c.447 1.721 2 3 3.858 3s3.411-1.279 3.858-3h14.142zm-18 3c-1.103 0-2-.897-2-2s.897-2 2-2 2 .897 2 2-.897 2-2 2z"/><path d="m31 24h2v4h-2z"/></g></g></svg>