<svg id="Layer_3" enable-background="new 0 0 64 64" height="512" viewBox="0 0 64 64" width="512" xmlns="http://www.w3.org/2000/svg"><g><path d="m10 8h36v-2c0-2.209 1.791-4 4-4 2.209 0 4 1.791 4 4v50h-36v2c0 2.209-1.791 4-4 4-2.209 0-4-1.791-4-4z" fill="#ebf7fe"/><path d="m45 37h-12v-3h-2v3h-12c-.553 0-1 .447-1 1v4h2v-3h11v3h2v-3h11v3h2v-4c0-.553-.447-1-1-1z" fill="#4472b2"/><g fill="#fff"><circle cx="32" cy="47" r="5"/><circle cx="45" cy="47" r="5"/><circle cx="19" cy="47" r="5"/></g><path d="m50 2h-44c-2.209 0-4 1.791-4 4v2h44v-2c0-2.209 1.791-4 4-4z" fill="#a1cdfb"/><path d="m34 24c.613 1.226 1.866 2 3.236 2h.146c1.998 0 3.618 1.62 3.618 3.618v4.382h-18v-4.382c0-1.998 1.62-3.618 3.618-3.618h.146c1.37 0 2.623-.774 3.236-2" fill="#669e4f"/><path d="m28 26 .586.586c.905.905 2.133 1.414 3.414 1.414s2.509-.509 3.414-1.414l.586-.586.122-.183c-.908-.294-1.682-.936-2.122-1.817h-4c-.44.881-1.214 1.523-2.122 1.817z" fill="#efbe9a"/><path d="m32 24c-2.761 0-5-2.239-5-5v-2c0-2.761 2.239-5 5-5 2.761 0 5 2.239 5 5v2c0 2.761-2.239 5-5 5z" fill="#efbe9a"/><g><path d="m32 53c-3.309 0-6-2.691-6-6s2.691-6 6-6 6 2.691 6 6-2.691 6-6 6zm0-10c-2.206 0-4 1.794-4 4s1.794 4 4 4 4-1.794 4-4-1.794-4-4-4z" fill="#a8b0bc"/></g><g><path d="m45 53c-3.309 0-6-2.691-6-6s2.691-6 6-6 6 2.691 6 6-2.691 6-6 6zm0-10c-2.206 0-4 1.794-4 4s1.794 4 4 4 4-1.794 4-4-1.794-4-4-4z" fill="#a8b0bc"/></g><g><path d="m19 53c-3.309 0-6-2.691-6-6s2.691-6 6-6 6 2.691 6 6-2.691 6-6 6zm0-10c-2.206 0-4 1.794-4 4s1.794 4 4 4 4-1.794 4-4-1.794-4-4-4z" fill="#a8b0bc"/></g><path d="m14 62h44c2.209 0 4-1.791 4-4v-2h-44v2c0 2.209-1.791 4-4 4z" fill="#a1cdfb"/><path d="m36 31h2v3h-2z" fill="#78b75b"/><path d="m26 31h2v3h-2z" fill="#78b75b"/></g></svg>