<svg id="Layer_3" enable-background="new 0 0 64 64" height="512" viewBox="0 0 64 64" width="512" xmlns="http://www.w3.org/2000/svg"><g><path d="m60 62v-4h-12v4" fill="#4d5d7a"/><path d="m52 41v6l-2 2v9h8v-9l2-2v-8.243" fill="#2b74ca"/><path d="m52 29-6 6 6.757 6.757c.796.796 1.875 1.243 3 1.243 2.344 0 4.243-1.899 4.243-4.243 0-1.125-.447-2.204-1.243-3z" fill="#3d98f7"/><path d="m39.257 24.379h8.485v4.243h-8.485z" fill="#4d5d7a" transform="matrix(.707 -.707 .707 .707 -5.998 38.521)"/><path d="m44 29 4 4 2-2-4-4" fill="#c1c8d1"/><path d="m4 62v-4h12v4" fill="#4d5d7a"/><path d="m12 41v6l2 2v9h-8v-9l-2-2v-8.243" fill="#2b74ca"/><path d="m12 29 6 6-6.757 6.757c-.796.796-1.875 1.243-3 1.243-2.344 0-4.243-1.899-4.243-4.243 0-1.125.447-2.204 1.243-3z" fill="#3d98f7"/><path d="m18.379 22.257h4.243v8.485h-4.243z" fill="#4d5d7a" transform="matrix(.707 -.707 .707 .707 -12.734 22.257)"/><path d="m20 29-4 4-2-2 4-4" fill="#c1c8d1"/><path d="m20 7 12 17 12-17" fill="#ebf7fe"/><path d="m40 4 4 3-7 3h-10l-7-3 4-3" fill="#c7e2fc"/><path d="m27 10 5 14 5-14" fill="#c7e2fc"/><path d="m36 6h-8l-1 4h10z" fill="#ebf7fe"/><path d="m36 6h-8l-4-2 4-2h8l4 2z" fill="#a1cdfb"/><g><path d="m1 61h62v2h-62z" fill="#8892a0"/></g><g><path d="m20.964 21.5h7.071v2h-7.071z" fill="#8892a0" transform="matrix(.707 -.707 .707 .707 -8.734 23.914)"/></g><g><path d="m7 38h2v2h-2z" fill="#c1c8d1"/></g><g><path d="m38.5 18.964h2v7.071h-2z" fill="#8892a0" transform="matrix(.707 -.707 .707 .707 -4.341 34.521)"/></g><g><path d="m55 38h2v2h-2z" fill="#c1c8d1"/></g><g><path d="m40 18h5v2h-5z" fill="#c7e2fc"/></g><g><path d="m39.807 14h5.385v2h-5.385z" fill="#c7e2fc" transform="matrix(.929 -.371 .371 .929 -2.532 16.841)"/></g><g><path d="m19 18h5v2h-5z" fill="#c7e2fc"/></g><g><path d="m20.5 12.307h2v5.385h-2z" fill="#c7e2fc" transform="matrix(.371 -.929 .929 .371 -.412 29.391)"/></g></g></svg>