<svg id="Layer_3" enable-background="new 0 0 64 64" height="512" viewBox="0 0 64 64" width="512" xmlns="http://www.w3.org/2000/svg"><g><path d="m7 46 1.562 12.496c.25 2.002 1.952 3.504 3.969 3.504h14.938c2.017 0 3.719-1.502 3.969-3.504l1.562-12.496" fill="#e47c6e"/><path d="m33 46h-26c-1.105 0-2-.895-2-2 0-1.105.895-2 2-2h26c1.105 0 2 .895 2 2 0 1.105-.895 2-2 2z" fill="#4d5d7a"/><path d="m22 32v3h3l-5 5-5-5h3v-3" fill="#f5b953"/><path d="m15 26h10v4h-10z" fill="#4d5d7a"/><path d="m38 20v6h-36v-24h36v14" fill="#c7e2fc"/><path d="m2 17.417c3.28 1.63 7.237 2.583 11.5 2.583 11.322 0 20.5-6.716 20.5-15 0-1.028-.143-2.031-.412-3h-31.588z" fill="#ebf7fe"/><circle cx="20" cy="14" fill="#f5b953" r="8"/><path d="m62 6h-5l-4-2h-11v12h-10v4h14v4h7l4-4h5" fill="#efbe9a"/><g><path d="m12 29h16v2h-16z" fill="#8892a0"/></g><g><path d="m61 3h2v20h-2z" fill="#4472b2"/></g><g><path d="m46 19h4v2h-4z" fill="#db9b7c"/></g><path d="m23 11h-2v-2h-2v2h-1c-.404 0-.769.243-.924.617s-.069.804.217 1.09l2.293 2.293h-2.586v2h2v2h2v-2h1c.404 0 .769-.243.924-.617s.069-.804-.217-1.09l-2.293-2.293h2.586z" fill="#fff"/><g><path d="m13 49h2v10h-2z" fill="#c66b60"/></g><g><path d="m17 49h2v10h-2z" fill="#c66b60"/></g><g><path d="m21 49h2v10h-2z" fill="#c66b60"/></g><g><path d="m25 49h2v10h-2z" fill="#c66b60"/></g><g><path d="m42 7h6v2h-6z" fill="#db9b7c"/></g><g><path d="m42 11h6v2h-6z" fill="#db9b7c"/></g><g><path d="m42 15h6v2h-6z" fill="#db9b7c"/></g></g></svg>