<svg id="Layer_3" enable-background="new 0 0 64 64" height="512" viewBox="0 0 64 64" width="512" xmlns="http://www.w3.org/2000/svg"><g><path d="m62 12h-10v-10h-24v44h34z" fill="#c7e2fc"/><circle cx="37" cy="10" fill="#fff" r="5"/><circle cx="37" cy="24" fill="#fff" r="5"/><circle cx="37" cy="38" fill="#fff" r="5"/><path d="m62 12h-10v-10" fill="#8892a0"/><path d="m16 40v4h4v-4" fill="#3d98f7"/><path d="m15 30c-3.866 0-7 3.134-7 7v21h-4v-21c0-6.075 4.925-11 11-11" fill="#3d98f7"/><path d="m21 24h3v10h-3z" fill="#3d98f7"/><path d="m2 58h24v4h-24z" fill="#f5b953"/><path d="m15 22h6v18h-6z" fill="#f5b953"/><path d="m17 22h2v-3h3v-2h-8v2h3z" fill="#3d98f7"/><path d="m11 55h6v3h2v-3h6v-2h-14z" fill="#3d98f7"/><g fill="#8892a0"><path d="m34.55 6.5h9.899v2h-9.899z" transform="matrix(.707 -.707 .707 .707 6.266 30.127)"/><path d="m34.55 20.5h9.899v2h-9.899z" transform="matrix(.707 -.707 .707 .707 -3.634 34.228)"/><path d="m34.55 34.5h9.899v2h-9.899z" transform="matrix(.707 -.707 .707 .707 -13.533 38.328)"/><path d="m46 28h2v2h-2z"/><path d="m50 28h9v2h-9z"/><path d="m46 24h2v2h-2z"/><path d="m50 24h9v2h-9z"/><path d="m46 42h2v2h-2z"/><path d="m50 42h9v2h-9z"/><path d="m46 38h2v2h-2z"/><path d="m50 38h9v2h-9z"/></g></g></svg>