<svg id="Layer_3" enable-background="new 0 0 64 64" height="512" viewBox="0 0 64 64" width="512" xmlns="http://www.w3.org/2000/svg"><g><g><path d="m13.964 45.5h7.071v2h-7.071z" fill="#4d5d7a" transform="matrix(.707 -.707 .707 .707 -27.755 25.994)"/></g><g><path d="m10 49h-3c-2.206 0-4-1.794-4-4s1.794-4 4-4 4 1.794 4 4v3c0 .553-.448 1-1 1zm-3-6c-1.103 0-2 .897-2 2s.897 2 2 2h2v-2c0-1.103-.897-2-2-2z" fill="#f5b953"/></g><g><path d="m13 49h-3c-.552 0-1-.447-1-1v-3c0-2.206 1.794-4 4-4s4 1.794 4 4-1.794 4-4 4zm-2-2h2c1.103 0 2-.897 2-2s-.897-2-2-2-2 .897-2 2z" fill="#f5b953"/></g><g><path d="m46 44.172h2v5.657h-2z" fill="#4d5d7a" transform="matrix(.707 -.707 .707 .707 -19.468 47)"/></g><g><path d="m44.068 15.75h6.364v2h-6.364z" fill="#4d5d7a" transform="matrix(.707 -.707 .707 .707 1.995 38.317)"/></g><g><path d="m16 14.172h2v5.657h-2z" fill="#4d5d7a" transform="matrix(.707 -.707 .707 .707 -7.042 17)"/></g><path d="m16 52v10h-12v-10" fill="#f5b953"/><path d="m2 48h16v4h-16z" fill="#976947"/><path d="m61 6h-12l-1 16h14z" fill="#c66b60"/><path d="m48.203 18.748c.581.159 1.183.252 1.804.252 4.414 0 7.993-4.253 7.993-9.5 0-1.237-.205-2.416-.567-3.5h-8.433z" fill="#e47c6e"/><circle cx="10" cy="10" fill="#f5b953" r="8"/><circle cx="54" cy="54" fill="#f5b953" r="8"/><path d="m41 23v-4c0-1.657-1.343-3-3-3v-1c0-1.657-1.343-3-3-3h-9c-1.657 0-3 1.343-3 3v8" fill="#976947"/><path d="m42 44v-6.531c0-1.991-1.464-3.678-3.434-3.96l-3.566-.509v-3h-6v3l-3.566.509c-1.97.282-3.434 1.97-3.434 3.96v6.531" fill="#2b74ca"/><path d="m35 33 3 .429v4.571h-2l1 2-2 4h-3z" fill="#3d98f7"/><path d="m35 29v4l-3 11-3-11v-4" fill="#efbe9a"/><path d="m29 33-3 .429v4.571h2l-1 2 2 4h3z" fill="#3d98f7"/><path d="m38 22h2c1.105 0 2 .895 2 2 0 1.105-.895 2-2 2h-2" fill="#db9b7c"/><path d="m26 22h-2c-1.105 0-2 .895-2 2 0 1.105.895 2 2 2h2" fill="#db9b7c"/><path d="m34 17c0 1.657 1.343 3 3 3h1v5c0 3.314-2.686 6-6 6-3.314 0-6-2.686-6-6v-5h5c1.657 0 3-1.343 3-3z" fill="#efbe9a"/><g><path d="m59 11h-2v-6c0-1.103-.897-2-2-2s-2 .897-2 2v6h-2v-6c0-2.206 1.794-4 4-4s4 1.794 4 4z" fill="#4d5d7a"/></g><g fill="#fff"><path d="m11 5h-2v2h-1c-.404 0-.769.243-.924.617s-.069.804.217 1.09l2.293 2.293h-2.586v2h2v2h2v-2h1c.404 0 .769-.243.924-.617s.069-.804-.217-1.09l-2.293-2.293h2.586v-2h-2z"/><path d="m57 51h-2v-2h-2v2h-1c-.404 0-.769.243-.924.617s-.069.804.217 1.09l2.293 2.293h-2.586v2h2v2h2v-2h1c.404 0 .769-.243.924-.617s.069-.804-.217-1.09l-2.293-2.293h2.586z"/></g></g></svg>