<svg id="Layer_3" enable-background="new 0 0 64 64" height="512" viewBox="0 0 64 64" width="512" xmlns="http://www.w3.org/2000/svg"><g><path d="m23 36v-4c0-3.314 2.686-6 6-6h6c3.314 0 6 2.686 6 6v4" fill="#c7e2fc"/><path d="m30 30 2-2 2 2 2.795-3.726c-.567-.178-1.17-.274-1.795-.274h-6c-.625 0-1.228.096-1.795.274z" fill="#ebf7fe"/><path d="m28 18h-3c-1.105 0-2 .895-2 2 0 1.105.895 2 2 2h3" fill="#db9b7c"/><path d="m37 14v7c0 2.761-2.239 5-5 5-2.761 0-5-2.239-5-5v-7" fill="#efbe9a"/><path d="m34.599 10.499c.255-.441.401-.953.401-1.499 0-1.657-1.343-3-3-3s-3 1.343-3 3c0 .546.146 1.058.401 1.499" fill="#976947"/><path d="m35 14c0 2.209 1.791 4 4 4v-1c0-3.866-3.134-7-7-7-3.866 0-7 3.134-7 7v1h6c2.209 0 4-1.791 4-4z" fill="#c18e59"/><path d="m48 18h4v4l4-4h4c1.105 0 2-.895 2-2v-12c0-1.105-.895-2-2-2h-12c-1.105 0-2 .895-2 2v12c0 1.105.895 2 2 2z" fill="#e47c6e"/><path d="m16 18h-4v4l-4-4h-4c-1.105 0-2-.895-2-2v-12c0-1.105.895-2 2-2h12c1.105 0 2 .895 2 2v12c0 1.105-.895 2-2 2z" fill="#e47c6e"/><path d="m10 40v22h4v-4h36v4h4v-22" fill="#8892a0"/><path d="m8 36h48v4h-48z" fill="#4d5d7a"/><g><path d="m26 31h2v5h-2z" fill="#ebf7fe"/></g><g><path d="m36 31h2v5h-2z" fill="#ebf7fe"/></g><g><path d="m41 23h-7v-2h6v-2h-2v-2h3c.553 0 1 .447 1 1v4c0 .553-.447 1-1 1z" fill="#8892a0"/></g><g><path d="m49 9h2v2h-2z" fill="#fff"/></g><g><path d="m53 9h2v2h-2z" fill="#fff"/></g><g><path d="m57 9h2v2h-2z" fill="#fff"/></g><g><path d="m13 9h2v2h-2z" fill="#fff"/></g><g><path d="m9 9h2v2h-2z" fill="#fff"/></g><g><path d="m5 9h2v2h-2z" fill="#fff"/></g></g></svg>