<?xml version="1.0" standalone="yes"?>
<svg width="38" height="43">
<path style="fill:#ffffff; stroke:none;" d="M0 0L0 33L1 33L14 23C15.7267 28.4661 21.9283 29.1711 23 23L37 33L38 33L38 0L0 0z"/>
<path style="fill:#22b14c; stroke:none;" d="M16 1C12.1825 4.87712 11.0504 7.434 11 13L12 13L12 10L26 13L27 13L27 6L16 1z"/>
<path style="fill:#101010; stroke:none;" d="M17.6667 1.33333L18.3333 1.66667L17.6667 1.33333z"/>
<path style="fill:#404040; stroke:none;" d="M20.6667 1.33333L21.3333 1.66667L20.6667 1.33333z"/>
<path style="fill:#101010; stroke:none;" d="M15 2L16 3L15 2z"/>
<path style="fill:#202020; stroke:none;" d="M24 3L25 4L24 3z"/>
<path style="fill:#9f9f9f; stroke:none;" d="M25 4L26 5L25 4z"/>
<path style="fill:#101010; stroke:none;" d="M25 5L26 6L25 5z"/>
<path style="fill:#202020; stroke:none;" d="M26 7L27 8L26 7z"/>
<path style="fill:#bfbfbf; stroke:none;" d="M10 8L10 13L11 13L10 8M12 10L12 14L13 14L14 10L12 10z"/>
<path style="fill:#ffffff; stroke:none;" d="M11 14C14.5024 24.5293 23.096 24.0692 27 14C21.0953 10.6155 16.2714 9.20139 11 14z"/>
<path style="fill:#9f9f9f; stroke:none;" d="M17.6667 10.3333L18.3333 10.6667L17.6667 10.3333z"/>
<path style="fill:#1f1f1f; stroke:none;" d="M20 10L21 11L20 10z"/>
<path style="fill:#8f8f8f; stroke:none;" d="M22 11L22 12L25 14C25.951 11.4934 24.348 11.2942 22 11z"/>
<path style="fill:#3f3f3f; stroke:none;" d="M10 13L10 16L11 16L12 13L10 13z"/>
<path style="fill:#6f6f6f; stroke:none;" d="M26 13L25 19C27.1099 16.9371 28.4167 15.2281 26 13z"/>
<path style="fill:#7f7f7f; stroke:none;" d="M10.6667 16.3333L11.3333 16.6667L10.6667 16.3333z"/>
<path style="fill:#0f0f0f; stroke:none;" d="M11 17L12 18L11 17z"/>
<path style="fill:#101010; stroke:none;" d="M12 18L13 19L12 18z"/>
<path style="fill:#505050; stroke:none;" d="M12 19L17 24L12 19z"/>
<path style="fill:#101010; stroke:none;" d="M24 19L25 20L24 19z"/>
<path style="fill:#6f6f6f; stroke:none;" d="M23.6667 20.3333L24.3333 20.6667L23.6667 20.3333z"/>
<path style="fill:#2f2f2f; stroke:none;" d="M22 21L22 23L24 21L22 21z"/>
<path style="fill:#7f7f7f; stroke:none;" d="M21.3333 22.6667L21.6667 23.3333L21.3333 22.6667z"/>
<path style="fill:#3f3f3f; stroke:none;" d="M13 23L13 26L14 26L13 23z"/>
<path style="fill:#1f1f1f; stroke:none;" d="M17 23L17 24L21 24L17 23z"/>
<path style="fill:#2f2f2f; stroke:none;" d="M23 23L24 24L23 23z"/>
<path style="fill:#a0a0a0; stroke:none;" d="M12 24L13 25L12 24z"/>
<path style="fill:#afafaf; stroke:none;" d="M23.3333 24.6667L23.6667 25.3333L23.3333 24.6667z"/>
<path style="fill:#22b14c; stroke:none;" d="M24 24C21.2234 29.1044 9.7633 26.9313 4 27L1 30L0 43L37 43C39.0716 31.3204 33.9267 28.0715 24 24z"/>
<path style="fill:#202020; stroke:none;" d="M11 25L12 26L11 25z"/>
<path style="fill:#606060; stroke:none;" d="M6 26L6 27L9 27L6 26z"/>
<path style="fill:#202020; stroke:none;" d="M23 26L24 27L23 26z"/>
<path style="fill:#808080; stroke:none;" d="M29.6667 26.3333L30.3333 26.6667L29.6667 26.3333z"/>
<path style="fill:#101010; stroke:none;" d="M5 27L6 28L5 27z"/>
<path style="fill:#a0a0a0; stroke:none;" d="M16 27L17 28L16 27M21 27L22 28L21 27z"/>
<path style="fill:#101010; stroke:none;" d="M22 27L23 28L22 27z"/>
<path style="fill:#202020; stroke:none;" d="M32 27L33 28L32 27z"/>
<path style="fill:#a0a0a0; stroke:none;" d="M33 27L34 28L33 27z"/>
<path style="fill:#101010; stroke:none;" d="M3 28L4 29L3 28z"/>
<path style="fill:#303030; stroke:none;" d="M18.6667 28.3333L19.3333 28.6667L18.6667 28.3333z"/>
<path style="fill:#202020; stroke:none;" d="M2 29L3 30L2 29z"/>
<path style="fill:#101010; stroke:none;" d="M1 31L2 32L1 31z"/>
<path style="fill:#3f3f3f; stroke:none;" d="M0 33L0 36L1 36L0 33z"/>
<path style="fill:#5f5f5f; stroke:none;" d="M37 33L37 36L38 36L37 33M37.3333 40.6667L37.6667 41.3333L37.3333 40.6667z"/>
<path style="fill:#cfcfcf; stroke:none;" d="M37 42L38 43L37 42z"/>
</svg>
