<svg height="54" viewBox="0 0 60 54" width="60" xmlns="http://www.w3.org/2000/svg"><g id="Page-1" fill="none" fill-rule="evenodd"><g id="008---Sold-Stamp" fill-rule="nonzero"><path id="Shape" d="m59 23v8c.0012564 2.9111021-2.0919774 5.4010375-4.96 5.9v.01c-.3432808.0610168-.6913404.0911374-1.04.09h-46c-.34865955.0011374-.69671918-.0289832-1.04-.09v-.01c-2.86802256-.4989625-4.96125641-2.9888979-4.96-5.9v-8c-.00125641-2.9111021 2.09197744-5.4010375 4.96-5.9v-.01c.34328082-.0610168.69134045-.0911374 1.04-.09h46c.3486596-.0011374.6967192.0289832 1.04.09v.01c2.8680226.4989625 4.9612564 2.9888979 4.96 5.9z" fill="#ffe0b2"/><path id="Shape" d="m54.04 17.1v-.01c-.3432808-.0610168-.6913404-.0911374-1.04-.09l-3-.000031c.3486596-.0011064.6967192.0290142 1.04.090031v.01c2.8680226.4989625 4.9612564 2.9888979 4.96 5.9v8c.0012564 2.9111021-2.0919774 5.4010375-4.96 5.9v.01c-.3432808.0610168-.6913404.0911374-1.04.090031l3-.000031c.3486596.0011374.6967192-.0289832 1.04-.09v-.01c2.8680226-.4989625 4.9612564-2.9888979 4.96-5.9v-8c.0012564-2.9111021-2.0919774-5.4010375-4.96-5.9z" fill="#dfc49c"/><path id="Shape" d="m46.15 37c-2.1742909 3.5053974-5.4271103 6.2108168-9.27 7.71v-.01c-2.1894493.8681038-4.5247496 1.3093669-6.88 1.3-6.5783714-.0019025-12.6876994-3.4064816-16.15-9z" fill="#c81e1e"/><path id="Shape" d="m54.04 36.91c-4.0125222 9.7401406-13.5057381 16.0965461-24.04 16.0965461s-20.02747779-6.3564055-24.04-16.0965461c.34328082.0610168.69134045.0911374 1.04.09h6.85c3.4623006 5.5935184 9.5716286 8.9980975 16.15 9 2.3552504.0093669 4.6905507-.4318962 6.88-1.3v.01c3.8428897-1.4991832 7.0957091-4.2046026 9.27-7.71h6.85c.3486596.0011374.6967192-.0289832 1.04-.09z" fill="#f44335"/><path id="Shape" d="m46.15 17h-32.3c3.4608933-5.5950078 9.5711023-9.00012513 16.15-9.00012513s12.6891067 3.40511733 16.15 9.00012513z" fill="#c81e1e"/><path id="Shape" d="m54.04 17.09c-.3432808-.0610168-.6913404-.0911374-1.04-.09h-6.85c-3.4608933-5.5950078-9.5711023-9.00012513-16.15-9.00012513s-12.6891067 3.40511733-16.15 9.00012513h-6.85c-.34865955-.0011374-.69671918.0289832-1.04.09 1.55411329-3.7574446 3.96489473-7.09966435 7.04-9.76l.02.02c4.6986308-4.11252475 10.7358363-6.37025473 16.98-6.35 10.5317604.00188862 20.0230228 6.3544016 24.04 16.09z" fill="#f44335"/><path id="Shape" d="m30 1c-.461 0-.913.039-1.368.062 9.8818408.62211712 18.5533865 6.8009036 22.368 15.938h2c.3486596-.0011374.6967192.0289832 1.04.09-4.0169772-9.7355984-13.5082396-16.08811138-24.04-16.09z" fill="#c81e1e"/><path id="Shape" d="m51 37c-3.8334819 9.1802551-12.5680503 15.3693762-22.5 15.943.5.028 1 .057 1.5.057 10.5317604-.0018886 20.0230228-6.3544016 24.04-16.09-.3432808.0610168-.6913404.0911374-1.04.09z" fill="#c81e1e"/><g fill="#f44335"><path id="Shape" d="m13 34c-2.757 0-5-1.794-5-4 0-.5522847.44771525-1 1-1s1 .4477153 1 1c0 1.084 1.374 2 3 2s3-.916 3-2c0-1.009-1.486-2-3-2-2.365 0-5-1.643-5-4 0-2.206 2.243-4 5-4s5 1.794 5 4c0 .5522847-.4477153 1-1 1s-1-.4477153-1-1c0-1.084-1.374-2-3-2s-3 .916-3 2c0 1.009 1.486 2 3 2 2.365 0 5 1.643 5 4 0 2.206-2.243 4-5 4z"/><path id="Shape" d="m24 34c-2.8 0-5-3.075-5-7s2.2-7 5-7 5 3.075 5 7-2.2 7-5 7zm0-12c-1.626 0-3 2.29-3 5s1.374 5 3 5 3-2.29 3-5-1.374-5-3-5z"/><path id="Shape" d="m40 34h-8c-.5522847 0-1-.4477153-1-1v-12c0-.5522847.4477153-1 1-1s1 .4477153 1 1v11h7c.5522847 0 1 .4477153 1 1s-.4477153 1-1 1z"/><path id="Shape" d="m45 34h-1c-1.1045695 0-2-.8954305-2-2v-10c0-1.1045695.8954305-2 2-2h1c3.8659932 0 7 3.1340068 7 7s-3.1340068 7-7 7zm-1-12v10h1c2.7614237 0 5-2.2385763 5-5s-2.2385763-5-5-5z"/></g><path id="Shape" d="m54.745 16.229c-4.2684836-9.86481818-13.9963099-16.24480982-24.745-16.229-10.7082257.12521491-20.36822622 6.45996777-24.751 16.231-3.08586404.7994303-5.24303447 3.5812719-5.249 6.769v8c.00646927 3.1899599 2.16644409 5.9730597 5.255 6.771 4.28087746 9.8544552 14.0008761 16.2295155 24.745 16.2295155s20.4641225-6.3750603 24.745-16.2295155c3.0885559-.7979403 5.2485307-3.5810401 5.255-6.771v-8c-.0064693-3.1899599-2.1664441-5.9730597-5.255-6.771zm-24.745-14.229c9.5444486-.01526335 18.2595324 5.42122788 22.443 14h-5.757c-3.6924673-5.6174462-9.963648-8.999936-16.686-8.999936s-12.9935327 3.3824898-16.686 8.999936h-5.759c4.2044024-8.56081617 12.907471-13.98932852 22.445-14zm14.232 14h-28.464c3.4015556-4.4144542 8.6590307-7.00053909 14.232-7.00053909s10.8304444 2.58608489 14.232 7.00053909zm-14.232 36c-9.5444486.0152634-18.2595324-5.4212279-22.443-14h5.757c4.4629667 6.8136006 12.6237187 10.2247378 20.608 8.614.5401702-.109794.8896327-.6359937.7813185-1.1764626-.1083143-.5404689-.633555-.8913711-1.1743185-.7845374-6.7047347 1.3521069-13.5945932-1.2287291-17.761-6.653h28.46c-1.5413642 1.9961161-3.482862 3.6480923-5.7 4.85-.3143937.1697012-.514371.4942385-.5246024.8513621-.0102313.3571235.1708377.6925776.475.88.3041624.1874223.6852087.1983391.9996024.0286379 2.9098651-1.5764222 5.3854646-3.8469527 7.207-6.61h5.758c-4.1834676 8.5787721-12.8985514 14.0152634-22.443 14zm28-21c-.0033061 2.7600532-2.2399468 4.9966939-5 5h-46c-2.76005315-.0033061-4.99669388-2.2399468-5-5v-8c.00330612-2.7600532 2.23994685-4.9966939 5-5h46c2.7600532.0033061 4.9966939 2.2399468 5 5z" fill="#000"/></g></g></svg>