<svg id="Layer_3" enable-background="new 0 0 64 64" height="512" viewBox="0 0 64 64" width="512" xmlns="http://www.w3.org/2000/svg"><g><path d="m24 18h38v24h-38z" fill="#c7e2fc"/><path d="m24 31.903c3.497 2.548 8.032 4.097 13 4.097 11.046 0 20-7.611 20-17 0-.338-.037-.667-.059-1h-32.941z" fill="#ebf7fe"/><path d="m41 10h4v13h-4z" fill="#3d98f7"/><path d="m43 2c-3.314 0-6 2.686-6 6v2h12v-2c0-3.314-2.686-6-6-6z" fill="#59ac98"/><path d="m39 13h8v6h-8z" fill="#59ac98"/><path d="m37 42h13v4h-13z" fill="#4d5d7a"/><path d="m3 62h6v-4h-4c-1.105 0-2 .895-2 2z" fill="#3d98f7"/><path d="m19 62h-6v-4h4c1.105 0 2 .895 2 2z" fill="#3d98f7"/><path d="m17 58h-4v-16h-4v16h-4v-20h12z" fill="#4d5d7a"/><path d="m16 22h-10c-2.209 0-4 1.791-4 4v6c0 1.105.895 2 2 2h1v4h12v-4h1c1.105 0 2-.895 2-2v-6c0-2.209-1.791-4-4-4z" fill="#3d98f7"/><path d="m20 27v5c0 1.105-.895 2-2 2h-2.183c-1.185 0-2.343-.351-3.328-1.008l-1.489-.992-6-2v-1h7l5 2v-4" fill="#efbe9a"/><path d="m2 27v5c0 1.105.895 2 2 2h5l3.64-.91-1.64-1.09-6-2v-3" fill="#db9b7c"/><path d="m11 20c-1.657 0-3-1.343-3-3v-2c0-1.657 1.343-3 3-3 1.657 0 3 1.343 3 3v2c0 1.657-1.343 3-3 3z" fill="#efbe9a"/><g><path d="m52 20h-2v-4h-3v-2h4c.553 0 1 .448 1 1z" fill="#3d98f7"/></g><g><path d="m36 20h-2v-5c0-.552.447-1 1-1h4v2h-3z" fill="#3d98f7"/></g><g><path d="m48 27h-2v-3h-6v3h-2v-4c0-.552.447-1 1-1h8c.553 0 1 .448 1 1z" fill="#59ac98"/></g><g><path d="m34 45h18v2h-18z" fill="#8892a0"/></g><g><path d="m42 31h-2v-3h-2v3h-2v-4c0-.552.447-1 1-1h4c.553 0 1 .448 1 1z" fill="#3d98f7"/></g><g><path d="m50 31h-2v-3h-2v3h-2v-4c0-.552.447-1 1-1h4c.553 0 1 .448 1 1z" fill="#3d98f7"/></g><g><path d="m52 9h-3v-2h2v-4h2v5c0 .552-.447 1-1 1z" fill="#3d98f7"/></g><g><path d="m37 9h-3c-.553 0-1-.448-1-1v-5h2v4h2z" fill="#3d98f7"/></g><g><path d="m45 5h2v2h-2z" fill="#ebf7fe"/></g><g><path d="m39 5h2v2h-2z" fill="#ebf7fe"/></g><g fill="#f5b953"><path d="m31 25.184v-2.184h-2v2.184c-1.161.414-2 1.514-2 2.816v1c0 1.654 1.346 3 3 3 .552 0 1 .449 1 1v1c0 .551-.448 1-1 1s-1-.449-1-1v-1h-2v1c0 1.302.839 2.402 2 2.816v2.184h2v-2.184c1.161-.414 2-1.514 2-2.816v-1c0-1.654-1.346-3-3-3-.552 0-1-.449-1-1v-1c0-.551.448-1 1-1s1 .449 1 1v1h2v-1c0-1.302-.839-2.402-2-2.816z"/><path d="m59 29v-1c0-1.302-.839-2.402-2-2.816v-2.184h-2v2.184c-1.161.414-2 1.514-2 2.816v1c0 1.654 1.346 3 3 3 .552 0 1 .449 1 1v1c0 .551-.448 1-1 1s-1-.449-1-1v-1h-2v1c0 1.302.839 2.402 2 2.816v2.184h2v-2.184c1.161-.414 2-1.514 2-2.816v-1c0-1.654-1.346-3-3-3-.552 0-1-.449-1-1v-1c0-.551.448-1 1-1s1 .449 1 1v1z"/></g></g></svg>