<svg id="Layer_3" enable-background="new 0 0 64 64" height="512" viewBox="0 0 64 64" width="512" xmlns="http://www.w3.org/2000/svg"><g><g fill="#4d5d7a"><path d="m33 32h-2v15h-11v2h24v-2h-11z"/><path d="m18 57h-6v-5h-2v5h-6c-.553 0-1 .448-1 1v5h2v-4h12v4h2v-5c0-.552-.447-1-1-1z"/><path d="m60 57h-6v-5h-2v5h-6c-.553 0-1 .448-1 1v5h2v-4h12v4h2v-5c0-.552-.447-1-1-1z"/></g><path d="m34 16 .633 1.267c.838 1.675 2.55 2.733 4.423 2.733 2.73 0 4.944 2.214 4.944 4.944v7.056h-24v-7.056c0-2.73 2.214-4.944 4.944-4.944 1.873 0 3.585-1.058 4.422-2.733l.634-1.267" fill="#3d98f7"/><path d="m32.515 21c1.535 0 3.006-.593 4.119-1.645-.844-.475-1.55-1.189-2-2.088l-.634-1.267h-4l-.633 1.267c-.45.9-1.156 1.613-2 2.088 1.112 1.052 2.583 1.645 4.118 1.645z" fill="#efbe9a"/><path d="m32 16c3.314 0 6-2.686 6-6v-2c0-3.314-2.686-6-6-6-3.314 0-6 2.686-6 6v2c0 3.314 2.686 6 6 6z" fill="#efbe9a"/><path d="m13 42c.613 1.226 1.866 2 3.236 2h.146c1.998 0 3.618 1.62 3.618 3.618v4.382h-18v-4.382c0-1.998 1.62-3.618 3.618-3.618h.146c1.37 0 2.623-.774 3.236-2" fill="#669e4f"/><path d="m7 44 .586.586c.905.905 2.133 1.414 3.414 1.414s2.509-.509 3.414-1.414l.586-.586.122-.183c-.908-.294-1.682-.936-2.122-1.817h-4c-.44.881-1.214 1.523-2.122 1.817z" fill="#efbe9a"/><path d="m11 42c-2.761 0-5-2.239-5-5v-2c0-2.761 2.239-5 5-5 2.761 0 5 2.239 5 5v2c0 2.761-2.239 5-5 5z" fill="#efbe9a"/><path d="m55 42c.613 1.226 1.866 2 3.236 2h.146c1.998 0 3.618 1.62 3.618 3.618v4.382h-18v-4.382c0-1.998 1.62-3.618 3.618-3.618h.146c1.37 0 2.623-.774 3.236-2" fill="#669e4f"/><g fill="#efbe9a"><path d="m49 44 .586.586c.905.905 2.133 1.414 3.414 1.414s2.509-.509 3.414-1.414l.586-.586.122-.183c-.908-.294-1.682-.936-2.122-1.817h-4c-.44.881-1.214 1.523-2.122 1.817z"/><path d="m53 42c-2.761 0-5-2.239-5-5v-2c0-2.761 2.239-5 5-5 2.761 0 5 2.239 5 5v2c0 2.761-2.239 5-5 5z"/></g></g></svg>