<svg id="Layer_3" enable-background="new 0 0 64 64" height="512" viewBox="0 0 64 64" width="512" xmlns="http://www.w3.org/2000/svg"><g><path d="m44 36v-24h-10v-10h-32v52h8" fill="#c7e2fc"/><path d="m34 2h-10.742c-6.261 4.86-10.258 12.238-10.258 20.5 0 9.645 5.446 18.084 13.585 22.72l17.415-9.22v-24h-10z" fill="#ebf7fe"/><path d="m44 12h-10v-10" fill="#8892a0"/><path d="m10 36h52v26h-52z" fill="#669e4f"/><path d="m53 58h-34c0-2.761-2.239-5-5-5v-8c2.761 0 5-2.239 5-5h34c0 2.761 2.239 5 5 5v8c-2.761 0-5 2.239-5 5z" fill="#96cc7f"/><circle cx="20" cy="49" fill="#fff" r="2"/><circle cx="52" cy="49" fill="#fff" r="2"/><g fill="#8892a0"><path d="m23 5h2v2h-2z"/><path d="m5 5h16v2h-16z"/><path d="m5 9h2v2h-2z"/><path d="m9 9h16v2h-16z"/><path d="m23 15h2v2h-2z"/><path d="m5 15h16v2h-16z"/><path d="m5 19h2v2h-2z"/><path d="m9 19h16v2h-16z"/><path d="m23 25h2v2h-2z"/><path d="m5 25h16v2h-16z"/><path d="m5 29h2v2h-2z"/><path d="m9 29h16v2h-16z"/></g><path d="m57 39h2v2h-2z" fill="#96cc7f"/><path d="m57 57h2v2h-2z" fill="#96cc7f"/><path d="m13 39h2v2h-2z" fill="#96cc7f"/><path d="m13 57h2v2h-2z" fill="#96cc7f"/><path d="m36 44c1.103 0 2 .897 2 2h2c0-1.858-1.28-3.411-3-3.858v-2.142h-2v2.142c-1.72.447-3 2-3 3.858 0 2.206 1.794 4 4 4 1.103 0 2 .897 2 2s-.897 2-2 2-2-.897-2-2h-2c0 1.858 1.28 3.411 3 3.858v2.142h2v-2.142c1.72-.447 3-2 3-3.858 0-2.206-1.794-4-4-4-1.103 0-2-.897-2-2s.897-2 2-2z" fill="#fff"/></g></svg>