<svg id="Layer_3" enable-background="new 0 0 64 64" height="512" viewBox="0 0 64 64" width="512" xmlns="http://www.w3.org/2000/svg"><g><path d="m62 60h-42v-58h32v10h10z" fill="#c7e2fc"/><path d="m52 2h-20.324c-2.95 5.129-4.676 11.325-4.676 18 0 17.673 12.088 32 27 32 2.785 0 5.472-.501 8-1.429v-38.571h-10z" fill="#ebf7fe"/><path d="m24 6h24v14h-24z" fill="#fff"/><path d="m52 2v10h10" fill="#8892a0"/><circle cx="35" cy="47" fill="#f9d18b" r="9"/><circle cx="49" cy="47" fill="#f5b953" r="9"/><path d="m17 51h1.394c2.253 0 4.356-1.126 5.606-3-2.209 0-4-1.791-4-4v-1c0-3.866-3.134-7-7-7-3.866 0-7 3.134-7 7v1c0 2.209-1.791 4-4 4 1.249 1.874 3.353 3 5.606 3h1.394" fill="#976947"/><path d="m22 62h-18v-4c0-3.314 2.686-6 6-6h6c3.314 0 6 2.686 6 6z" fill="#78b75b"/><path d="m11 56 2-2 2 2 2.795-3.726c-.567-.178-1.17-.274-1.795-.274h-6c-.625 0-1.228.096-1.795.274z" fill="#669e4f"/><path d="m13 40c0 2.209 1.791 4 4 4h1v3c0 2.761-2.239 5-5 5-2.761 0-5-2.239-5-5v-3h1c2.209 0 4-1.791 4-4z" fill="#efbe9a"/><path d="m7 57h2v5h-2z" fill="#669e4f"/><path d="m17 57h2v5h-2z" fill="#669e4f"/><g fill="#8892a0"><path d="m23 23h2v2h-2z"/><path d="m27 23h2v2h-2z"/><path d="m31 23h28v2h-28z"/><path d="m57 27h2v2h-2z"/><path d="m53 27h2v2h-2z"/><path d="m23 27h28v2h-28z"/><path d="m57 31h2v2h-2z"/><path d="m53 31h2v2h-2z"/><path d="m23 31h28v2h-28z"/></g><path d="m49 42c1.103 0 2 .897 2 2h2c0-1.858-1.28-3.411-3-3.858v-2.142h-2v2.142c-1.72.447-3 2-3 3.858 0 2.206 1.794 4 4 4 1.103 0 2 .897 2 2s-.897 2-2 2-2-.897-2-2h-2c0 1.858 1.28 3.411 3 3.858v2.142h2v-2.142c1.72-.447 3-2 3-3.858 0-2.206-1.794-4-4-4-1.103 0-2-.897-2-2s.897-2 2-2z" fill="#f9d18b"/><path d="m35 42c1.103 0 2 .897 2 2h2c0-1.858-1.28-3.411-3-3.858v-2.142h-2v2.142c-1.72.447-3 2-3 3.858 0 2.206 1.794 4 4 4 1.103 0 2 .897 2 2s-.897 2-2 2-2-.897-2-2h-2c0 1.858 1.28 3.411 3 3.858v2.142h2v-2.142c1.72-.447 3-2 3-3.858 0-2.206-1.794-4-4-4-1.103 0-2-.897-2-2s.897-2 2-2z" fill="#f5b953"/></g></svg>