<svg id="Layer_3" enable-background="new 0 0 64 64" height="512" viewBox="0 0 64 64" width="512" xmlns="http://www.w3.org/2000/svg"><g><path d="m43 52v10h-28v-48h38v38z" fill="#c7e2fc"/><path d="m15 50.59c1.463.265 2.965.41 4.5.41 14.636 0 26.5-12.536 26.5-28 0-3.15-.5-6.174-1.407-9h-29.593z" fill="#ebf7fe"/><path d="m23 52h.838c1.888 0 3.565-1.208 4.162-3h-2c-1.105 0-2-.895-2-2v-3-4-4c0-3.314-2.686-6-6-6h-6c-3.314 0-6 2.686-6 6v4 4 3c0 1.105-.895 2-2 2h-2c.597 1.792 2.274 3 4.162 3h.838" fill="#976947"/><path d="m53 52h-10v10" fill="#8892a0"/><circle cx="54" cy="10" fill="#f5b953" r="8"/><path d="m18 48v3l3.566.509c1.97.282 3.434 1.97 3.434 3.96v6.531h-20v-6.531c0-1.991 1.464-3.678 3.434-3.96l3.566-.509v-3" fill="#4d5d7a"/><path d="m19 56h2v-4.571l-3-.429v-3h-6v3l-3 .429v4.571h2l-1 2 2 4h6l2-4z" fill="#8892a0"/><path d="m20 38c-1.657 0-3-1.343-3-3 0 1.657-1.343 3-3 3h-5v5c0 2.22 1.208 4.153 3 5.191v2.809l3 11 3-11v-2.809c1.792-1.038 3-2.971 3-5.191v-5z" fill="#efbe9a"/><path d="m21 40h2c1.105 0 2 .895 2 2 0 1.105-.895 2-2 2h-2" fill="#db9b7c"/><path d="m9 40h-2c-1.105 0-2 .895-2 2 0 1.105.895 2 2 2h2" fill="#db9b7c"/><g fill="#8892a0"><path d="m57 8v-1c0-1.302-.839-2.402-2-2.816v-2.184h-2v2.184c-1.161.414-2 1.514-2 2.816v1c0 1.654 1.346 3 3 3 .552 0 1 .449 1 1v1c0 .551-.448 1-1 1s-1-.449-1-1v-1h-2v1c0 1.302.839 2.402 2 2.816v2.184h2v-2.184c1.161-.414 2-1.514 2-2.816v-1c0-1.654-1.346-3-3-3-.552 0-1-.449-1-1v-1c0-.551.448-1 1-1s1 .449 1 1v1z"/><path d="m48 20h2v2h-2z"/><path d="m27 20h19v2h-19z"/><path d="m27 24h2v2h-2z"/><path d="m31 24h19v2h-19z"/><path d="m48 28h2v2h-2z"/><path d="m27 28h19v2h-19z"/><path d="m27 32h2v2h-2z"/><path d="m31 32h19v2h-19z"/><path d="m48 36h2v2h-2z"/><path d="m27 36h19v2h-19z"/><path d="m27 40h2v2h-2z"/><path d="m31 40h19v2h-19z"/></g></g></svg>