<svg id="Layer_3" enable-background="new 0 0 64 64" height="512" viewBox="0 0 64 64" width="512" xmlns="http://www.w3.org/2000/svg"><g><path d="m62 50h-36v-48h26v10h10z" fill="#c7e2fc"/><path d="m52 2h-17.995c-1.926 3.933-3.005 8.343-3.005 13 0 16.569 13.655 30 30.5 30 .168 0 .333-.01.5-.012v-32.988h-10z" fill="#ebf7fe"/><path d="m52 32 3-8 3 8v27c0 1.657-1.343 3-3 3-1.657 0-3-1.343-3-3z" fill="#efbe9a"/><path d="m62 12h-10v-10" fill="#8892a0"/><path d="m16 48-14-8v14l14 8z" fill="#674025"/><path d="m16 48 14-8v14l-14 8z" fill="#976947"/><path d="m24.875 42.929 5.125-2.929-14-8-14 8 14 8 5-2.857" fill="#c18e59"/><path d="m10.875 34.929 14.125 8.071v5l-4 2v-5l-13.875-7.929" fill="#674025"/><path d="m58 32-3 2-3-2v24h6z" fill="#e47c6e"/><g><path d="m29 15h2v2h-2z" fill="#8892a0"/></g><g><path d="m33 15h26v2h-26z" fill="#8892a0"/></g><g><path d="m57 19h2v2h-2z" fill="#8892a0"/></g><g><path d="m29 19h26v2h-26z" fill="#8892a0"/></g><g><path d="m29 23h20v2h-20z" fill="#8892a0"/></g><g><path d="m29 27h20v2h-20z" fill="#8892a0"/></g></g></svg>