<svg id="Layer_3" enable-background="new 0 0 64 64" height="512" viewBox="0 0 64 64" width="512" xmlns="http://www.w3.org/2000/svg"><g><path d="m36 35v-6l-3.434-.404c-.338-1.35-.869-2.619-1.567-3.781l2.143-2.714-4.243-4.243-2.714 2.143c-1.162-.698-2.432-1.229-3.781-1.567l-.404-3.434h-6l-.404 3.434c-1.35.338-2.619.869-3.781 1.567l-2.714-2.143-4.243 4.242 2.143 2.714c-.698 1.162-1.229 2.432-1.567 3.781l-3.434.405v6l3.434.404c.338 1.35.869 2.619 1.567 3.781l-2.143 2.714 4.243 4.243 2.714-2.143c1.162.698 2.432 1.229 3.781 1.567l.404 3.434h6l.404-3.434c1.35-.338 2.619-.869 3.781-1.567l2.714 2.143 4.243-4.243-2.143-2.714c.698-1.162 1.229-2.432 1.567-3.781zm-17 7c-5.523 0-10-4.477-10-10s4.477-10 10-10 10 4.477 10 10-4.477 10-10 10z" fill="#8892a0"/><g fill="#f097d0"><path d="m52 33h8c1.105 0 2 .895 2 2v6h-12v-6c0-1.105.895-2 2-2z"/><path d="m52 12h8c1.105 0 2 .895 2 2v6h-12v-6c0-1.105.895-2 2-2z"/><path d="m52 54h8c1.105 0 2 .895 2 2v6h-12v-6c0-1.105.895-2 2-2z"/></g><path d="m56 23c1.657 0 3 1.343 3 3v2c0 1.657-1.343 3-3 3-1.657 0-3-1.343-3-3v-2c0-1.657 1.343-3 3-3z" fill="#efbe9a"/><path d="m56 2c1.657 0 3 1.343 3 3v2c0 1.657-1.343 3-3 3-1.657 0-3-1.343-3-3v-2c0-1.657 1.343-3 3-3z" fill="#efbe9a"/><path d="m56 44c1.657 0 3 1.343 3 3v2c0 1.657-1.343 3-3 3-1.657 0-3-1.343-3-3v-2c0-1.657 1.343-3 3-3z" fill="#efbe9a"/><g><path d="m58 36h2v5h-2z" fill="#d6759e"/></g><g><path d="m52 36h2v5h-2z" fill="#d6759e"/></g><g><path d="m58 15h2v5h-2z" fill="#d6759e"/></g><g><path d="m52 15h2v5h-2z" fill="#d6759e"/></g><g><path d="m58 57h2v5h-2z" fill="#d6759e"/></g><g><path d="m52 57h2v5h-2z" fill="#d6759e"/></g><path d="m47 13v-2h-4c-.553 0-1 .448-1 1v19h-3v2h3v19c0 .553.447 1 1 1h4v-2h-3v-18h3v-2h-3v-18z" fill="#4d5d7a"/></g></svg>