<svg id="Layer_3" enable-background="new 0 0 64 64" height="512" viewBox="0 0 64 64" width="512" xmlns="http://www.w3.org/2000/svg"><g><path d="m21 56h22v6h-22z" fill="#8892a0"/><path d="m10 28h44v28h-44z" fill="#4d5d7a"/><path d="m10 28v17.794c3.788 2.034 8.238 3.206 13 3.206 13.426 0 24.377-9.314 24.971-21z" fill="#8892a0"/><path d="m32 34c7.732 0 14-6.268 14-14h4c0 9.941-8.059 18-18 18z" fill="#669e4f"/><path d="m32 34c-7.732 0-14-6.268-14-14s6.268-14 14-14 14 6.268 14 14h4c0-9.941-8.059-18-18-18s-18 8.059-18 18 8.059 18 18 18z" fill="#f5b953"/><g><path d="m18 61h28v2h-28z" fill="#4d5d7a"/></g><g fill="#fff"><path d="m47 45c-.694 0-1.337.193-1.906.505l-14.309-18.125-1.569 1.239 14.41 18.253c-.391.618-.626 1.345-.626 2.128 0 2.206 1.794 4 4 4s4-1.794 4-4-1.794-4-4-4zm0 6c-1.103 0-2-.897-2-2s.897-2 2-2 2 .897 2 2-.897 2-2 2z"/><path d="m27.138 28.493-9.734 16.548c-.135-.014-.266-.041-.404-.041-2.206 0-4 1.794-4 4s1.794 4 4 4 4-1.794 4-4c0-1.344-.671-2.529-1.69-3.254l9.552-16.239zm-10.138 22.507c-1.103 0-2-.897-2-2s.897-2 2-2 2 .897 2 2-.897 2-2 2z"/></g><path d="m28.775 22.617 11.45-2.642c.454-.105.775-.509.775-.975v-5c0-.552-.448-1-1-1h-10.883l-.123-1.11c-.057-.507-.484-.89-.994-.89h-3v2h2.105l.865 7.782c-1.174.428-1.97 1.53-1.97 2.809v1.409c0 .28.116.531.302.713-.188.391-.302.825-.302 1.287 0 1.654 1.346 3 3 3s3-1.346 3-3c0-.352-.072-.686-.184-1h2.369c-.113.314-.185.648-.185 1 0 1.654 1.346 3 3 3s3-1.346 3-3c0-.352-.072-.686-.184-1h1.184v-2h-13v-.409c0-.468.319-.869.775-.974zm4.225-3.028v-4.589h2v4.127zm6-1.384-2 .461v-3.666h2zm-8-3.205v5.05l-1.072.247-.589-5.297zm-1 12c0 .551-.449 1-1 1s-1-.449-1-1 .449-1 1-1 1 .449 1 1zm8 0c0 .551-.449 1-1 1s-1-.449-1-1 .449-1 1-1 1 .449 1 1z" fill="#4472b2"/></g></svg>