<svg id="Layer_3" enable-background="new 0 0 64 64" height="512" viewBox="0 0 64 64" width="512" xmlns="http://www.w3.org/2000/svg"><g><path d="m60 6v38h-56v-38" fill="#c7e2fc"/><path d="m4 29.589c5.132 2.765 11.542 4.411 18.5 4.411 16.845 0 30.5-9.626 30.5-21.5 0-2.266-.5-4.449-1.422-6.5h-47.578z" fill="#ebf7fe"/><path d="m2 2h60v4h-60z" fill="#4d5d7a"/><path d="m28 30h4v10h-4z" fill="#c66b60"/><path d="m44 17h4v23h-4z" fill="#c66b60"/><path d="m36 26h4v14h-4z" fill="#669e4f"/><path d="m52 10h4v30h-4z" fill="#669e4f"/><path d="m22 24h-10.883l-.123-1.11c-.057-.507-.484-.89-.994-.89h-3v2h2.104l.865 7.782c-1.173.428-1.969 1.53-1.969 2.809v1.409c0 .28.116.532.301.713-.187.392-.301.825-.301 1.287 0 1.654 1.346 3 3 3s3-1.346 3-3c0-.352-.072-.686-.184-1h2.369c-.113.314-.185.648-.185 1 0 1.654 1.346 3 3 3s3-1.346 3-3c0-.352-.072-.686-.184-1h1.184v-2h-13v-.409c0-.469.318-.869.774-.975l11.45-2.642c.455-.104.776-.508.776-.974v-5c0-.552-.447-1-1-1zm-5 2v4.128l-2 .462v-4.59zm-4 0v5.051l-1.072.247-.588-5.298zm-1 12c0 .552-.448 1-1 1s-1-.448-1-1 .448-1 1-1 1 .448 1 1zm8 0c0 .552-.448 1-1 1s-1-.448-1-1 .448-1 1-1 1 .448 1 1zm1-8.795-2 .462v-3.667h2z" fill="#4472b2"/><path d="m33 55.142v-11.142h-2v11.142c-1.721.447-3 1.999-3 3.858 0 2.206 1.794 4 4 4s4-1.794 4-4c0-1.859-1.279-3.411-3-3.858zm-1 5.858c-1.103 0-2-.897-2-2s.897-2 2-2 2 .897 2 2-.897 2-2 2z" fill="#4d5d7a"/><path d="m46.857 13.485-3-5c-.148-.247-.396-.418-.681-.47-.283-.048-.576.023-.802.204l-5 4 1.25 1.562 2.918-2.335c-2.191 6.528-7.982 11.351-14.906 12.217l-2.762.345.248 1.984 2.762-.345c7.779-.973 14.278-6.441 16.644-13.82l1.613 2.688z" fill="#669e4f"/></g></svg>