<svg id="Layer_3" enable-background="new 0 0 64 64" height="512" viewBox="0 0 64 64" width="512" xmlns="http://www.w3.org/2000/svg"><g><path d="m33 30v-28h8v31" fill="#c7e2fc"/><path d="m23 10h6v28h-6z" fill="#c66b60"/><path d="m26 2-3 8h6" fill="#efbe9a"/><g><path d="m33 5h3v2h-3z" fill="#a1cdfb"/></g><g><path d="m33 9h5v2h-5z" fill="#a1cdfb"/></g><g><path d="m33 13h3v2h-3z" fill="#a1cdfb"/></g><g><path d="m33 17h5v2h-5z" fill="#a1cdfb"/></g><g><path d="m33 21h3v2h-3z" fill="#a1cdfb"/></g><path d="m43 62c5.523 0 10-4.477 10-10 0-4.734-3.293-8.69-7.71-9.726.452-1.173.71-2.442.71-3.774 0-5.799-4.701-10.5-10.5-10.5-4.213 0-7.836 2.487-9.509 6.068-.325-.041-.655-.068-.991-.068-4.418 0-8 3.582-8 8 0 .067.008.132.01.199-4.569.923-8.01 4.96-8.01 9.801 0 5.523 4.477 10 10 10z" fill="#8bd2f5"/><g><path d="m30 52h-2c0-4.963-4.037-9-9-9v-2c6.065 0 11 4.935 11 11z" fill="#66acd7"/></g><g><path d="m34 42h-2c0-3.196-2.158-5.984-5.249-6.779l.498-1.938c3.975 1.024 6.751 4.608 6.751 8.717z" fill="#66acd7"/></g><g><path d="m35.5 50v-2c3.323 0 6.349-1.691 8.095-4.524l1.703 1.049c-2.113 3.428-5.776 5.475-9.798 5.475z" fill="#66acd7"/></g></g></svg>