<svg id="Layer_3" enable-background="new 0 0 64 64" height="512" viewBox="0 0 64 64" width="512" xmlns="http://www.w3.org/2000/svg"><g><path d="m34 16v-5l3-2v-4l-3-3v5h-4v-5l-3 3v4l3 2v5" fill="#4d5d7a"/><circle cx="32" cy="25" fill="#3d98f7" r="11"/><g fill="#96cc7f"><path d="m35 20v3h4l2.858-2.858c-1.795-3.635-5.529-6.142-9.858-6.142v3z"/><path d="m21 25c0 2.271.689 4.38 1.868 6.132l3.132-3.132v-3l2-2v-3l-3.254-3.254c-2.292 2.016-3.746 4.962-3.746 8.254z"/><path d="m37 30-2 2-3 1v3c4.273 0 7.968-2.441 9.79-6z"/></g><path d="m49 26h7v4l6-6-6-6v4h-7" fill="#669e4f"/><path d="m15 26h-7v4l-6-6 6-6v4h7" fill="#669e4f"/><path d="m34 52c.613 1.226 1.866 2 3.236 2h.146c1.998 0 3.618 1.62 3.618 3.618v4.382h-18v-4.382c0-1.998 1.62-3.618 3.618-3.618h.146c1.37 0 2.623-.774 3.236-2" fill="#669e4f"/><path d="m28 54 .586.586c.905.905 2.133 1.414 3.414 1.414s2.509-.509 3.414-1.414l.586-.586.122-.183c-.908-.294-1.682-.936-2.122-1.817h-4c-.44.881-1.214 1.523-2.122 1.817z" fill="#efbe9a"/><path d="m32 52c-2.761 0-5-2.239-5-5v-2c0-2.761 2.239-5 5-5 2.761 0 5 2.239 5 5v2c0 2.761-2.239 5-5 5z" fill="#efbe9a"/><path d="m55 52c.613 1.226 1.866 2 3.236 2h.146c1.998 0 3.618 1.62 3.618 3.618v4.382h-18v-4.382c0-1.998 1.62-3.618 3.618-3.618h.146c1.37 0 2.623-.774 3.236-2" fill="#669e4f"/><path d="m49 54 .586.586c.905.905 2.133 1.414 3.414 1.414s2.509-.509 3.414-1.414l.586-.586.122-.183c-.908-.294-1.682-.936-2.122-1.817h-4c-.44.881-1.214 1.523-2.122 1.817z" fill="#efbe9a"/><path d="m53 52c-2.761 0-5-2.239-5-5v-2c0-2.761 2.239-5 5-5 2.761 0 5 2.239 5 5v2c0 2.761-2.239 5-5 5z" fill="#efbe9a"/><path d="m13 52c.613 1.226 1.866 2 3.236 2h.146c1.998 0 3.618 1.62 3.618 3.618v4.382h-18v-4.382c0-1.998 1.62-3.618 3.618-3.618h.146c1.37 0 2.623-.774 3.236-2" fill="#669e4f"/><path d="m7 54 .586.586c.905.905 2.133 1.414 3.414 1.414s2.509-.509 3.414-1.414l.586-.586.122-.183c-.908-.294-1.682-.936-2.122-1.817h-4c-.44.881-1.214 1.523-2.122 1.817z" fill="#efbe9a"/><path d="m11 52c-2.761 0-5-2.239-5-5v-2c0-2.761 2.239-5 5-5 2.761 0 5 2.239 5 5v2c0 2.761-2.239 5-5 5z" fill="#efbe9a"/><g><path d="m45 21h2v2h-2z" fill="#669e4f"/></g><g><path d="m45 25h2v2h-2z" fill="#669e4f"/></g><g><path d="m17 21h2v2h-2z" fill="#669e4f"/></g><g><path d="m17 25h2v2h-2z" fill="#669e4f"/></g></g></svg>