<svg id="Layer_3" enable-background="new 0 0 64 64" height="512" viewBox="0 0 64 64" width="512" xmlns="http://www.w3.org/2000/svg"><g><circle cx="10" cy="50" fill="#f5b953" r="8"/><path d="m62 32h-19v10h-14v10h-14v10h47z" fill="#8892a0"/><path d="m35 28v-12h-5l7-7 7 7h-5v12" fill="#669e4f"/><path d="m53 21v-12h-5l7-7 7 7h-5v12" fill="#669e4f"/><circle cx="10" cy="10" fill="#f5b953" r="8"/><circle cx="10" cy="30" fill="#f5b953" r="8"/><g fill="#78b75b"><path d="m52 23h2v2h-2z"/><path d="m52 27h2v2h-2z"/><path d="m34 30h2v2h-2z"/><path d="m34 34h2v2h-2z"/><path d="m38 30h2v2h-2z"/><path d="m38 34h2v2h-2z"/><path d="m57 23h2v2h-2z"/><path d="m57 27h2v2h-2z"/></g><path d="m11 5h-2v2h-1c-.404 0-.77.243-.924.617-.155.374-.069.804.217 1.09l2.293 2.293h-2.586v2h2v2h2v-2h1c.404 0 .77-.243.924-.617.155-.374.069-.804-.217-1.09l-2.293-2.293h2.586v-2h-2z" fill="#fff"/><path d="m11 25h-2v2h-1c-.404 0-.77.243-.924.617-.155.374-.069.804.217 1.09l2.293 2.293h-2.586v2h2v2h2v-2h1c.404 0 .77-.243.924-.617.155-.374.069-.804-.217-1.09l-2.293-2.293h2.586v-2h-2z" fill="#fff"/><path d="m11 45h-2v2h-1c-.404 0-.77.243-.924.617-.155.374-.069.804.217 1.09l2.293 2.293h-2.586v2h2v2h2v-2h1c.404 0 .77-.243.924-.617.155-.374.069-.804-.217-1.09l-2.293-2.293h2.586v-2h-2z" fill="#fff"/></g></svg>