<svg id="Layer_3" enable-background="new 0 0 64 64" height="512" viewBox="0 0 64 64" width="512" xmlns="http://www.w3.org/2000/svg"><g><path d="m13 2h42v56h-42z" fill="#c7e2fc"/><path d="m51 62v-48h-8v-8h-34v56z" fill="#c7e2fc"/><path d="m43 6h-17.708c-2.725 5.002-4.292 10.805-4.292 17 0 18.063 13.259 32.829 30 33.927v-42.927h-8z" fill="#ebf7fe"/><path d="m51 14h-8v-8" fill="#8892a0"/><circle cx="26" cy="22" fill="#fff" r="13"/><path d="m22 22h8c1.105 0 2 .895 2 2v6h-12v-6c0-1.105.895-2 2-2z" fill="#3d98f7"/><path d="m26 12c1.657 0 3 1.343 3 3v2c0 1.657-1.343 3-3 3-1.657 0-3-1.343-3-3v-2c0-1.657 1.343-3 3-3z" fill="#efbe9a"/><g><path d="m12 37h36v2h-36z" fill="#8892a0"/></g><g><path d="m12 41h36v2h-36z" fill="#8892a0"/></g><g><path d="m12 45h36v2h-36z" fill="#8892a0"/></g><g><path d="m12 49h36v2h-36z" fill="#8892a0"/></g><g><path d="m12 53h18v2h-18z" fill="#8892a0"/></g><g><path d="m12 57h18v2h-18z" fill="#8892a0"/></g></g></svg>