<svg id="Layer_3" enable-background="new 0 0 64 64" height="512" viewBox="0 0 64 64" width="512" xmlns="http://www.w3.org/2000/svg"><g><path d="m24 8h22v-2c0-2.209 1.791-4 4-4 2.209 0 4 1.791 4 4v50h-22v2c0 2.209-1.791 4-4 4-2.209 0-4-1.791-4-4z" fill="#c7e2fc"/><path d="m49 22.5c0-5.592-1.087-10.853-3-15.447v.947h-22v47c13.807 0 25-14.551 25-32.5z" fill="#ebf7fe"/><path d="m50 2h-30c-2.209 0-4 1.791-4 4v2h30v-2c0-2.209 1.791-4 4-4z" fill="#a1cdfb"/><circle cx="40" cy="22" fill="#f5b953" r="8"/><circle cx="40" cy="42" fill="#f5b953" r="8"/><circle cx="40" cy="42" fill="#fff" r="5"/><circle cx="40" cy="22" fill="#fff" r="5"/><path d="m28 62h30c2.209 0 4-1.791 4-4v-2h-30v2c0 2.209-1.791 4-4 4z" fill="#a1cdfb"/><path d="m4 22h22c1.105 0 2 .895 2 2v30c0 1.105-.895 2-2 2h-22c-1.105 0-2-.895-2-2v-30c0-1.105.895-2 2-2z" fill="#f5b953"/><g fill="#fff"><path d="m5 25h20v6h-20z"/><path d="m5 35h4v4h-4z"/><path d="m13 35h4v4h-4z"/><path d="m21 35h4v4h-4z"/><path d="m5 42h4v4h-4z"/><path d="m13 42h4v4h-4z"/><path d="m21 42h4v4h-4z"/><path d="m5 49h4v4h-4z"/><path d="m13 49h4v4h-4z"/><path d="m21 49h4v4h-4z"/></g><g fill="#8892a0"><path d="m43 20v-1c0-1.302-.839-2.402-2-2.816v-2.184h-2v2.184c-1.161.414-2 1.514-2 2.816v1c0 1.654 1.346 3 3 3 .551 0 1 .449 1 1v1c0 .551-.449 1-1 1s-1-.449-1-1v-1h-2v1c0 1.302.839 2.402 2 2.816v2.184h2v-2.184c1.161-.414 2-1.514 2-2.816v-1c0-1.654-1.346-3-3-3-.551 0-1-.449-1-1v-1c0-.551.449-1 1-1s1 .449 1 1v1z"/><path d="m41 36.184v-2.184h-2v2.184c-1.161.414-2 1.514-2 2.816v1c0 1.654 1.346 3 3 3 .551 0 1 .449 1 1v1c0 .551-.449 1-1 1s-1-.449-1-1v-1h-2v1c0 1.302.839 2.402 2 2.816v2.184h2v-2.184c1.161-.414 2-1.514 2-2.816v-1c0-1.654-1.346-3-3-3-.551 0-1-.449-1-1v-1c0-.551.449-1 1-1s1 .449 1 1v1h2v-1c0-1.302-.839-2.402-2-2.816z"/></g></g></svg>