<svg id="Layer_3" enable-background="new 0 0 64 64" height="512" viewBox="0 0 64 64" width="512" xmlns="http://www.w3.org/2000/svg"><g><path d="m52 20v3l3.566.509c1.97.282 3.434 1.97 3.434 3.96v4.531h-20v-4.531c0-1.991 1.464-3.678 3.434-3.96l3.566-.509v-3" fill="#c7e2fc"/><path d="m46.5 29c4.173 0 7.766-2.208 9.459-5.397-.131-.032-.258-.074-.394-.093l-3.565-.51v-3h-6v3l-3.566.509c-1.571.224-2.805 1.348-3.247 2.8 1.891 1.663 4.468 2.691 7.313 2.691z" fill="#ebf7fe"/><path d="m40 12v-4c0-3.314 2.686-6 6-6h6c3.314 0 6 2.686 6 6v4" fill="#976947"/><path d="m55 12h2c1.105 0 2 .895 2 2 0 1.105-.895 2-2 2h-2" fill="#db9b7c"/><path d="m43 12h-2c-1.105 0-2 .895-2 2 0 1.105.895 2 2 2h2" fill="#db9b7c"/><path d="m54 10c-1.657 0-3-1.343-3-3 0 1.657-1.343 3-3 3h-5v5c0 2.22 1.208 4.153 3 5.191v2.809c0 1.657 1.343 3 3 3s3-1.343 3-3v-2.809c1.792-1.038 3-2.971 3-5.191v-5z" fill="#efbe9a"/><path d="m23 24h.838c1.888 0 3.565-1.208 4.162-3h-2c-1.105 0-2-.895-2-2v-3-4-4c0-3.314-2.686-6-6-6h-6c-3.314 0-6 2.686-6 6v4 4 3c0 1.105-.895 2-2 2h-2c.597 1.792 2.274 3 4.162 3h.838" fill="#976947"/><path d="m9 12h-2c-1.105 0-2 .895-2 2 0 1.105.895 2 2 2h2" fill="#db9b7c"/><path d="m18 20v3l3.566.509c1.97.282 3.434 1.97 3.434 3.96v4.531h-20v-4.531c0-1.991 1.464-3.678 3.434-3.96l3.566-.509v-3" fill="#4d5d7a"/><path d="m19 28h2v-4.571l-3-.429v-3h-6v3l-3 .429v4.571h2l-1 2 2 2h6l2-2z" fill="#8892a0"/><path d="m20 10c-1.657 0-3-1.343-3-3 0 1.657-1.343 3-3 3h-5v5c0 2.22 1.208 4.153 3 5.191v2.809l3 9 3-9v-2.809c1.792-1.038 3-2.971 3-5.191v-5z" fill="#efbe9a"/><path d="m21 12h2c1.105 0 2 .895 2 2 0 1.105-.895 2-2 2h-2" fill="#db9b7c"/><path d="m61.928 52.698h-14-.005c-.042-.688-.333-1.339-.823-1.829l-10.172-10.171h-4l-5.172 5.172c-.53.53-1.25.828-2 .828-1.562 0-2.828-1.266-2.828-2.828 0-.75.298-1.47.828-2l6.172-6.172h32" fill="#db9b7c"/><path d="m1.928 35.698h28l-6.172 6.172c-.53.53-.828 1.25-.828 2 0 1.562 1.266 2.828 2.828 2.828.75 0 1.47-.298 2-.828l5.172-5.172h4l10.171 10.172c.53.53.828 1.25.828 2 0 1.562-1.266 2.828-2.828 2.828-.75 0-1.47-.298-2-.828l-2-2c.53.53.828 1.25.828 2 0 1.562-1.266 2.828-2.828 2.828-.75 0-1.47-.298-2-.828l-2-2c.53.53.828 1.25.828 2 0 1.562-1.266 2.828-2.828 2.828-.75 0-1.47-.298-2-.828l-2-2c.53.53.828 1.25.828 2 0 1.562-1.266 2.828-2.828 2.828-.75 0-1.47-.298-2-.828l-8.172-8.172h-15" fill="#efbe9a"/><g><path d="m37.014 45.42h2v8.728h-2z" fill="#db9b7c" transform="matrix(.707 -.707 .707 .707 -24.069 41.461)"/></g><g><path d="m26.014 51.834h2v5.9h-2z" fill="#db9b7c" transform="matrix(.707 -.707 .707 .707 -30.826 35.148)"/></g><g><path d="m31.514 48.627h2v7.314h-2z" fill="#db9b7c" transform="matrix(.707 -.707 .707 .707 -27.448 38.304)"/></g></g></svg>