<svg id="Layer_3" enable-background="new 0 0 64 64" height="512" viewBox="0 0 64 64" width="512" xmlns="http://www.w3.org/2000/svg"><g><path d="m60 6v26h-34v-26" fill="#c7e2fc"/><path d="m55.5 26c1.54 0 3.043-.133 4.5-.38v-19.62h-27.986c.306 11.09 10.7 20 23.486 20z" fill="#ebf7fe"/><circle cx="38" cy="18" fill="#c66b60" r="8"/><path d="m38 18v-8c-2.209 0-4.209.895-5.657 2.343z" fill="#f5b953"/><path d="m38 10v8h8c0-4.418-3.582-8-8-8z" fill="#669e4f"/><path d="m24 2h38v4h-38z" fill="#8892a0"/><path d="m36 54h8c1.105 0 2 .895 2 2v6h-12v-6c0-1.105.895-2 2-2z" fill="#669e4f"/><path d="m40 44c1.657 0 3 1.343 3 3v2c0 1.657-1.343 3-3 3-1.657 0-3-1.343-3-3v-2c0-1.657 1.343-3 3-3z" fill="#efbe9a"/><path d="m21 13v-4c0-1.657-1.343-3-3-3v-1c0-1.657-1.343-3-3-3h-9c-1.657 0-3 1.343-3 3v8" fill="#976947"/><path d="m22 33v-5.531c0-1.991-1.464-3.678-3.434-3.96l-3.566-.509v-3h-6v3l-3.566.509c-1.97.282-3.434 1.97-3.434 3.96v5.531" fill="#2b74ca"/><path d="m15 23 3 .429v4.571h-2l1 2-2 3h-3z" fill="#3d98f7"/><path d="m15 19v4l-3 10-3-10v-4" fill="#efbe9a"/><path d="m9 23-3 .429v4.571h2l-1 2 2 3h3z" fill="#3d98f7"/><path d="m18 12h2c1.105 0 2 .895 2 2 0 1.105-.895 2-2 2h-2" fill="#db9b7c"/><path d="m6 12h-2c-1.105 0-2 .895-2 2 0 1.105.895 2 2 2h2" fill="#db9b7c"/><path d="m14 7c0 1.657 1.343 3 3 3h1v5c0 3.314-2.686 6-6 6-3.314 0-6-2.686-6-6v-5h5c1.657 0 3-1.343 3-3z" fill="#efbe9a"/><g><path d="m55 18h2v11h-2z" fill="#78b75b"/></g><g><path d="m51 23h2v6h-2z" fill="#c66b60"/></g><g><path d="m47 27h2v2h-2z" fill="#78b75b"/></g><g><path d="m42 57h2v5h-2z" fill="#78b75b"/></g><g><path d="m36 57h2v5h-2z" fill="#78b75b"/></g><path d="m52 54h8c1.105 0 2 .895 2 2v6h-12v-6c0-1.105.895-2 2-2z" fill="#669e4f"/><path d="m56 44c1.657 0 3 1.343 3 3v2c0 1.657-1.343 3-3 3-1.657 0-3-1.343-3-3v-2c0-1.657 1.343-3 3-3z" fill="#efbe9a"/><g><path d="m58 57h2v5h-2z" fill="#78b75b"/></g><g><path d="m52 57h2v5h-2z" fill="#78b75b"/></g><path d="m4 54h8c1.105 0 2 .895 2 2v6h-12v-6c0-1.105.895-2 2-2z" fill="#669e4f"/><path d="m8 44c1.657 0 3 1.343 3 3v2c0 1.657-1.343 3-3 3-1.657 0-3-1.343-3-3v-2c0-1.657 1.343-3 3-3z" fill="#efbe9a"/><g><path d="m10 57h2v5h-2z" fill="#78b75b"/></g><g><path d="m4 57h2v5h-2z" fill="#78b75b"/></g><path d="m20 54h8c1.105 0 2 .895 2 2v6h-12v-6c0-1.105.895-2 2-2z" fill="#669e4f"/><path d="m24 44c1.657 0 3 1.343 3 3v2c0 1.657-1.343 3-3 3-1.657 0-3-1.343-3-3v-2c0-1.657 1.343-3 3-3z" fill="#efbe9a"/><g><path d="m26 57h2v5h-2z" fill="#78b75b"/></g><g><path d="m20 57h2v5h-2z" fill="#78b75b"/></g></g></svg>